M48
; DRILL file {KiCad (5.1.6)-1} date 01/03/22 19:56:38
; FORMAT={-:-/ absolute / metric / decimal}
; #@! TF.CreationDate,2022-01-03T19:56:38+01:00
; #@! TF.GenerationSoftware,Kicad,Pcbnew,(5.1.6)-1
; #@! TF.FileFunction,Plated,1,2,PTH
FMAT,2
METRIC
T1C0.950
T2C1.000
%
G90
G05
T1
X151.8Y-80.1
X154.3Y-80.1
X156.8Y-80.1
X159.3Y-80.1
X129.4Y-74.5
X129.4Y-77.0
X129.4Y-79.5
X151.8Y-69.9
X154.3Y-69.9
X156.8Y-69.9
X159.3Y-69.9
X134.7Y-74.5
X134.7Y-77.0
X134.7Y-79.5
X146.4Y-91.9
X148.9Y-91.9
X151.4Y-91.9
X153.9Y-91.9
X156.4Y-91.9
X125.2Y-91.9
X127.7Y-91.9
X130.2Y-91.9
X132.7Y-91.9
X135.2Y-91.9
X124.1Y-74.5
X124.1Y-77.0
X124.1Y-79.5
X140.2Y-74.5
X140.2Y-77.0
X140.2Y-79.5
X151.8Y-75.0
X154.3Y-75.0
X156.8Y-75.0
X159.3Y-75.0
T2
X152.1Y-56.1
X152.1Y-58.6
X136.65Y-65.4
X139.15Y-65.4
X127.6Y-59.65
X130.1Y-59.65
X136.65Y-59.55
X139.15Y-59.55
X128.68Y-98.46
X128.68Y-101.0
X131.22Y-98.46
X131.22Y-101.0
X133.76Y-98.46
X133.76Y-101.0
X136.3Y-98.46
X136.3Y-101.0
X138.84Y-98.46
X138.84Y-101.0
X141.38Y-98.46
X141.38Y-101.0
X143.92Y-98.46
X143.92Y-101.0
X146.46Y-98.46
X146.46Y-101.0
X149.0Y-98.46
X149.0Y-101.0
X151.54Y-98.46
X151.54Y-101.0
X154.08Y-98.46
X154.08Y-101.0
X156.62Y-98.46
X156.62Y-101.0
X159.16Y-98.46
X159.16Y-101.0
X161.7Y-98.46
X161.7Y-101.0
X164.24Y-98.46
X164.24Y-101.0
X166.78Y-98.46
X166.78Y-101.0
X169.32Y-98.46
X169.32Y-101.0
X171.86Y-98.46
X171.86Y-101.0
X174.4Y-98.46
X174.4Y-101.0
X176.94Y-98.46
X176.94Y-101.0
X158.2Y-56.1
X158.2Y-58.6
X127.6Y-65.5
X130.1Y-65.5
X164.2Y-56.0
X164.2Y-58.5
X169.3Y-56.0
X169.3Y-58.5
X164.2Y-89.9
X164.2Y-92.44
X166.74Y-89.9
X166.74Y-92.44
X169.28Y-89.9
X169.28Y-92.44
X171.82Y-89.9
X171.82Y-92.44
X174.36Y-89.9
X174.36Y-92.44
X176.9Y-89.9
X176.9Y-92.44
T0
M30
