%TF.GenerationSoftware,KiCad,Pcbnew,(5.1.6)-1*%
%TF.CreationDate,2022-01-03T19:53:18+01:00*%
%TF.ProjectId,carte_domotique,63617274-655f-4646-9f6d-6f7469717565,rev?*%
%TF.SameCoordinates,Original*%
%TF.FileFunction,Copper,L2,Bot*%
%TF.FilePolarity,Positive*%
%FSLAX46Y46*%
G04 Gerber Fmt 4.6, Leading zero omitted, Abs format (unit mm)*
G04 Created by KiCad (PCBNEW (5.1.6)-1) date 2022-01-03 19:53:18*
%MOMM*%
%LPD*%
G01*
G04 APERTURE LIST*
%TA.AperFunction,WasherPad*%
%ADD10C,2.700000*%
%TD*%
%TA.AperFunction,ComponentPad*%
%ADD11O,1.700000X1.950000*%
%TD*%
%TA.AperFunction,ComponentPad*%
%ADD12O,1.950000X1.700000*%
%TD*%
%TA.AperFunction,ComponentPad*%
%ADD13O,1.700000X2.000000*%
%TD*%
%TA.AperFunction,ComponentPad*%
%ADD14O,2.000000X1.700000*%
%TD*%
%TA.AperFunction,ComponentPad*%
%ADD15O,1.700000X1.700000*%
%TD*%
%TA.AperFunction,ComponentPad*%
%ADD16R,1.700000X1.700000*%
%TD*%
%TA.AperFunction,Conductor*%
%ADD17C,0.300000*%
%TD*%
%TA.AperFunction,Conductor*%
%ADD18C,1.000000*%
%TD*%
%TA.AperFunction,Conductor*%
%ADD19C,0.254000*%
%TD*%
G04 APERTURE END LIST*
D10*
%TO.P,H2,*%
%TO.N,*%
X181900000Y-50900000D03*
%TD*%
%TO.P,H1,*%
%TO.N,*%
X123900000Y-50900000D03*
%TD*%
D11*
%TO.P,J12,4*%
%TO.N,GND*%
X159300000Y-69900000D03*
%TO.P,J12,3*%
%TO.N,SDA*%
X156800000Y-69900000D03*
%TO.P,J12,2*%
%TO.N,SCL*%
X154300000Y-69900000D03*
%TO.P,J12,1*%
%TO.N,+5V*%
%TA.AperFunction,ComponentPad*%
G36*
G01*
X150950000Y-70625000D02*
X150950000Y-69175000D01*
G75*
G02*
X151200000Y-68925000I250000J0D01*
G01*
X152400000Y-68925000D01*
G75*
G02*
X152650000Y-69175000I0J-250000D01*
G01*
X152650000Y-70625000D01*
G75*
G02*
X152400000Y-70875000I-250000J0D01*
G01*
X151200000Y-70875000D01*
G75*
G02*
X150950000Y-70625000I0J250000D01*
G01*
G37*
%TD.AperFunction*%
%TD*%
%TO.P,J11,4*%
%TO.N,GND*%
X159300000Y-80100000D03*
%TO.P,J11,3*%
%TO.N,SDA*%
X156800000Y-80100000D03*
%TO.P,J11,2*%
%TO.N,SCL*%
X154300000Y-80100000D03*
%TO.P,J11,1*%
%TO.N,+5V*%
%TA.AperFunction,ComponentPad*%
G36*
G01*
X150950000Y-80825000D02*
X150950000Y-79375000D01*
G75*
G02*
X151200000Y-79125000I250000J0D01*
G01*
X152400000Y-79125000D01*
G75*
G02*
X152650000Y-79375000I0J-250000D01*
G01*
X152650000Y-80825000D01*
G75*
G02*
X152400000Y-81075000I-250000J0D01*
G01*
X151200000Y-81075000D01*
G75*
G02*
X150950000Y-80825000I0J250000D01*
G01*
G37*
%TD.AperFunction*%
%TD*%
%TO.P,J10,4*%
%TO.N,GND*%
X159300000Y-75000000D03*
%TO.P,J10,3*%
%TO.N,SDA*%
X156800000Y-75000000D03*
%TO.P,J10,2*%
%TO.N,SCL*%
X154300000Y-75000000D03*
%TO.P,J10,1*%
%TO.N,+5V*%
%TA.AperFunction,ComponentPad*%
G36*
G01*
X150950000Y-75725000D02*
X150950000Y-74275000D01*
G75*
G02*
X151200000Y-74025000I250000J0D01*
G01*
X152400000Y-74025000D01*
G75*
G02*
X152650000Y-74275000I0J-250000D01*
G01*
X152650000Y-75725000D01*
G75*
G02*
X152400000Y-75975000I-250000J0D01*
G01*
X151200000Y-75975000D01*
G75*
G02*
X150950000Y-75725000I0J250000D01*
G01*
G37*
%TD.AperFunction*%
%TD*%
D12*
%TO.P,J9,3*%
%TO.N,GND*%
X134700000Y-74500000D03*
%TO.P,J9,2*%
%TO.N,Net-(J2-Pad28)*%
X134700000Y-77000000D03*
%TO.P,J9,1*%
%TO.N,+5V*%
%TA.AperFunction,ComponentPad*%
G36*
G01*
X135425000Y-80350000D02*
X133975000Y-80350000D01*
G75*
G02*
X133725000Y-80100000I0J250000D01*
G01*
X133725000Y-78900000D01*
G75*
G02*
X133975000Y-78650000I250000J0D01*
G01*
X135425000Y-78650000D01*
G75*
G02*
X135675000Y-78900000I0J-250000D01*
G01*
X135675000Y-80100000D01*
G75*
G02*
X135425000Y-80350000I-250000J0D01*
G01*
G37*
%TD.AperFunction*%
%TD*%
%TO.P,J8,3*%
%TO.N,GND*%
X140200000Y-74500000D03*
%TO.P,J8,2*%
%TO.N,Net-(J2-Pad27)*%
X140200000Y-77000000D03*
%TO.P,J8,1*%
%TO.N,+5V*%
%TA.AperFunction,ComponentPad*%
G36*
G01*
X140925000Y-80350000D02*
X139475000Y-80350000D01*
G75*
G02*
X139225000Y-80100000I0J250000D01*
G01*
X139225000Y-78900000D01*
G75*
G02*
X139475000Y-78650000I250000J0D01*
G01*
X140925000Y-78650000D01*
G75*
G02*
X141175000Y-78900000I0J-250000D01*
G01*
X141175000Y-80100000D01*
G75*
G02*
X140925000Y-80350000I-250000J0D01*
G01*
G37*
%TD.AperFunction*%
%TD*%
%TO.P,J7,3*%
%TO.N,GND*%
X124100000Y-74500000D03*
%TO.P,J7,2*%
%TO.N,Net-(J2-Pad33)*%
X124100000Y-77000000D03*
%TO.P,J7,1*%
%TO.N,+5V*%
%TA.AperFunction,ComponentPad*%
G36*
G01*
X124825000Y-80350000D02*
X123375000Y-80350000D01*
G75*
G02*
X123125000Y-80100000I0J250000D01*
G01*
X123125000Y-78900000D01*
G75*
G02*
X123375000Y-78650000I250000J0D01*
G01*
X124825000Y-78650000D01*
G75*
G02*
X125075000Y-78900000I0J-250000D01*
G01*
X125075000Y-80100000D01*
G75*
G02*
X124825000Y-80350000I-250000J0D01*
G01*
G37*
%TD.AperFunction*%
%TD*%
%TO.P,J6,3*%
%TO.N,GND*%
X129400000Y-74500000D03*
%TO.P,J6,2*%
%TO.N,Net-(J2-Pad32)*%
X129400000Y-77000000D03*
%TO.P,J6,1*%
%TO.N,+5V*%
%TA.AperFunction,ComponentPad*%
G36*
G01*
X130125000Y-80350000D02*
X128675000Y-80350000D01*
G75*
G02*
X128425000Y-80100000I0J250000D01*
G01*
X128425000Y-78900000D01*
G75*
G02*
X128675000Y-78650000I250000J0D01*
G01*
X130125000Y-78650000D01*
G75*
G02*
X130375000Y-78900000I0J-250000D01*
G01*
X130375000Y-80100000D01*
G75*
G02*
X130125000Y-80350000I-250000J0D01*
G01*
G37*
%TD.AperFunction*%
%TD*%
D13*
%TO.P,J19,2*%
%TO.N,GND*%
X136650000Y-59550000D03*
%TO.P,J19,1*%
%TO.N,+3V3*%
%TA.AperFunction,ComponentPad*%
G36*
G01*
X140000000Y-58799900D02*
X140000000Y-60300100D01*
G75*
G02*
X139750100Y-60550000I-249900J0D01*
G01*
X138549900Y-60550000D01*
G75*
G02*
X138300000Y-60300100I0J249900D01*
G01*
X138300000Y-58799900D01*
G75*
G02*
X138549900Y-58550000I249900J0D01*
G01*
X139750100Y-58550000D01*
G75*
G02*
X140000000Y-58799900I0J-249900D01*
G01*
G37*
%TD.AperFunction*%
%TD*%
%TO.P,J18,2*%
%TO.N,GND*%
X136650000Y-65400000D03*
%TO.P,J18,1*%
%TO.N,+3V3*%
%TA.AperFunction,ComponentPad*%
G36*
G01*
X140000000Y-64650000D02*
X140000000Y-66150000D01*
G75*
G02*
X139750000Y-66400000I-250000J0D01*
G01*
X138550000Y-66400000D01*
G75*
G02*
X138300000Y-66150000I0J250000D01*
G01*
X138300000Y-64650000D01*
G75*
G02*
X138550000Y-64400000I250000J0D01*
G01*
X139750000Y-64400000D01*
G75*
G02*
X140000000Y-64650000I0J-250000D01*
G01*
G37*
%TD.AperFunction*%
%TD*%
%TO.P,J17,2*%
%TO.N,GND*%
X127600000Y-59650000D03*
%TO.P,J17,1*%
%TO.N,+3V3*%
%TA.AperFunction,ComponentPad*%
G36*
G01*
X130950000Y-58900000D02*
X130950000Y-60400000D01*
G75*
G02*
X130700000Y-60650000I-250000J0D01*
G01*
X129500000Y-60650000D01*
G75*
G02*
X129250000Y-60400000I0J250000D01*
G01*
X129250000Y-58900000D01*
G75*
G02*
X129500000Y-58650000I250000J0D01*
G01*
X130700000Y-58650000D01*
G75*
G02*
X130950000Y-58900000I0J-250000D01*
G01*
G37*
%TD.AperFunction*%
%TD*%
%TO.P,J16,2*%
%TO.N,GND*%
X127600000Y-65500000D03*
%TO.P,J16,1*%
%TO.N,+3V3*%
%TA.AperFunction,ComponentPad*%
G36*
G01*
X130950000Y-64750000D02*
X130950000Y-66250000D01*
G75*
G02*
X130700000Y-66500000I-250000J0D01*
G01*
X129500000Y-66500000D01*
G75*
G02*
X129250000Y-66250000I0J250000D01*
G01*
X129250000Y-64750000D01*
G75*
G02*
X129500000Y-64500000I250000J0D01*
G01*
X130700000Y-64500000D01*
G75*
G02*
X130950000Y-64750000I0J-250000D01*
G01*
G37*
%TD.AperFunction*%
%TD*%
D11*
%TO.P,J5,5*%
%TO.N,GND*%
X146400000Y-91900000D03*
%TO.P,J5,4*%
%TO.N,Net-(J2-Pad23)*%
X148900000Y-91900000D03*
%TO.P,J5,3*%
%TO.N,Net-(J2-Pad19)*%
X151400000Y-91900000D03*
%TO.P,J5,2*%
%TO.N,Net-(J2-Pad21)*%
X153900000Y-91900000D03*
%TO.P,J5,1*%
%TO.N,+5V*%
%TA.AperFunction,ComponentPad*%
G36*
G01*
X157250000Y-91175000D02*
X157250000Y-92625000D01*
G75*
G02*
X157000000Y-92875000I-250000J0D01*
G01*
X155800000Y-92875000D01*
G75*
G02*
X155550000Y-92625000I0J250000D01*
G01*
X155550000Y-91175000D01*
G75*
G02*
X155800000Y-90925000I250000J0D01*
G01*
X157000000Y-90925000D01*
G75*
G02*
X157250000Y-91175000I0J-250000D01*
G01*
G37*
%TD.AperFunction*%
%TD*%
%TO.P,J4,5*%
%TO.N,GND*%
X125200000Y-91900000D03*
%TO.P,J4,4*%
%TO.N,Net-(J2-Pad40)*%
X127700000Y-91900000D03*
%TO.P,J4,3*%
%TO.N,Net-(J2-Pad38)*%
X130200000Y-91900000D03*
%TO.P,J4,2*%
%TO.N,Net-(J2-Pad35)*%
X132700000Y-91900000D03*
%TO.P,J4,1*%
%TO.N,+5V*%
%TA.AperFunction,ComponentPad*%
G36*
G01*
X136050000Y-91175000D02*
X136050000Y-92625000D01*
G75*
G02*
X135800000Y-92875000I-250000J0D01*
G01*
X134600000Y-92875000D01*
G75*
G02*
X134350000Y-92625000I0J250000D01*
G01*
X134350000Y-91175000D01*
G75*
G02*
X134600000Y-90925000I250000J0D01*
G01*
X135800000Y-90925000D01*
G75*
G02*
X136050000Y-91175000I0J-250000D01*
G01*
G37*
%TD.AperFunction*%
%TD*%
D14*
%TO.P,J15,2*%
%TO.N,GND*%
X169300000Y-56000000D03*
%TO.P,J15,1*%
%TO.N,+5V*%
%TA.AperFunction,ComponentPad*%
G36*
G01*
X170050000Y-59350000D02*
X168550000Y-59350000D01*
G75*
G02*
X168300000Y-59100000I0J250000D01*
G01*
X168300000Y-57900000D01*
G75*
G02*
X168550000Y-57650000I250000J0D01*
G01*
X170050000Y-57650000D01*
G75*
G02*
X170300000Y-57900000I0J-250000D01*
G01*
X170300000Y-59100000D01*
G75*
G02*
X170050000Y-59350000I-250000J0D01*
G01*
G37*
%TD.AperFunction*%
%TD*%
%TO.P,J14,2*%
%TO.N,GND*%
X164200000Y-56000000D03*
%TO.P,J14,1*%
%TO.N,+5V*%
%TA.AperFunction,ComponentPad*%
G36*
G01*
X164950000Y-59350000D02*
X163450000Y-59350000D01*
G75*
G02*
X163200000Y-59100000I0J250000D01*
G01*
X163200000Y-57900000D01*
G75*
G02*
X163450000Y-57650000I250000J0D01*
G01*
X164950000Y-57650000D01*
G75*
G02*
X165200000Y-57900000I0J-250000D01*
G01*
X165200000Y-59100000D01*
G75*
G02*
X164950000Y-59350000I-250000J0D01*
G01*
G37*
%TD.AperFunction*%
%TD*%
%TO.P,J13,2*%
%TO.N,GND*%
X158200000Y-56100000D03*
%TO.P,J13,1*%
%TO.N,+5V*%
%TA.AperFunction,ComponentPad*%
G36*
G01*
X158950000Y-59450000D02*
X157450000Y-59450000D01*
G75*
G02*
X157200000Y-59200000I0J250000D01*
G01*
X157200000Y-58000000D01*
G75*
G02*
X157450000Y-57750000I250000J0D01*
G01*
X158950000Y-57750000D01*
G75*
G02*
X159200000Y-58000000I0J-250000D01*
G01*
X159200000Y-59200000D01*
G75*
G02*
X158950000Y-59450000I-250000J0D01*
G01*
G37*
%TD.AperFunction*%
%TD*%
%TO.P,J3,2*%
%TO.N,GND*%
X152100000Y-56100000D03*
%TO.P,J3,1*%
%TO.N,+5V*%
%TA.AperFunction,ComponentPad*%
G36*
G01*
X152850000Y-59450000D02*
X151350000Y-59450000D01*
G75*
G02*
X151100000Y-59200000I0J250000D01*
G01*
X151100000Y-58000000D01*
G75*
G02*
X151350000Y-57750000I250000J0D01*
G01*
X152850000Y-57750000D01*
G75*
G02*
X153100000Y-58000000I0J-250000D01*
G01*
X153100000Y-59200000D01*
G75*
G02*
X152850000Y-59450000I-250000J0D01*
G01*
G37*
%TD.AperFunction*%
%TD*%
D15*
%TO.P,J1,12*%
%TO.N,/SW1*%
X164200000Y-92440000D03*
%TO.P,J1,11*%
%TO.N,reset*%
X164200000Y-89900000D03*
%TO.P,J1,10*%
%TO.N,Net-(J1-Pad10)*%
X166740000Y-92440000D03*
%TO.P,J1,9*%
%TO.N,GND*%
X166740000Y-89900000D03*
%TO.P,J1,8*%
%TO.N,Net-(J1-Pad8)*%
X169280000Y-92440000D03*
%TO.P,J1,7*%
%TO.N,Net-(J1-Pad7)*%
X169280000Y-89900000D03*
%TO.P,J1,6*%
%TO.N,GND*%
X171820000Y-92440000D03*
%TO.P,J1,5*%
%TO.N,Net-(J1-Pad5)*%
X171820000Y-89900000D03*
%TO.P,J1,4*%
%TO.N,+5V*%
X174360000Y-92440000D03*
%TO.P,J1,3*%
%TO.N,Net-(J1-Pad3)*%
X174360000Y-89900000D03*
%TO.P,J1,2*%
%TO.N,+5V*%
X176900000Y-92440000D03*
D16*
%TO.P,J1,1*%
%TO.N,+3V3*%
X176900000Y-89900000D03*
%TD*%
%TO.P,R1,2*%
%TO.N,+5V*%
%TA.AperFunction,SMDPad,CuDef*%
G36*
G01*
X155050000Y-64425000D02*
X153800000Y-64425000D01*
G75*
G02*
X153550000Y-64175000I0J250000D01*
G01*
X153550000Y-63250000D01*
G75*
G02*
X153800000Y-63000000I250000J0D01*
G01*
X155050000Y-63000000D01*
G75*
G02*
X155300000Y-63250000I0J-250000D01*
G01*
X155300000Y-64175000D01*
G75*
G02*
X155050000Y-64425000I-250000J0D01*
G01*
G37*
%TD.AperFunction*%
%TO.P,R1,1*%
%TO.N,SCL*%
%TA.AperFunction,SMDPad,CuDef*%
G36*
G01*
X155050000Y-67400000D02*
X153800000Y-67400000D01*
G75*
G02*
X153550000Y-67150000I0J250000D01*
G01*
X153550000Y-66225000D01*
G75*
G02*
X153800000Y-65975000I250000J0D01*
G01*
X155050000Y-65975000D01*
G75*
G02*
X155300000Y-66225000I0J-250000D01*
G01*
X155300000Y-67150000D01*
G75*
G02*
X155050000Y-67400000I-250000J0D01*
G01*
G37*
%TD.AperFunction*%
%TD*%
%TO.P,R2,2*%
%TO.N,+5V*%
%TA.AperFunction,SMDPad,CuDef*%
G36*
G01*
X157625000Y-64425000D02*
X156375000Y-64425000D01*
G75*
G02*
X156125000Y-64175000I0J250000D01*
G01*
X156125000Y-63250000D01*
G75*
G02*
X156375000Y-63000000I250000J0D01*
G01*
X157625000Y-63000000D01*
G75*
G02*
X157875000Y-63250000I0J-250000D01*
G01*
X157875000Y-64175000D01*
G75*
G02*
X157625000Y-64425000I-250000J0D01*
G01*
G37*
%TD.AperFunction*%
%TO.P,R2,1*%
%TO.N,SDA*%
%TA.AperFunction,SMDPad,CuDef*%
G36*
G01*
X157625000Y-67400000D02*
X156375000Y-67400000D01*
G75*
G02*
X156125000Y-67150000I0J250000D01*
G01*
X156125000Y-66225000D01*
G75*
G02*
X156375000Y-65975000I250000J0D01*
G01*
X157625000Y-65975000D01*
G75*
G02*
X157875000Y-66225000I0J-250000D01*
G01*
X157875000Y-67150000D01*
G75*
G02*
X157625000Y-67400000I-250000J0D01*
G01*
G37*
%TD.AperFunction*%
%TD*%
D15*
%TO.P,J2,40*%
%TO.N,Net-(J2-Pad40)*%
X128680000Y-101000000D03*
%TO.P,J2,39*%
%TO.N,GND*%
X128680000Y-98460000D03*
%TO.P,J2,38*%
%TO.N,Net-(J2-Pad38)*%
X131220000Y-101000000D03*
%TO.P,J2,37*%
%TO.N,Net-(J2-Pad37)*%
X131220000Y-98460000D03*
%TO.P,J2,36*%
%TO.N,Net-(J2-Pad36)*%
X133760000Y-101000000D03*
%TO.P,J2,35*%
%TO.N,Net-(J2-Pad35)*%
X133760000Y-98460000D03*
%TO.P,J2,34*%
%TO.N,GND*%
X136300000Y-101000000D03*
%TO.P,J2,33*%
%TO.N,Net-(J2-Pad33)*%
X136300000Y-98460000D03*
%TO.P,J2,32*%
%TO.N,Net-(J2-Pad32)*%
X138840000Y-101000000D03*
%TO.P,J2,31*%
%TO.N,Net-(J2-Pad31)*%
X138840000Y-98460000D03*
%TO.P,J2,30*%
%TO.N,GND*%
X141380000Y-101000000D03*
%TO.P,J2,29*%
%TO.N,Net-(J2-Pad29)*%
X141380000Y-98460000D03*
%TO.P,J2,28*%
%TO.N,Net-(J2-Pad28)*%
X143920000Y-101000000D03*
%TO.P,J2,27*%
%TO.N,Net-(J2-Pad27)*%
X143920000Y-98460000D03*
%TO.P,J2,26*%
%TO.N,Net-(J2-Pad26)*%
X146460000Y-101000000D03*
%TO.P,J2,25*%
%TO.N,GND*%
X146460000Y-98460000D03*
%TO.P,J2,24*%
%TO.N,Net-(J2-Pad24)*%
X149000000Y-101000000D03*
%TO.P,J2,23*%
%TO.N,Net-(J2-Pad23)*%
X149000000Y-98460000D03*
%TO.P,J2,22*%
%TO.N,Net-(J2-Pad22)*%
X151540000Y-101000000D03*
%TO.P,J2,21*%
%TO.N,Net-(J2-Pad21)*%
X151540000Y-98460000D03*
%TO.P,J2,20*%
%TO.N,GND*%
X154080000Y-101000000D03*
%TO.P,J2,19*%
%TO.N,Net-(J2-Pad19)*%
X154080000Y-98460000D03*
%TO.P,J2,18*%
%TO.N,Net-(J2-Pad18)*%
X156620000Y-101000000D03*
%TO.P,J2,17*%
%TO.N,+3V3*%
X156620000Y-98460000D03*
%TO.P,J2,16*%
%TO.N,Net-(J2-Pad16)*%
X159160000Y-101000000D03*
%TO.P,J2,15*%
%TO.N,Net-(J2-Pad15)*%
X159160000Y-98460000D03*
%TO.P,J2,14*%
%TO.N,GND*%
X161700000Y-101000000D03*
%TO.P,J2,13*%
%TO.N,Net-(J2-Pad13)*%
X161700000Y-98460000D03*
%TO.P,J2,12*%
%TO.N,/SW1*%
X164240000Y-101000000D03*
%TO.P,J2,11*%
%TO.N,reset*%
X164240000Y-98460000D03*
%TO.P,J2,10*%
%TO.N,Net-(J1-Pad10)*%
X166780000Y-101000000D03*
%TO.P,J2,9*%
%TO.N,GND*%
X166780000Y-98460000D03*
%TO.P,J2,8*%
%TO.N,Net-(J1-Pad8)*%
X169320000Y-101000000D03*
%TO.P,J2,7*%
%TO.N,Net-(J2-Pad7)*%
X169320000Y-98460000D03*
%TO.P,J2,6*%
%TO.N,GND*%
X171860000Y-101000000D03*
%TO.P,J2,5*%
%TO.N,SCL*%
X171860000Y-98460000D03*
%TO.P,J2,4*%
%TO.N,+5V*%
X174400000Y-101000000D03*
%TO.P,J2,3*%
%TO.N,SDA*%
X174400000Y-98460000D03*
%TO.P,J2,2*%
%TO.N,+5V*%
X176940000Y-101000000D03*
D16*
%TO.P,J2,1*%
%TO.N,+3V3*%
X176940000Y-98460000D03*
%TD*%
D17*
%TO.N,Net-(J1-Pad10)*%
X165579999Y-99799999D02*
X166780000Y-101000000D01*
X166740000Y-92440000D02*
X166740000Y-96667120D01*
X166740000Y-96667120D02*
X165579999Y-97827121D01*
X165579999Y-97827121D02*
X165579999Y-99799999D01*
%TO.N,Net-(J1-Pad8)*%
X170520001Y-99799999D02*
X170520001Y-96520001D01*
X169320000Y-101000000D02*
X170520001Y-99799999D01*
X169280000Y-95280000D02*
X169280000Y-92440000D01*
X170520001Y-96520001D02*
X169280000Y-95280000D01*
%TO.N,Net-(J2-Pad40)*%
X127000000Y-96000000D02*
X127700000Y-95300000D01*
X127700000Y-95300000D02*
X127700000Y-91900000D01*
X127000000Y-100200000D02*
X127000000Y-96000000D01*
X128680000Y-101000000D02*
X127800000Y-101000000D01*
X127800000Y-101000000D02*
X127000000Y-100200000D01*
%TO.N,Net-(J2-Pad38)*%
X132500000Y-97700000D02*
X130200000Y-95400000D01*
X130200000Y-95400000D02*
X130200000Y-91900000D01*
X131220000Y-101000000D02*
X132500000Y-99720000D01*
X132500000Y-99720000D02*
X132500000Y-97700000D01*
%TO.N,Net-(J2-Pad35)*%
X133745000Y-98445000D02*
X133760000Y-98460000D01*
X133760000Y-98460000D02*
X133760000Y-96760000D01*
X132700000Y-95700000D02*
X132700000Y-91900000D01*
X133760000Y-96760000D02*
X132700000Y-95700000D01*
%TO.N,Net-(J2-Pad33)*%
X126700000Y-78100000D02*
X125600000Y-77000000D01*
X126700000Y-85600000D02*
X126700000Y-78100000D01*
X125600000Y-77000000D02*
X124700000Y-77000000D01*
X129850000Y-88750000D02*
X126700000Y-85600000D01*
X136300000Y-98460000D02*
X136300000Y-96100000D01*
X136300000Y-96100000D02*
X137500000Y-94900000D01*
X137500000Y-94900000D02*
X137500000Y-89500000D01*
X137500000Y-89500000D02*
X136750000Y-88750000D01*
X136750000Y-88750000D02*
X129850000Y-88750000D01*
%TO.N,Net-(J2-Pad32)*%
X130300000Y-77000000D02*
X130000000Y-77000000D01*
X132100000Y-78800000D02*
X130300000Y-77000000D01*
X132100000Y-85850000D02*
X132100000Y-78800000D01*
X133100000Y-86850000D02*
X132100000Y-85850000D01*
X138050000Y-86850000D02*
X133100000Y-86850000D01*
X137639999Y-99799999D02*
X137639999Y-97260001D01*
X137639999Y-97260001D02*
X139700000Y-95200000D01*
X138840000Y-101000000D02*
X137639999Y-99799999D01*
X139700000Y-95200000D02*
X139700000Y-88500000D01*
X139700000Y-88500000D02*
X138050000Y-86850000D01*
%TO.N,Net-(J2-Pad28)*%
X136100000Y-77000000D02*
X135400000Y-77000000D01*
X136900000Y-77800000D02*
X136100000Y-77000000D01*
X136900000Y-81750000D02*
X136900000Y-77800000D01*
X142600000Y-99680000D02*
X142600000Y-96800000D01*
X143920000Y-101000000D02*
X142600000Y-99680000D01*
X141500000Y-86350000D02*
X136900000Y-81750000D01*
X142600000Y-96800000D02*
X141500000Y-95700000D01*
X141500000Y-95700000D02*
X141500000Y-86350000D01*
%TO.N,Net-(J2-Pad27)*%
X143920000Y-98460000D02*
X143920000Y-78420000D01*
X142500000Y-77000000D02*
X140800000Y-77000000D01*
X143920000Y-78420000D02*
X142500000Y-77000000D01*
D18*
%TO.N,Net-(J2-Pad23)*%
X149000000Y-92380000D02*
X149080000Y-92300000D01*
X149000000Y-98460000D02*
X149000000Y-92380000D01*
%TO.N,Net-(J2-Pad21)*%
X151540000Y-94920000D02*
X154160000Y-92300000D01*
X151540000Y-98460000D02*
X151540000Y-94920000D01*
D17*
%TO.N,/SW1*%
X162900001Y-93739999D02*
X162900001Y-100500001D01*
X164200000Y-92440000D02*
X162900001Y-93739999D01*
X163400000Y-101000000D02*
X164240000Y-101000000D01*
X162900001Y-100500001D02*
X163400000Y-101000000D01*
%TO.N,reset*%
X165400001Y-91100001D02*
X165400001Y-94499999D01*
X164200000Y-89900000D02*
X165400001Y-91100001D01*
X164240000Y-95660000D02*
X164240000Y-98460000D01*
X165400001Y-94499999D02*
X164240000Y-95660000D01*
%TO.N,GND*%
X167980001Y-99660001D02*
X167980001Y-102280001D01*
X166780000Y-98460000D02*
X167980001Y-99660001D01*
X167980001Y-102280001D02*
X168600000Y-102900000D01*
X168600000Y-102900000D02*
X171200000Y-102900000D01*
X171860000Y-102240000D02*
X171860000Y-101000000D01*
X171200000Y-102900000D02*
X171860000Y-102240000D01*
X166740000Y-89994998D02*
X166740000Y-89900000D01*
X167845002Y-91100000D02*
X166740000Y-89994998D01*
X171820000Y-92440000D02*
X170480000Y-91100000D01*
X170480000Y-91100000D02*
X167845002Y-91100000D01*
D18*
%TO.N,+3V3*%
X160150000Y-94930000D02*
X160150000Y-87075000D01*
X156620000Y-98460000D02*
X160150000Y-94930000D01*
X175350000Y-87100000D02*
X160175000Y-87100000D01*
X176900000Y-89900000D02*
X176900000Y-88650000D01*
X160175000Y-87100000D02*
X160150000Y-87075000D01*
X176900000Y-88650000D02*
X175350000Y-87100000D01*
X130100000Y-59650000D02*
X130100000Y-65500000D01*
X139150000Y-59550000D02*
X139150000Y-65400000D01*
X139150000Y-68650000D02*
X139000000Y-68800000D01*
X139150000Y-65400000D02*
X139150000Y-68650000D01*
X143400000Y-68800000D02*
X139000000Y-68800000D01*
X146400000Y-71800000D02*
X143400000Y-68800000D01*
X146400000Y-85200000D02*
X146400000Y-71800000D01*
X160175000Y-87100000D02*
X148300000Y-87100000D01*
X148300000Y-87100000D02*
X146400000Y-85200000D01*
X138900000Y-68700000D02*
X139000000Y-68800000D01*
X131500000Y-68700000D02*
X138900000Y-68700000D01*
X130100000Y-65500000D02*
X130100000Y-67300000D01*
X130100000Y-67300000D02*
X131500000Y-68700000D01*
%TO.N,SCL*%
X154300000Y-66812500D02*
X154425000Y-66687500D01*
X154300000Y-69900000D02*
X154300000Y-66812500D01*
%TO.N,SDA*%
X156800000Y-66887500D02*
X157000000Y-66687500D01*
X156800000Y-69900000D02*
X156800000Y-66887500D01*
%TO.N,+5V*%
X174400000Y-101000000D02*
X176940000Y-101000000D01*
X174360000Y-92440000D02*
X176900000Y-92440000D01*
X151900000Y-79545000D02*
X151900000Y-70245000D01*
X178142081Y-101000000D02*
X182625000Y-96517081D01*
X176940000Y-101000000D02*
X178142081Y-101000000D01*
X182610000Y-92440000D02*
X182625000Y-92425000D01*
X176900000Y-92440000D02*
X182610000Y-92440000D01*
X182625000Y-96517081D02*
X182625000Y-92425000D01*
X164600000Y-58700000D02*
X165000000Y-59100000D01*
X151800000Y-58900000D02*
X152100000Y-58600000D01*
X169200000Y-58600000D02*
X169300000Y-58500000D01*
X152100000Y-58600000D02*
X169200000Y-58600000D01*
X151800000Y-63700000D02*
X156987500Y-63700000D01*
X151800000Y-63700000D02*
X151800000Y-58900000D01*
X156987500Y-63700000D02*
X157000000Y-63712500D01*
X151800000Y-69900000D02*
X151800000Y-63700000D01*
X182625000Y-92425000D02*
X182625000Y-60025000D01*
X181100000Y-58500000D02*
X169300000Y-58500000D01*
X182625000Y-60025000D02*
X181100000Y-58500000D01*
%TD*%
D19*
%TO.N,GND*%
G36*
X181179245Y-48080697D02*
G01*
X181934808Y-48283149D01*
X182643739Y-48613729D01*
X183284499Y-49062394D01*
X183837608Y-49615504D01*
X184286271Y-50256261D01*
X184616850Y-50965190D01*
X184819303Y-51720755D01*
X184890006Y-52528895D01*
X184899994Y-98190670D01*
X184827563Y-99002249D01*
X184620328Y-99759774D01*
X184282221Y-100468627D01*
X183823928Y-101106410D01*
X183259945Y-101652946D01*
X182608085Y-102090978D01*
X181888963Y-102406651D01*
X181120232Y-102591206D01*
X180455792Y-102640000D01*
X124629392Y-102640000D01*
X123817751Y-102567563D01*
X123060226Y-102360328D01*
X122351373Y-102022221D01*
X121713590Y-101563928D01*
X121167054Y-100999945D01*
X120729022Y-100348085D01*
X120413349Y-99628963D01*
X120228794Y-98860232D01*
X120179989Y-98195646D01*
X120177390Y-92259267D01*
X123733680Y-92259267D01*
X123807558Y-92540830D01*
X123934947Y-92802570D01*
X124110951Y-93034429D01*
X124328807Y-93227496D01*
X124580142Y-93374352D01*
X124843110Y-93466476D01*
X125073000Y-93345155D01*
X125073000Y-92027000D01*
X123873835Y-92027000D01*
X123733680Y-92259267D01*
X120177390Y-92259267D01*
X120177076Y-91540733D01*
X123733680Y-91540733D01*
X123873835Y-91773000D01*
X125073000Y-91773000D01*
X125073000Y-90454845D01*
X124843110Y-90333524D01*
X124580142Y-90425648D01*
X124328807Y-90572504D01*
X124110951Y-90765571D01*
X123934947Y-90997430D01*
X123807558Y-91259170D01*
X123733680Y-91540733D01*
X120177076Y-91540733D01*
X120170707Y-77000000D01*
X122482815Y-77000000D01*
X122511487Y-77291111D01*
X122596401Y-77571034D01*
X122734294Y-77829014D01*
X122919866Y-78055134D01*
X122983337Y-78107223D01*
X122881614Y-78161595D01*
X122747038Y-78272038D01*
X122636595Y-78406614D01*
X122554528Y-78560150D01*
X122503992Y-78726746D01*
X122486928Y-78900000D01*
X122486928Y-80100000D01*
X122503992Y-80273254D01*
X122554528Y-80439850D01*
X122636595Y-80593386D01*
X122747038Y-80727962D01*
X122881614Y-80838405D01*
X123035150Y-80920472D01*
X123201746Y-80971008D01*
X123375000Y-80988072D01*
X124825000Y-80988072D01*
X124998254Y-80971008D01*
X125164850Y-80920472D01*
X125318386Y-80838405D01*
X125452962Y-80727962D01*
X125563405Y-80593386D01*
X125645472Y-80439850D01*
X125696008Y-80273254D01*
X125713072Y-80100000D01*
X125713072Y-78900000D01*
X125696008Y-78726746D01*
X125645472Y-78560150D01*
X125563405Y-78406614D01*
X125452962Y-78272038D01*
X125318386Y-78161595D01*
X125216663Y-78107223D01*
X125280134Y-78055134D01*
X125399513Y-77909670D01*
X125915001Y-78425159D01*
X125915000Y-85561447D01*
X125911203Y-85600000D01*
X125915000Y-85638553D01*
X125915000Y-85638560D01*
X125926359Y-85753886D01*
X125971246Y-85901859D01*
X126044138Y-86038232D01*
X126142236Y-86157764D01*
X126172190Y-86182347D01*
X129267653Y-89277810D01*
X129292236Y-89307764D01*
X129411767Y-89405862D01*
X129506408Y-89456448D01*
X129548140Y-89478754D01*
X129696113Y-89523642D01*
X129771026Y-89531020D01*
X129811439Y-89535000D01*
X129811444Y-89535000D01*
X129850000Y-89538797D01*
X129888556Y-89535000D01*
X136424843Y-89535000D01*
X136715001Y-89825159D01*
X136715000Y-94574842D01*
X135772185Y-95517658D01*
X135742237Y-95542236D01*
X135717659Y-95572184D01*
X135717655Y-95572188D01*
X135693305Y-95601859D01*
X135644139Y-95661767D01*
X135613958Y-95718232D01*
X135571246Y-95798141D01*
X135526359Y-95946114D01*
X135511203Y-96100000D01*
X135515001Y-96138563D01*
X135515001Y-97198526D01*
X135353368Y-97306525D01*
X135146525Y-97513368D01*
X135030000Y-97687760D01*
X134913475Y-97513368D01*
X134706632Y-97306525D01*
X134545000Y-97198526D01*
X134545000Y-96798552D01*
X134548797Y-96759999D01*
X134545000Y-96721446D01*
X134545000Y-96721439D01*
X134533641Y-96606113D01*
X134488754Y-96458140D01*
X134415862Y-96321767D01*
X134317764Y-96202236D01*
X134287815Y-96177657D01*
X133485000Y-95374843D01*
X133485000Y-93289231D01*
X133529013Y-93265706D01*
X133755134Y-93080134D01*
X133807223Y-93016663D01*
X133861595Y-93118386D01*
X133972038Y-93252962D01*
X134106614Y-93363405D01*
X134260150Y-93445472D01*
X134426746Y-93496008D01*
X134600000Y-93513072D01*
X135800000Y-93513072D01*
X135973254Y-93496008D01*
X136139850Y-93445472D01*
X136293386Y-93363405D01*
X136427962Y-93252962D01*
X136538405Y-93118386D01*
X136620472Y-92964850D01*
X136671008Y-92798254D01*
X136688072Y-92625000D01*
X136688072Y-91175000D01*
X136671008Y-91001746D01*
X136620472Y-90835150D01*
X136538405Y-90681614D01*
X136427962Y-90547038D01*
X136293386Y-90436595D01*
X136139850Y-90354528D01*
X135973254Y-90303992D01*
X135800000Y-90286928D01*
X134600000Y-90286928D01*
X134426746Y-90303992D01*
X134260150Y-90354528D01*
X134106614Y-90436595D01*
X133972038Y-90547038D01*
X133861595Y-90681614D01*
X133807223Y-90783337D01*
X133755134Y-90719866D01*
X133529014Y-90534294D01*
X133271034Y-90396401D01*
X132991111Y-90311487D01*
X132700000Y-90282815D01*
X132408890Y-90311487D01*
X132128967Y-90396401D01*
X131870987Y-90534294D01*
X131644866Y-90719866D01*
X131459294Y-90945986D01*
X131450000Y-90963374D01*
X131440706Y-90945986D01*
X131255134Y-90719866D01*
X131029014Y-90534294D01*
X130771034Y-90396401D01*
X130491111Y-90311487D01*
X130200000Y-90282815D01*
X129908890Y-90311487D01*
X129628967Y-90396401D01*
X129370987Y-90534294D01*
X129144866Y-90719866D01*
X128959294Y-90945986D01*
X128950000Y-90963374D01*
X128940706Y-90945986D01*
X128755134Y-90719866D01*
X128529014Y-90534294D01*
X128271034Y-90396401D01*
X127991111Y-90311487D01*
X127700000Y-90282815D01*
X127408890Y-90311487D01*
X127128967Y-90396401D01*
X126870987Y-90534294D01*
X126644866Y-90719866D01*
X126459294Y-90945986D01*
X126445538Y-90971722D01*
X126289049Y-90765571D01*
X126071193Y-90572504D01*
X125819858Y-90425648D01*
X125556890Y-90333524D01*
X125327000Y-90454845D01*
X125327000Y-91773000D01*
X125347000Y-91773000D01*
X125347000Y-92027000D01*
X125327000Y-92027000D01*
X125327000Y-93345155D01*
X125556890Y-93466476D01*
X125819858Y-93374352D01*
X126071193Y-93227496D01*
X126289049Y-93034429D01*
X126445538Y-92828278D01*
X126459294Y-92854013D01*
X126644866Y-93080134D01*
X126870986Y-93265706D01*
X126915001Y-93289232D01*
X126915000Y-94974842D01*
X126472185Y-95417658D01*
X126442237Y-95442236D01*
X126417659Y-95472184D01*
X126417655Y-95472188D01*
X126393305Y-95501859D01*
X126344139Y-95561767D01*
X126322710Y-95601859D01*
X126271246Y-95698141D01*
X126226359Y-95846114D01*
X126211203Y-96000000D01*
X126215001Y-96038563D01*
X126215000Y-100161447D01*
X126211203Y-100200000D01*
X126215000Y-100238553D01*
X126215000Y-100238560D01*
X126226359Y-100353886D01*
X126271246Y-100501859D01*
X126344138Y-100638232D01*
X126442236Y-100757764D01*
X126472190Y-100782347D01*
X127217653Y-101527810D01*
X127242236Y-101557764D01*
X127335326Y-101634162D01*
X127364010Y-101703411D01*
X127526525Y-101946632D01*
X127733368Y-102153475D01*
X127976589Y-102315990D01*
X128246842Y-102427932D01*
X128533740Y-102485000D01*
X128826260Y-102485000D01*
X129113158Y-102427932D01*
X129383411Y-102315990D01*
X129626632Y-102153475D01*
X129833475Y-101946632D01*
X129950000Y-101772240D01*
X130066525Y-101946632D01*
X130273368Y-102153475D01*
X130516589Y-102315990D01*
X130786842Y-102427932D01*
X131073740Y-102485000D01*
X131366260Y-102485000D01*
X131653158Y-102427932D01*
X131923411Y-102315990D01*
X132166632Y-102153475D01*
X132373475Y-101946632D01*
X132490000Y-101772240D01*
X132606525Y-101946632D01*
X132813368Y-102153475D01*
X133056589Y-102315990D01*
X133326842Y-102427932D01*
X133613740Y-102485000D01*
X133906260Y-102485000D01*
X134193158Y-102427932D01*
X134463411Y-102315990D01*
X134706632Y-102153475D01*
X134913475Y-101946632D01*
X135035195Y-101764466D01*
X135104822Y-101881355D01*
X135299731Y-102097588D01*
X135533080Y-102271641D01*
X135795901Y-102396825D01*
X135943110Y-102441476D01*
X136173000Y-102320155D01*
X136173000Y-101127000D01*
X136153000Y-101127000D01*
X136153000Y-100873000D01*
X136173000Y-100873000D01*
X136173000Y-100853000D01*
X136427000Y-100853000D01*
X136427000Y-100873000D01*
X136447000Y-100873000D01*
X136447000Y-101127000D01*
X136427000Y-101127000D01*
X136427000Y-102320155D01*
X136656890Y-102441476D01*
X136804099Y-102396825D01*
X137066920Y-102271641D01*
X137300269Y-102097588D01*
X137495178Y-101881355D01*
X137564805Y-101764466D01*
X137686525Y-101946632D01*
X137893368Y-102153475D01*
X138136589Y-102315990D01*
X138406842Y-102427932D01*
X138693740Y-102485000D01*
X138986260Y-102485000D01*
X139273158Y-102427932D01*
X139543411Y-102315990D01*
X139786632Y-102153475D01*
X139993475Y-101946632D01*
X140115195Y-101764466D01*
X140184822Y-101881355D01*
X140379731Y-102097588D01*
X140613080Y-102271641D01*
X140875901Y-102396825D01*
X141023110Y-102441476D01*
X141253000Y-102320155D01*
X141253000Y-101127000D01*
X141233000Y-101127000D01*
X141233000Y-100873000D01*
X141253000Y-100873000D01*
X141253000Y-100853000D01*
X141507000Y-100853000D01*
X141507000Y-100873000D01*
X141527000Y-100873000D01*
X141527000Y-101127000D01*
X141507000Y-101127000D01*
X141507000Y-102320155D01*
X141736890Y-102441476D01*
X141884099Y-102396825D01*
X142146920Y-102271641D01*
X142380269Y-102097588D01*
X142575178Y-101881355D01*
X142644805Y-101764466D01*
X142766525Y-101946632D01*
X142973368Y-102153475D01*
X143216589Y-102315990D01*
X143486842Y-102427932D01*
X143773740Y-102485000D01*
X144066260Y-102485000D01*
X144353158Y-102427932D01*
X144623411Y-102315990D01*
X144866632Y-102153475D01*
X145073475Y-101946632D01*
X145190000Y-101772240D01*
X145306525Y-101946632D01*
X145513368Y-102153475D01*
X145756589Y-102315990D01*
X146026842Y-102427932D01*
X146313740Y-102485000D01*
X146606260Y-102485000D01*
X146893158Y-102427932D01*
X147163411Y-102315990D01*
X147406632Y-102153475D01*
X147613475Y-101946632D01*
X147730000Y-101772240D01*
X147846525Y-101946632D01*
X148053368Y-102153475D01*
X148296589Y-102315990D01*
X148566842Y-102427932D01*
X148853740Y-102485000D01*
X149146260Y-102485000D01*
X149433158Y-102427932D01*
X149703411Y-102315990D01*
X149946632Y-102153475D01*
X150153475Y-101946632D01*
X150270000Y-101772240D01*
X150386525Y-101946632D01*
X150593368Y-102153475D01*
X150836589Y-102315990D01*
X151106842Y-102427932D01*
X151393740Y-102485000D01*
X151686260Y-102485000D01*
X151973158Y-102427932D01*
X152243411Y-102315990D01*
X152486632Y-102153475D01*
X152693475Y-101946632D01*
X152815195Y-101764466D01*
X152884822Y-101881355D01*
X153079731Y-102097588D01*
X153313080Y-102271641D01*
X153575901Y-102396825D01*
X153723110Y-102441476D01*
X153953000Y-102320155D01*
X153953000Y-101127000D01*
X153933000Y-101127000D01*
X153933000Y-100873000D01*
X153953000Y-100873000D01*
X153953000Y-100853000D01*
X154207000Y-100853000D01*
X154207000Y-100873000D01*
X154227000Y-100873000D01*
X154227000Y-101127000D01*
X154207000Y-101127000D01*
X154207000Y-102320155D01*
X154436890Y-102441476D01*
X154584099Y-102396825D01*
X154846920Y-102271641D01*
X155080269Y-102097588D01*
X155275178Y-101881355D01*
X155344805Y-101764466D01*
X155466525Y-101946632D01*
X155673368Y-102153475D01*
X155916589Y-102315990D01*
X156186842Y-102427932D01*
X156473740Y-102485000D01*
X156766260Y-102485000D01*
X157053158Y-102427932D01*
X157323411Y-102315990D01*
X157566632Y-102153475D01*
X157773475Y-101946632D01*
X157890000Y-101772240D01*
X158006525Y-101946632D01*
X158213368Y-102153475D01*
X158456589Y-102315990D01*
X158726842Y-102427932D01*
X159013740Y-102485000D01*
X159306260Y-102485000D01*
X159593158Y-102427932D01*
X159863411Y-102315990D01*
X160106632Y-102153475D01*
X160313475Y-101946632D01*
X160435195Y-101764466D01*
X160504822Y-101881355D01*
X160699731Y-102097588D01*
X160933080Y-102271641D01*
X161195901Y-102396825D01*
X161343110Y-102441476D01*
X161573000Y-102320155D01*
X161573000Y-101127000D01*
X161553000Y-101127000D01*
X161553000Y-100873000D01*
X161573000Y-100873000D01*
X161573000Y-100853000D01*
X161827000Y-100853000D01*
X161827000Y-100873000D01*
X161847000Y-100873000D01*
X161847000Y-101127000D01*
X161827000Y-101127000D01*
X161827000Y-102320155D01*
X162056890Y-102441476D01*
X162204099Y-102396825D01*
X162466920Y-102271641D01*
X162700269Y-102097588D01*
X162895178Y-101881355D01*
X162964805Y-101764466D01*
X163086525Y-101946632D01*
X163293368Y-102153475D01*
X163536589Y-102315990D01*
X163806842Y-102427932D01*
X164093740Y-102485000D01*
X164386260Y-102485000D01*
X164673158Y-102427932D01*
X164943411Y-102315990D01*
X165186632Y-102153475D01*
X165393475Y-101946632D01*
X165510000Y-101772240D01*
X165626525Y-101946632D01*
X165833368Y-102153475D01*
X166076589Y-102315990D01*
X166346842Y-102427932D01*
X166633740Y-102485000D01*
X166926260Y-102485000D01*
X167213158Y-102427932D01*
X167483411Y-102315990D01*
X167726632Y-102153475D01*
X167933475Y-101946632D01*
X168050000Y-101772240D01*
X168166525Y-101946632D01*
X168373368Y-102153475D01*
X168616589Y-102315990D01*
X168886842Y-102427932D01*
X169173740Y-102485000D01*
X169466260Y-102485000D01*
X169753158Y-102427932D01*
X170023411Y-102315990D01*
X170266632Y-102153475D01*
X170473475Y-101946632D01*
X170595195Y-101764466D01*
X170664822Y-101881355D01*
X170859731Y-102097588D01*
X171093080Y-102271641D01*
X171355901Y-102396825D01*
X171503110Y-102441476D01*
X171733000Y-102320155D01*
X171733000Y-101127000D01*
X171713000Y-101127000D01*
X171713000Y-100873000D01*
X171733000Y-100873000D01*
X171733000Y-100853000D01*
X171987000Y-100853000D01*
X171987000Y-100873000D01*
X172007000Y-100873000D01*
X172007000Y-101127000D01*
X171987000Y-101127000D01*
X171987000Y-102320155D01*
X172216890Y-102441476D01*
X172364099Y-102396825D01*
X172626920Y-102271641D01*
X172860269Y-102097588D01*
X173055178Y-101881355D01*
X173124805Y-101764466D01*
X173246525Y-101946632D01*
X173453368Y-102153475D01*
X173696589Y-102315990D01*
X173966842Y-102427932D01*
X174253740Y-102485000D01*
X174546260Y-102485000D01*
X174833158Y-102427932D01*
X175103411Y-102315990D01*
X175346632Y-102153475D01*
X175365107Y-102135000D01*
X175974893Y-102135000D01*
X175993368Y-102153475D01*
X176236589Y-102315990D01*
X176506842Y-102427932D01*
X176793740Y-102485000D01*
X177086260Y-102485000D01*
X177373158Y-102427932D01*
X177643411Y-102315990D01*
X177886632Y-102153475D01*
X177905107Y-102135000D01*
X178086330Y-102135000D01*
X178142081Y-102140491D01*
X178197832Y-102135000D01*
X178197833Y-102135000D01*
X178364580Y-102118577D01*
X178578528Y-102053676D01*
X178775704Y-101948284D01*
X178948530Y-101806449D01*
X178984077Y-101763135D01*
X183388141Y-97359072D01*
X183431449Y-97323530D01*
X183573284Y-97150704D01*
X183678676Y-96953528D01*
X183743577Y-96739580D01*
X183760000Y-96572833D01*
X183760000Y-96572832D01*
X183765491Y-96517081D01*
X183760000Y-96461329D01*
X183760000Y-92480745D01*
X183765490Y-92425001D01*
X183760000Y-92369257D01*
X183760000Y-60080752D01*
X183765491Y-60025000D01*
X183743577Y-59802501D01*
X183678676Y-59588553D01*
X183573284Y-59391377D01*
X183466989Y-59261856D01*
X183466987Y-59261854D01*
X183431449Y-59218551D01*
X183388146Y-59183013D01*
X181941995Y-57736864D01*
X181906449Y-57693551D01*
X181733623Y-57551716D01*
X181536447Y-57446324D01*
X181322499Y-57381423D01*
X181155752Y-57365000D01*
X181155751Y-57365000D01*
X181100000Y-57359509D01*
X181044249Y-57365000D01*
X170754253Y-57365000D01*
X170677962Y-57272038D01*
X170543386Y-57161595D01*
X170441407Y-57107086D01*
X170441795Y-57106802D01*
X170638664Y-56892046D01*
X170789854Y-56643009D01*
X170889554Y-56369261D01*
X170891476Y-56356890D01*
X170770155Y-56127000D01*
X169427000Y-56127000D01*
X169427000Y-56147000D01*
X169173000Y-56147000D01*
X169173000Y-56127000D01*
X167829845Y-56127000D01*
X167708524Y-56356890D01*
X167710446Y-56369261D01*
X167810146Y-56643009D01*
X167961336Y-56892046D01*
X168158205Y-57106802D01*
X168158593Y-57107086D01*
X168056614Y-57161595D01*
X167922038Y-57272038D01*
X167811595Y-57406614D01*
X167780387Y-57465000D01*
X165719613Y-57465000D01*
X165688405Y-57406614D01*
X165577962Y-57272038D01*
X165443386Y-57161595D01*
X165341407Y-57107086D01*
X165341795Y-57106802D01*
X165538664Y-56892046D01*
X165689854Y-56643009D01*
X165789554Y-56369261D01*
X165791476Y-56356890D01*
X165670155Y-56127000D01*
X164327000Y-56127000D01*
X164327000Y-56147000D01*
X164073000Y-56147000D01*
X164073000Y-56127000D01*
X162729845Y-56127000D01*
X162608524Y-56356890D01*
X162610446Y-56369261D01*
X162710146Y-56643009D01*
X162861336Y-56892046D01*
X163058205Y-57106802D01*
X163058593Y-57107086D01*
X162956614Y-57161595D01*
X162822038Y-57272038D01*
X162711595Y-57406614D01*
X162680387Y-57465000D01*
X159654253Y-57465000D01*
X159577962Y-57372038D01*
X159443386Y-57261595D01*
X159341407Y-57207086D01*
X159341795Y-57206802D01*
X159538664Y-56992046D01*
X159689854Y-56743009D01*
X159789554Y-56469261D01*
X159791476Y-56456890D01*
X159670155Y-56227000D01*
X158327000Y-56227000D01*
X158327000Y-56247000D01*
X158073000Y-56247000D01*
X158073000Y-56227000D01*
X156729845Y-56227000D01*
X156608524Y-56456890D01*
X156610446Y-56469261D01*
X156710146Y-56743009D01*
X156861336Y-56992046D01*
X157058205Y-57206802D01*
X157058593Y-57207086D01*
X156956614Y-57261595D01*
X156822038Y-57372038D01*
X156745747Y-57465000D01*
X153554253Y-57465000D01*
X153477962Y-57372038D01*
X153343386Y-57261595D01*
X153241407Y-57207086D01*
X153241795Y-57206802D01*
X153438664Y-56992046D01*
X153589854Y-56743009D01*
X153689554Y-56469261D01*
X153691476Y-56456890D01*
X153570155Y-56227000D01*
X152227000Y-56227000D01*
X152227000Y-56247000D01*
X151973000Y-56247000D01*
X151973000Y-56227000D01*
X150629845Y-56227000D01*
X150508524Y-56456890D01*
X150510446Y-56469261D01*
X150610146Y-56743009D01*
X150761336Y-56992046D01*
X150958205Y-57206802D01*
X150958593Y-57207086D01*
X150856614Y-57261595D01*
X150722038Y-57372038D01*
X150611595Y-57506614D01*
X150529528Y-57660150D01*
X150478992Y-57826746D01*
X150461928Y-58000000D01*
X150461928Y-59200000D01*
X150478992Y-59373254D01*
X150529528Y-59539850D01*
X150611595Y-59693386D01*
X150665001Y-59758462D01*
X150665000Y-63644248D01*
X150659509Y-63700000D01*
X150665001Y-63755762D01*
X150665000Y-68470746D01*
X150572038Y-68547038D01*
X150461595Y-68681614D01*
X150379528Y-68835150D01*
X150328992Y-69001746D01*
X150311928Y-69175000D01*
X150311928Y-70625000D01*
X150328992Y-70798254D01*
X150379528Y-70964850D01*
X150461595Y-71118386D01*
X150572038Y-71252962D01*
X150706614Y-71363405D01*
X150765001Y-71394614D01*
X150765001Y-73505387D01*
X150706614Y-73536595D01*
X150572038Y-73647038D01*
X150461595Y-73781614D01*
X150379528Y-73935150D01*
X150328992Y-74101746D01*
X150311928Y-74275000D01*
X150311928Y-75725000D01*
X150328992Y-75898254D01*
X150379528Y-76064850D01*
X150461595Y-76218386D01*
X150572038Y-76352962D01*
X150706614Y-76463405D01*
X150765000Y-76494613D01*
X150765000Y-78605387D01*
X150706614Y-78636595D01*
X150572038Y-78747038D01*
X150461595Y-78881614D01*
X150379528Y-79035150D01*
X150328992Y-79201746D01*
X150311928Y-79375000D01*
X150311928Y-80825000D01*
X150328992Y-80998254D01*
X150379528Y-81164850D01*
X150461595Y-81318386D01*
X150572038Y-81452962D01*
X150706614Y-81563405D01*
X150860150Y-81645472D01*
X151026746Y-81696008D01*
X151200000Y-81713072D01*
X152400000Y-81713072D01*
X152573254Y-81696008D01*
X152739850Y-81645472D01*
X152893386Y-81563405D01*
X153027962Y-81452962D01*
X153138405Y-81318386D01*
X153192777Y-81216663D01*
X153244866Y-81280134D01*
X153470987Y-81465706D01*
X153728967Y-81603599D01*
X154008890Y-81688513D01*
X154300000Y-81717185D01*
X154591111Y-81688513D01*
X154871034Y-81603599D01*
X155129014Y-81465706D01*
X155355134Y-81280134D01*
X155540706Y-81054014D01*
X155550000Y-81036626D01*
X155559294Y-81054014D01*
X155744866Y-81280134D01*
X155970987Y-81465706D01*
X156228967Y-81603599D01*
X156508890Y-81688513D01*
X156800000Y-81717185D01*
X157091111Y-81688513D01*
X157371034Y-81603599D01*
X157629014Y-81465706D01*
X157855134Y-81280134D01*
X158040706Y-81054014D01*
X158054462Y-81028278D01*
X158210951Y-81234429D01*
X158428807Y-81427496D01*
X158680142Y-81574352D01*
X158943110Y-81666476D01*
X159173000Y-81545155D01*
X159173000Y-80227000D01*
X159427000Y-80227000D01*
X159427000Y-81545155D01*
X159656890Y-81666476D01*
X159919858Y-81574352D01*
X160171193Y-81427496D01*
X160389049Y-81234429D01*
X160565053Y-81002570D01*
X160692442Y-80740830D01*
X160766320Y-80459267D01*
X160626165Y-80227000D01*
X159427000Y-80227000D01*
X159173000Y-80227000D01*
X159153000Y-80227000D01*
X159153000Y-79973000D01*
X159173000Y-79973000D01*
X159173000Y-78654845D01*
X159427000Y-78654845D01*
X159427000Y-79973000D01*
X160626165Y-79973000D01*
X160766320Y-79740733D01*
X160692442Y-79459170D01*
X160565053Y-79197430D01*
X160389049Y-78965571D01*
X160171193Y-78772504D01*
X159919858Y-78625648D01*
X159656890Y-78533524D01*
X159427000Y-78654845D01*
X159173000Y-78654845D01*
X158943110Y-78533524D01*
X158680142Y-78625648D01*
X158428807Y-78772504D01*
X158210951Y-78965571D01*
X158054462Y-79171722D01*
X158040706Y-79145986D01*
X157855134Y-78919866D01*
X157629013Y-78734294D01*
X157371033Y-78596401D01*
X157091110Y-78511487D01*
X156800000Y-78482815D01*
X156508889Y-78511487D01*
X156228966Y-78596401D01*
X155970986Y-78734294D01*
X155744866Y-78919866D01*
X155559294Y-79145987D01*
X155550000Y-79163374D01*
X155540706Y-79145986D01*
X155355134Y-78919866D01*
X155129013Y-78734294D01*
X154871033Y-78596401D01*
X154591110Y-78511487D01*
X154300000Y-78482815D01*
X154008889Y-78511487D01*
X153728966Y-78596401D01*
X153470986Y-78734294D01*
X153244866Y-78919866D01*
X153192777Y-78983337D01*
X153138405Y-78881614D01*
X153035000Y-78755614D01*
X153035000Y-76344386D01*
X153138405Y-76218386D01*
X153192777Y-76116663D01*
X153244866Y-76180134D01*
X153470987Y-76365706D01*
X153728967Y-76503599D01*
X154008890Y-76588513D01*
X154300000Y-76617185D01*
X154591111Y-76588513D01*
X154871034Y-76503599D01*
X155129014Y-76365706D01*
X155355134Y-76180134D01*
X155540706Y-75954014D01*
X155550000Y-75936626D01*
X155559294Y-75954014D01*
X155744866Y-76180134D01*
X155970987Y-76365706D01*
X156228967Y-76503599D01*
X156508890Y-76588513D01*
X156800000Y-76617185D01*
X157091111Y-76588513D01*
X157371034Y-76503599D01*
X157629014Y-76365706D01*
X157855134Y-76180134D01*
X158040706Y-75954014D01*
X158054462Y-75928278D01*
X158210951Y-76134429D01*
X158428807Y-76327496D01*
X158680142Y-76474352D01*
X158943110Y-76566476D01*
X159173000Y-76445155D01*
X159173000Y-75127000D01*
X159427000Y-75127000D01*
X159427000Y-76445155D01*
X159656890Y-76566476D01*
X159919858Y-76474352D01*
X160171193Y-76327496D01*
X160389049Y-76134429D01*
X160565053Y-75902570D01*
X160692442Y-75640830D01*
X160766320Y-75359267D01*
X160626165Y-75127000D01*
X159427000Y-75127000D01*
X159173000Y-75127000D01*
X159153000Y-75127000D01*
X159153000Y-74873000D01*
X159173000Y-74873000D01*
X159173000Y-73554845D01*
X159427000Y-73554845D01*
X159427000Y-74873000D01*
X160626165Y-74873000D01*
X160766320Y-74640733D01*
X160692442Y-74359170D01*
X160565053Y-74097430D01*
X160389049Y-73865571D01*
X160171193Y-73672504D01*
X159919858Y-73525648D01*
X159656890Y-73433524D01*
X159427000Y-73554845D01*
X159173000Y-73554845D01*
X158943110Y-73433524D01*
X158680142Y-73525648D01*
X158428807Y-73672504D01*
X158210951Y-73865571D01*
X158054462Y-74071722D01*
X158040706Y-74045986D01*
X157855134Y-73819866D01*
X157629013Y-73634294D01*
X157371033Y-73496401D01*
X157091110Y-73411487D01*
X156800000Y-73382815D01*
X156508889Y-73411487D01*
X156228966Y-73496401D01*
X155970986Y-73634294D01*
X155744866Y-73819866D01*
X155559294Y-74045987D01*
X155550000Y-74063374D01*
X155540706Y-74045986D01*
X155355134Y-73819866D01*
X155129013Y-73634294D01*
X154871033Y-73496401D01*
X154591110Y-73411487D01*
X154300000Y-73382815D01*
X154008889Y-73411487D01*
X153728966Y-73496401D01*
X153470986Y-73634294D01*
X153244866Y-73819866D01*
X153192777Y-73883337D01*
X153138405Y-73781614D01*
X153035000Y-73655614D01*
X153035000Y-71244386D01*
X153138405Y-71118386D01*
X153192777Y-71016663D01*
X153244866Y-71080134D01*
X153470987Y-71265706D01*
X153728967Y-71403599D01*
X154008890Y-71488513D01*
X154300000Y-71517185D01*
X154591111Y-71488513D01*
X154871034Y-71403599D01*
X155129014Y-71265706D01*
X155355134Y-71080134D01*
X155540706Y-70854014D01*
X155550000Y-70836626D01*
X155559294Y-70854014D01*
X155744866Y-71080134D01*
X155970987Y-71265706D01*
X156228967Y-71403599D01*
X156508890Y-71488513D01*
X156800000Y-71517185D01*
X157091111Y-71488513D01*
X157371034Y-71403599D01*
X157629014Y-71265706D01*
X157855134Y-71080134D01*
X158040706Y-70854014D01*
X158054462Y-70828278D01*
X158210951Y-71034429D01*
X158428807Y-71227496D01*
X158680142Y-71374352D01*
X158943110Y-71466476D01*
X159173000Y-71345155D01*
X159173000Y-70027000D01*
X159427000Y-70027000D01*
X159427000Y-71345155D01*
X159656890Y-71466476D01*
X159919858Y-71374352D01*
X160171193Y-71227496D01*
X160389049Y-71034429D01*
X160565053Y-70802570D01*
X160692442Y-70540830D01*
X160766320Y-70259267D01*
X160626165Y-70027000D01*
X159427000Y-70027000D01*
X159173000Y-70027000D01*
X159153000Y-70027000D01*
X159153000Y-69773000D01*
X159173000Y-69773000D01*
X159173000Y-68454845D01*
X159427000Y-68454845D01*
X159427000Y-69773000D01*
X160626165Y-69773000D01*
X160766320Y-69540733D01*
X160692442Y-69259170D01*
X160565053Y-68997430D01*
X160389049Y-68765571D01*
X160171193Y-68572504D01*
X159919858Y-68425648D01*
X159656890Y-68333524D01*
X159427000Y-68454845D01*
X159173000Y-68454845D01*
X158943110Y-68333524D01*
X158680142Y-68425648D01*
X158428807Y-68572504D01*
X158210951Y-68765571D01*
X158054462Y-68971722D01*
X158040706Y-68945986D01*
X157935000Y-68817183D01*
X157935000Y-67979527D01*
X157964850Y-67970472D01*
X158118386Y-67888405D01*
X158252962Y-67777962D01*
X158363405Y-67643386D01*
X158445472Y-67489850D01*
X158496008Y-67323254D01*
X158513072Y-67150000D01*
X158513072Y-66225000D01*
X158496008Y-66051746D01*
X158445472Y-65885150D01*
X158363405Y-65731614D01*
X158252962Y-65597038D01*
X158118386Y-65486595D01*
X157964850Y-65404528D01*
X157798254Y-65353992D01*
X157625000Y-65336928D01*
X156375000Y-65336928D01*
X156201746Y-65353992D01*
X156035150Y-65404528D01*
X155881614Y-65486595D01*
X155747038Y-65597038D01*
X155712500Y-65639123D01*
X155677962Y-65597038D01*
X155543386Y-65486595D01*
X155389850Y-65404528D01*
X155223254Y-65353992D01*
X155050000Y-65336928D01*
X153800000Y-65336928D01*
X153626746Y-65353992D01*
X153460150Y-65404528D01*
X153306614Y-65486595D01*
X153172038Y-65597038D01*
X153061595Y-65731614D01*
X152979528Y-65885150D01*
X152935000Y-66031940D01*
X152935000Y-64835000D01*
X153211077Y-64835000D01*
X153306614Y-64913405D01*
X153460150Y-64995472D01*
X153626746Y-65046008D01*
X153800000Y-65063072D01*
X155050000Y-65063072D01*
X155223254Y-65046008D01*
X155389850Y-64995472D01*
X155543386Y-64913405D01*
X155638923Y-64835000D01*
X155786077Y-64835000D01*
X155881614Y-64913405D01*
X156035150Y-64995472D01*
X156201746Y-65046008D01*
X156375000Y-65063072D01*
X157625000Y-65063072D01*
X157798254Y-65046008D01*
X157964850Y-64995472D01*
X158118386Y-64913405D01*
X158252962Y-64802962D01*
X158363405Y-64668386D01*
X158445472Y-64514850D01*
X158496008Y-64348254D01*
X158513072Y-64175000D01*
X158513072Y-63250000D01*
X158496008Y-63076746D01*
X158445472Y-62910150D01*
X158363405Y-62756614D01*
X158252962Y-62622038D01*
X158118386Y-62511595D01*
X157964850Y-62429528D01*
X157798254Y-62378992D01*
X157625000Y-62361928D01*
X156375000Y-62361928D01*
X156201746Y-62378992D01*
X156035150Y-62429528D01*
X155881614Y-62511595D01*
X155816539Y-62565000D01*
X155608461Y-62565000D01*
X155543386Y-62511595D01*
X155389850Y-62429528D01*
X155223254Y-62378992D01*
X155050000Y-62361928D01*
X153800000Y-62361928D01*
X153626746Y-62378992D01*
X153460150Y-62429528D01*
X153306614Y-62511595D01*
X153241539Y-62565000D01*
X152935000Y-62565000D01*
X152935000Y-60079700D01*
X153023254Y-60071008D01*
X153189850Y-60020472D01*
X153343386Y-59938405D01*
X153477962Y-59827962D01*
X153554253Y-59735000D01*
X156745747Y-59735000D01*
X156822038Y-59827962D01*
X156956614Y-59938405D01*
X157110150Y-60020472D01*
X157276746Y-60071008D01*
X157450000Y-60088072D01*
X158950000Y-60088072D01*
X159123254Y-60071008D01*
X159289850Y-60020472D01*
X159443386Y-59938405D01*
X159577962Y-59827962D01*
X159654253Y-59735000D01*
X162830614Y-59735000D01*
X162956614Y-59838405D01*
X163110150Y-59920472D01*
X163276746Y-59971008D01*
X163450000Y-59988072D01*
X164293010Y-59988072D01*
X164366377Y-60048283D01*
X164563553Y-60153675D01*
X164777500Y-60218576D01*
X164999999Y-60240490D01*
X165222498Y-60218576D01*
X165436446Y-60153675D01*
X165633622Y-60048283D01*
X165806448Y-59906448D01*
X165947152Y-59735000D01*
X167930614Y-59735000D01*
X168056614Y-59838405D01*
X168210150Y-59920472D01*
X168376746Y-59971008D01*
X168550000Y-59988072D01*
X170050000Y-59988072D01*
X170223254Y-59971008D01*
X170389850Y-59920472D01*
X170543386Y-59838405D01*
X170677962Y-59727962D01*
X170754253Y-59635000D01*
X180629869Y-59635000D01*
X181490001Y-60495134D01*
X181490000Y-91305000D01*
X178058728Y-91305000D01*
X178104494Y-91280537D01*
X178201185Y-91201185D01*
X178280537Y-91104494D01*
X178339502Y-90994180D01*
X178375812Y-90874482D01*
X178388072Y-90750000D01*
X178388072Y-89050000D01*
X178375812Y-88925518D01*
X178339502Y-88805820D01*
X178280537Y-88695506D01*
X178201185Y-88598815D01*
X178104494Y-88519463D01*
X178023363Y-88476097D01*
X178018577Y-88427501D01*
X177953676Y-88213553D01*
X177921671Y-88153676D01*
X177848284Y-88016377D01*
X177706449Y-87843551D01*
X177663140Y-87808009D01*
X176191996Y-86336865D01*
X176156449Y-86293551D01*
X175983623Y-86151716D01*
X175786447Y-86046324D01*
X175572499Y-85981423D01*
X175405752Y-85965000D01*
X175405751Y-85965000D01*
X175350000Y-85959509D01*
X175294249Y-85965000D01*
X160400773Y-85965000D01*
X160372499Y-85956423D01*
X160150000Y-85934509D01*
X159927502Y-85956423D01*
X159899228Y-85965000D01*
X148770132Y-85965000D01*
X147535000Y-84729869D01*
X147535000Y-71855752D01*
X147540491Y-71800000D01*
X147518577Y-71577501D01*
X147453676Y-71363553D01*
X147348284Y-71166377D01*
X147241989Y-71036856D01*
X147241987Y-71036854D01*
X147206449Y-70993551D01*
X147163146Y-70958013D01*
X144241996Y-68036865D01*
X144206449Y-67993551D01*
X144033623Y-67851716D01*
X143836447Y-67746324D01*
X143622499Y-67681423D01*
X143455752Y-67665000D01*
X143455751Y-67665000D01*
X143400000Y-67659509D01*
X143344249Y-67665000D01*
X140285000Y-67665000D01*
X140285000Y-66854253D01*
X140377962Y-66777962D01*
X140488405Y-66643386D01*
X140570472Y-66489850D01*
X140621008Y-66323254D01*
X140638072Y-66150000D01*
X140638072Y-64650000D01*
X140621008Y-64476746D01*
X140570472Y-64310150D01*
X140488405Y-64156614D01*
X140377962Y-64022038D01*
X140285000Y-63945747D01*
X140285000Y-61004307D01*
X140377991Y-60927991D01*
X140488422Y-60793431D01*
X140570479Y-60639912D01*
X140621010Y-60473335D01*
X140638072Y-60300100D01*
X140638072Y-58799900D01*
X140621010Y-58626665D01*
X140570479Y-58460088D01*
X140488422Y-58306569D01*
X140377991Y-58172009D01*
X140243431Y-58061578D01*
X140089912Y-57979521D01*
X139923335Y-57928990D01*
X139750100Y-57911928D01*
X138549900Y-57911928D01*
X138376665Y-57928990D01*
X138210088Y-57979521D01*
X138056569Y-58061578D01*
X137922009Y-58172009D01*
X137811578Y-58306569D01*
X137757063Y-58408561D01*
X137756802Y-58408205D01*
X137542046Y-58211336D01*
X137293009Y-58060146D01*
X137019261Y-57960446D01*
X137006890Y-57958524D01*
X136777000Y-58079845D01*
X136777000Y-59423000D01*
X136797000Y-59423000D01*
X136797000Y-59677000D01*
X136777000Y-59677000D01*
X136777000Y-61020155D01*
X137006890Y-61141476D01*
X137019261Y-61139554D01*
X137293009Y-61039854D01*
X137542046Y-60888664D01*
X137756802Y-60691795D01*
X137757063Y-60691439D01*
X137811578Y-60793431D01*
X137922009Y-60927991D01*
X138015000Y-61004307D01*
X138015001Y-63945746D01*
X137922038Y-64022038D01*
X137811595Y-64156614D01*
X137757086Y-64258593D01*
X137756802Y-64258205D01*
X137542046Y-64061336D01*
X137293009Y-63910146D01*
X137019261Y-63810446D01*
X137006890Y-63808524D01*
X136777000Y-63929845D01*
X136777000Y-65273000D01*
X136797000Y-65273000D01*
X136797000Y-65527000D01*
X136777000Y-65527000D01*
X136777000Y-66870155D01*
X137006890Y-66991476D01*
X137019261Y-66989554D01*
X137293009Y-66889854D01*
X137542046Y-66738664D01*
X137756802Y-66541795D01*
X137757086Y-66541407D01*
X137811595Y-66643386D01*
X137922038Y-66777962D01*
X138015000Y-66854254D01*
X138015001Y-67565000D01*
X131970132Y-67565000D01*
X131303318Y-66898187D01*
X131327962Y-66877962D01*
X131438405Y-66743386D01*
X131520472Y-66589850D01*
X131571008Y-66423254D01*
X131588072Y-66250000D01*
X131588072Y-65759742D01*
X135178715Y-65759742D01*
X135247904Y-66042745D01*
X135370975Y-66306812D01*
X135543198Y-66541795D01*
X135757954Y-66738664D01*
X136006991Y-66889854D01*
X136280739Y-66989554D01*
X136293110Y-66991476D01*
X136523000Y-66870155D01*
X136523000Y-65527000D01*
X135322768Y-65527000D01*
X135178715Y-65759742D01*
X131588072Y-65759742D01*
X131588072Y-65040258D01*
X135178715Y-65040258D01*
X135322768Y-65273000D01*
X136523000Y-65273000D01*
X136523000Y-63929845D01*
X136293110Y-63808524D01*
X136280739Y-63810446D01*
X136006991Y-63910146D01*
X135757954Y-64061336D01*
X135543198Y-64258205D01*
X135370975Y-64493188D01*
X135247904Y-64757255D01*
X135178715Y-65040258D01*
X131588072Y-65040258D01*
X131588072Y-64750000D01*
X131571008Y-64576746D01*
X131520472Y-64410150D01*
X131438405Y-64256614D01*
X131327962Y-64122038D01*
X131235000Y-64045747D01*
X131235000Y-61104253D01*
X131327962Y-61027962D01*
X131438405Y-60893386D01*
X131520472Y-60739850D01*
X131571008Y-60573254D01*
X131588072Y-60400000D01*
X131588072Y-59909742D01*
X135178715Y-59909742D01*
X135247904Y-60192745D01*
X135370975Y-60456812D01*
X135543198Y-60691795D01*
X135757954Y-60888664D01*
X136006991Y-61039854D01*
X136280739Y-61139554D01*
X136293110Y-61141476D01*
X136523000Y-61020155D01*
X136523000Y-59677000D01*
X135322768Y-59677000D01*
X135178715Y-59909742D01*
X131588072Y-59909742D01*
X131588072Y-59190258D01*
X135178715Y-59190258D01*
X135322768Y-59423000D01*
X136523000Y-59423000D01*
X136523000Y-58079845D01*
X136293110Y-57958524D01*
X136280739Y-57960446D01*
X136006991Y-58060146D01*
X135757954Y-58211336D01*
X135543198Y-58408205D01*
X135370975Y-58643188D01*
X135247904Y-58907255D01*
X135178715Y-59190258D01*
X131588072Y-59190258D01*
X131588072Y-58900000D01*
X131571008Y-58726746D01*
X131520472Y-58560150D01*
X131438405Y-58406614D01*
X131327962Y-58272038D01*
X131193386Y-58161595D01*
X131039850Y-58079528D01*
X130873254Y-58028992D01*
X130700000Y-58011928D01*
X129500000Y-58011928D01*
X129326746Y-58028992D01*
X129160150Y-58079528D01*
X129006614Y-58161595D01*
X128872038Y-58272038D01*
X128761595Y-58406614D01*
X128707086Y-58508593D01*
X128706802Y-58508205D01*
X128492046Y-58311336D01*
X128243009Y-58160146D01*
X127969261Y-58060446D01*
X127956890Y-58058524D01*
X127727000Y-58179845D01*
X127727000Y-59523000D01*
X127747000Y-59523000D01*
X127747000Y-59777000D01*
X127727000Y-59777000D01*
X127727000Y-61120155D01*
X127956890Y-61241476D01*
X127969261Y-61239554D01*
X128243009Y-61139854D01*
X128492046Y-60988664D01*
X128706802Y-60791795D01*
X128707086Y-60791407D01*
X128761595Y-60893386D01*
X128872038Y-61027962D01*
X128965000Y-61104254D01*
X128965001Y-64045746D01*
X128872038Y-64122038D01*
X128761595Y-64256614D01*
X128707086Y-64358593D01*
X128706802Y-64358205D01*
X128492046Y-64161336D01*
X128243009Y-64010146D01*
X127969261Y-63910446D01*
X127956890Y-63908524D01*
X127727000Y-64029845D01*
X127727000Y-65373000D01*
X127747000Y-65373000D01*
X127747000Y-65627000D01*
X127727000Y-65627000D01*
X127727000Y-66970155D01*
X127956890Y-67091476D01*
X127969261Y-67089554D01*
X128243009Y-66989854D01*
X128492046Y-66838664D01*
X128706802Y-66641795D01*
X128707086Y-66641407D01*
X128761595Y-66743386D01*
X128872038Y-66877962D01*
X128965000Y-66954253D01*
X128965000Y-67244249D01*
X128959509Y-67300000D01*
X128981423Y-67522498D01*
X129046324Y-67736446D01*
X129068515Y-67777962D01*
X129151717Y-67933623D01*
X129293552Y-68106449D01*
X129336860Y-68141991D01*
X130658008Y-69463140D01*
X130693551Y-69506449D01*
X130866377Y-69648284D01*
X131053463Y-69748283D01*
X131063553Y-69753676D01*
X131277501Y-69818577D01*
X131500000Y-69840491D01*
X131555751Y-69835000D01*
X138528612Y-69835000D01*
X138563553Y-69853676D01*
X138777501Y-69918577D01*
X138944248Y-69935000D01*
X138944249Y-69935000D01*
X139000000Y-69940491D01*
X139055751Y-69935000D01*
X142929869Y-69935000D01*
X145265001Y-72270134D01*
X145265000Y-85144249D01*
X145259509Y-85200000D01*
X145265000Y-85255751D01*
X145281423Y-85422498D01*
X145346324Y-85636446D01*
X145451716Y-85833623D01*
X145593551Y-86006449D01*
X145636865Y-86041996D01*
X147458009Y-87863141D01*
X147493551Y-87906449D01*
X147633431Y-88021246D01*
X147666377Y-88048284D01*
X147863553Y-88153676D01*
X148077501Y-88218577D01*
X148300000Y-88240491D01*
X148355752Y-88235000D01*
X159015001Y-88235000D01*
X159015000Y-94459868D01*
X156499869Y-96975000D01*
X156473740Y-96975000D01*
X156186842Y-97032068D01*
X155916589Y-97144010D01*
X155673368Y-97306525D01*
X155466525Y-97513368D01*
X155350000Y-97687760D01*
X155233475Y-97513368D01*
X155026632Y-97306525D01*
X154783411Y-97144010D01*
X154513158Y-97032068D01*
X154226260Y-96975000D01*
X153933740Y-96975000D01*
X153646842Y-97032068D01*
X153376589Y-97144010D01*
X153133368Y-97306525D01*
X152926525Y-97513368D01*
X152810000Y-97687760D01*
X152693475Y-97513368D01*
X152675000Y-97494893D01*
X152675000Y-95390131D01*
X155001989Y-93063144D01*
X155020204Y-93040949D01*
X155061595Y-93118386D01*
X155172038Y-93252962D01*
X155306614Y-93363405D01*
X155460150Y-93445472D01*
X155626746Y-93496008D01*
X155800000Y-93513072D01*
X157000000Y-93513072D01*
X157173254Y-93496008D01*
X157339850Y-93445472D01*
X157493386Y-93363405D01*
X157627962Y-93252962D01*
X157738405Y-93118386D01*
X157820472Y-92964850D01*
X157871008Y-92798254D01*
X157888072Y-92625000D01*
X157888072Y-91175000D01*
X157871008Y-91001746D01*
X157820472Y-90835150D01*
X157738405Y-90681614D01*
X157627962Y-90547038D01*
X157493386Y-90436595D01*
X157339850Y-90354528D01*
X157173254Y-90303992D01*
X157000000Y-90286928D01*
X155800000Y-90286928D01*
X155626746Y-90303992D01*
X155460150Y-90354528D01*
X155306614Y-90436595D01*
X155172038Y-90547038D01*
X155061595Y-90681614D01*
X155007223Y-90783337D01*
X154955134Y-90719866D01*
X154729014Y-90534294D01*
X154471034Y-90396401D01*
X154191111Y-90311487D01*
X153900000Y-90282815D01*
X153608890Y-90311487D01*
X153328967Y-90396401D01*
X153070987Y-90534294D01*
X152844866Y-90719866D01*
X152659294Y-90945986D01*
X152650000Y-90963374D01*
X152640706Y-90945986D01*
X152455134Y-90719866D01*
X152229014Y-90534294D01*
X151971034Y-90396401D01*
X151691111Y-90311487D01*
X151400000Y-90282815D01*
X151108890Y-90311487D01*
X150828967Y-90396401D01*
X150570987Y-90534294D01*
X150344866Y-90719866D01*
X150159294Y-90945986D01*
X150150000Y-90963374D01*
X150140706Y-90945986D01*
X149955134Y-90719866D01*
X149729014Y-90534294D01*
X149471034Y-90396401D01*
X149191111Y-90311487D01*
X148900000Y-90282815D01*
X148608890Y-90311487D01*
X148328967Y-90396401D01*
X148070987Y-90534294D01*
X147844866Y-90719866D01*
X147659294Y-90945986D01*
X147645538Y-90971722D01*
X147489049Y-90765571D01*
X147271193Y-90572504D01*
X147019858Y-90425648D01*
X146756890Y-90333524D01*
X146527000Y-90454845D01*
X146527000Y-91773000D01*
X146547000Y-91773000D01*
X146547000Y-92027000D01*
X146527000Y-92027000D01*
X146527000Y-93345155D01*
X146756890Y-93466476D01*
X147019858Y-93374352D01*
X147271193Y-93227496D01*
X147489049Y-93034429D01*
X147645538Y-92828278D01*
X147659294Y-92854013D01*
X147844866Y-93080134D01*
X147865001Y-93096658D01*
X147865000Y-97494893D01*
X147846525Y-97513368D01*
X147724805Y-97695534D01*
X147655178Y-97578645D01*
X147460269Y-97362412D01*
X147226920Y-97188359D01*
X146964099Y-97063175D01*
X146816890Y-97018524D01*
X146587000Y-97139845D01*
X146587000Y-98333000D01*
X146607000Y-98333000D01*
X146607000Y-98587000D01*
X146587000Y-98587000D01*
X146587000Y-98607000D01*
X146333000Y-98607000D01*
X146333000Y-98587000D01*
X146313000Y-98587000D01*
X146313000Y-98333000D01*
X146333000Y-98333000D01*
X146333000Y-97139845D01*
X146103110Y-97018524D01*
X145955901Y-97063175D01*
X145693080Y-97188359D01*
X145459731Y-97362412D01*
X145264822Y-97578645D01*
X145195195Y-97695534D01*
X145073475Y-97513368D01*
X144866632Y-97306525D01*
X144705000Y-97198526D01*
X144705000Y-92259267D01*
X144933680Y-92259267D01*
X145007558Y-92540830D01*
X145134947Y-92802570D01*
X145310951Y-93034429D01*
X145528807Y-93227496D01*
X145780142Y-93374352D01*
X146043110Y-93466476D01*
X146273000Y-93345155D01*
X146273000Y-92027000D01*
X145073835Y-92027000D01*
X144933680Y-92259267D01*
X144705000Y-92259267D01*
X144705000Y-91540733D01*
X144933680Y-91540733D01*
X145073835Y-91773000D01*
X146273000Y-91773000D01*
X146273000Y-90454845D01*
X146043110Y-90333524D01*
X145780142Y-90425648D01*
X145528807Y-90572504D01*
X145310951Y-90765571D01*
X145134947Y-90997430D01*
X145007558Y-91259170D01*
X144933680Y-91540733D01*
X144705000Y-91540733D01*
X144705000Y-78458552D01*
X144708797Y-78419999D01*
X144705000Y-78381446D01*
X144705000Y-78381439D01*
X144693641Y-78266113D01*
X144648754Y-78118140D01*
X144575862Y-77981767D01*
X144477764Y-77862236D01*
X144447816Y-77837658D01*
X143082347Y-76472190D01*
X143057764Y-76442236D01*
X142938233Y-76344138D01*
X142801860Y-76271246D01*
X142653887Y-76226359D01*
X142538561Y-76215000D01*
X142538553Y-76215000D01*
X142500000Y-76211203D01*
X142461447Y-76215000D01*
X141589232Y-76215000D01*
X141565706Y-76170986D01*
X141380134Y-75944866D01*
X141154014Y-75759294D01*
X141128278Y-75745538D01*
X141334429Y-75589049D01*
X141527496Y-75371193D01*
X141674352Y-75119858D01*
X141766476Y-74856890D01*
X141645155Y-74627000D01*
X140327000Y-74627000D01*
X140327000Y-74647000D01*
X140073000Y-74647000D01*
X140073000Y-74627000D01*
X138754845Y-74627000D01*
X138633524Y-74856890D01*
X138725648Y-75119858D01*
X138872504Y-75371193D01*
X139065571Y-75589049D01*
X139271722Y-75745538D01*
X139245986Y-75759294D01*
X139019866Y-75944866D01*
X138834294Y-76170986D01*
X138696401Y-76428966D01*
X138611487Y-76708889D01*
X138582815Y-77000000D01*
X138611487Y-77291111D01*
X138696401Y-77571034D01*
X138834294Y-77829014D01*
X139019866Y-78055134D01*
X139083337Y-78107223D01*
X138981614Y-78161595D01*
X138847038Y-78272038D01*
X138736595Y-78406614D01*
X138654528Y-78560150D01*
X138603992Y-78726746D01*
X138586928Y-78900000D01*
X138586928Y-80100000D01*
X138603992Y-80273254D01*
X138654528Y-80439850D01*
X138736595Y-80593386D01*
X138847038Y-80727962D01*
X138981614Y-80838405D01*
X139135150Y-80920472D01*
X139301746Y-80971008D01*
X139475000Y-80988072D01*
X140925000Y-80988072D01*
X141098254Y-80971008D01*
X141264850Y-80920472D01*
X141418386Y-80838405D01*
X141552962Y-80727962D01*
X141663405Y-80593386D01*
X141745472Y-80439850D01*
X141796008Y-80273254D01*
X141813072Y-80100000D01*
X141813072Y-78900000D01*
X141796008Y-78726746D01*
X141745472Y-78560150D01*
X141663405Y-78406614D01*
X141552962Y-78272038D01*
X141418386Y-78161595D01*
X141316663Y-78107223D01*
X141380134Y-78055134D01*
X141565706Y-77829014D01*
X141589232Y-77785000D01*
X142174843Y-77785000D01*
X143135001Y-78745159D01*
X143135000Y-96223554D01*
X143127815Y-96217658D01*
X142285000Y-95374843D01*
X142285000Y-86388552D01*
X142288797Y-86349999D01*
X142285000Y-86311446D01*
X142285000Y-86311439D01*
X142273641Y-86196113D01*
X142228754Y-86048140D01*
X142155862Y-85911767D01*
X142057764Y-85792236D01*
X142027816Y-85767658D01*
X137685000Y-81424843D01*
X137685000Y-77838556D01*
X137688797Y-77800000D01*
X137685000Y-77761444D01*
X137685000Y-77761439D01*
X137681020Y-77721026D01*
X137673642Y-77646113D01*
X137628754Y-77498140D01*
X137555862Y-77361767D01*
X137457764Y-77242236D01*
X137427810Y-77217653D01*
X136682347Y-76472190D01*
X136657764Y-76442236D01*
X136538233Y-76344138D01*
X136401860Y-76271246D01*
X136253887Y-76226359D01*
X136138561Y-76215000D01*
X136138553Y-76215000D01*
X136100000Y-76211203D01*
X136087842Y-76212400D01*
X136065706Y-76170986D01*
X135880134Y-75944866D01*
X135654014Y-75759294D01*
X135628278Y-75745538D01*
X135834429Y-75589049D01*
X136027496Y-75371193D01*
X136174352Y-75119858D01*
X136266476Y-74856890D01*
X136145155Y-74627000D01*
X134827000Y-74627000D01*
X134827000Y-74647000D01*
X134573000Y-74647000D01*
X134573000Y-74627000D01*
X133254845Y-74627000D01*
X133133524Y-74856890D01*
X133225648Y-75119858D01*
X133372504Y-75371193D01*
X133565571Y-75589049D01*
X133771722Y-75745538D01*
X133745986Y-75759294D01*
X133519866Y-75944866D01*
X133334294Y-76170986D01*
X133196401Y-76428966D01*
X133111487Y-76708889D01*
X133082815Y-77000000D01*
X133111487Y-77291111D01*
X133196401Y-77571034D01*
X133334294Y-77829014D01*
X133519866Y-78055134D01*
X133583337Y-78107223D01*
X133481614Y-78161595D01*
X133347038Y-78272038D01*
X133236595Y-78406614D01*
X133154528Y-78560150D01*
X133103992Y-78726746D01*
X133086928Y-78900000D01*
X133086928Y-80100000D01*
X133103992Y-80273254D01*
X133154528Y-80439850D01*
X133236595Y-80593386D01*
X133347038Y-80727962D01*
X133481614Y-80838405D01*
X133635150Y-80920472D01*
X133801746Y-80971008D01*
X133975000Y-80988072D01*
X135425000Y-80988072D01*
X135598254Y-80971008D01*
X135764850Y-80920472D01*
X135918386Y-80838405D01*
X136052962Y-80727962D01*
X136115000Y-80652368D01*
X136115000Y-81711447D01*
X136111203Y-81750000D01*
X136115000Y-81788553D01*
X136115000Y-81788560D01*
X136126359Y-81903886D01*
X136171246Y-82051859D01*
X136244138Y-82188232D01*
X136342236Y-82307764D01*
X136372190Y-82332347D01*
X140715001Y-86675159D01*
X140715000Y-95661447D01*
X140711203Y-95700000D01*
X140715000Y-95738553D01*
X140715000Y-95738560D01*
X140726359Y-95853886D01*
X140771246Y-96001859D01*
X140844138Y-96138232D01*
X140942236Y-96257764D01*
X140972190Y-96282347D01*
X141699253Y-97009411D01*
X141526260Y-96975000D01*
X141233740Y-96975000D01*
X140946842Y-97032068D01*
X140676589Y-97144010D01*
X140433368Y-97306525D01*
X140226525Y-97513368D01*
X140110000Y-97687760D01*
X139993475Y-97513368D01*
X139786632Y-97306525D01*
X139543411Y-97144010D01*
X139273158Y-97032068D01*
X139027045Y-96983113D01*
X140227817Y-95782341D01*
X140257764Y-95757764D01*
X140355862Y-95638233D01*
X140428754Y-95501860D01*
X140473641Y-95353887D01*
X140485000Y-95238561D01*
X140485000Y-95238554D01*
X140488797Y-95200001D01*
X140485000Y-95161448D01*
X140485000Y-88538552D01*
X140488797Y-88499999D01*
X140485000Y-88461446D01*
X140485000Y-88461439D01*
X140473641Y-88346113D01*
X140428754Y-88198140D01*
X140355862Y-88061767D01*
X140306450Y-88001559D01*
X140282345Y-87972187D01*
X140282342Y-87972184D01*
X140257764Y-87942236D01*
X140227816Y-87917658D01*
X138632345Y-86322188D01*
X138607764Y-86292236D01*
X138488233Y-86194138D01*
X138351860Y-86121246D01*
X138203887Y-86076359D01*
X138088561Y-86065000D01*
X138088553Y-86065000D01*
X138050000Y-86061203D01*
X138011447Y-86065000D01*
X133425157Y-86065000D01*
X132885000Y-85524843D01*
X132885000Y-78838552D01*
X132888797Y-78799999D01*
X132885000Y-78761446D01*
X132885000Y-78761439D01*
X132873641Y-78646113D01*
X132828754Y-78498140D01*
X132755862Y-78361767D01*
X132657764Y-78242236D01*
X132627816Y-78217658D01*
X130931674Y-76521517D01*
X130903599Y-76428966D01*
X130765706Y-76170986D01*
X130580134Y-75944866D01*
X130354014Y-75759294D01*
X130328278Y-75745538D01*
X130534429Y-75589049D01*
X130727496Y-75371193D01*
X130874352Y-75119858D01*
X130966476Y-74856890D01*
X130845155Y-74627000D01*
X129527000Y-74627000D01*
X129527000Y-74647000D01*
X129273000Y-74647000D01*
X129273000Y-74627000D01*
X127954845Y-74627000D01*
X127833524Y-74856890D01*
X127925648Y-75119858D01*
X128072504Y-75371193D01*
X128265571Y-75589049D01*
X128471722Y-75745538D01*
X128445986Y-75759294D01*
X128219866Y-75944866D01*
X128034294Y-76170986D01*
X127896401Y-76428966D01*
X127811487Y-76708889D01*
X127782815Y-77000000D01*
X127811487Y-77291111D01*
X127896401Y-77571034D01*
X128034294Y-77829014D01*
X128219866Y-78055134D01*
X128283337Y-78107223D01*
X128181614Y-78161595D01*
X128047038Y-78272038D01*
X127936595Y-78406614D01*
X127854528Y-78560150D01*
X127803992Y-78726746D01*
X127786928Y-78900000D01*
X127786928Y-80100000D01*
X127803992Y-80273254D01*
X127854528Y-80439850D01*
X127936595Y-80593386D01*
X128047038Y-80727962D01*
X128181614Y-80838405D01*
X128335150Y-80920472D01*
X128501746Y-80971008D01*
X128675000Y-80988072D01*
X130125000Y-80988072D01*
X130298254Y-80971008D01*
X130464850Y-80920472D01*
X130618386Y-80838405D01*
X130752962Y-80727962D01*
X130863405Y-80593386D01*
X130945472Y-80439850D01*
X130996008Y-80273254D01*
X131013072Y-80100000D01*
X131013072Y-78900000D01*
X131004685Y-78814842D01*
X131315001Y-79125159D01*
X131315000Y-85811447D01*
X131311203Y-85850000D01*
X131315000Y-85888553D01*
X131315000Y-85888560D01*
X131326359Y-86003886D01*
X131371246Y-86151859D01*
X131444138Y-86288232D01*
X131542236Y-86407764D01*
X131572190Y-86432347D01*
X132517653Y-87377810D01*
X132542236Y-87407764D01*
X132661767Y-87505862D01*
X132798140Y-87578754D01*
X132946113Y-87623642D01*
X133021026Y-87631020D01*
X133061439Y-87635000D01*
X133061444Y-87635000D01*
X133100000Y-87638797D01*
X133138556Y-87635000D01*
X137724843Y-87635000D01*
X138915001Y-88825159D01*
X138915000Y-94874842D01*
X137112184Y-96677659D01*
X137085000Y-96699969D01*
X137085000Y-96425157D01*
X138027817Y-95482341D01*
X138057764Y-95457764D01*
X138155862Y-95338233D01*
X138228754Y-95201860D01*
X138263194Y-95088328D01*
X138273641Y-95053888D01*
X138278541Y-95004138D01*
X138285000Y-94938561D01*
X138285000Y-94938554D01*
X138288797Y-94900001D01*
X138285000Y-94861448D01*
X138285000Y-89538552D01*
X138288797Y-89499999D01*
X138285000Y-89461446D01*
X138285000Y-89461439D01*
X138273641Y-89346113D01*
X138265009Y-89317655D01*
X138228754Y-89198140D01*
X138214379Y-89171246D01*
X138155862Y-89061767D01*
X138057764Y-88942236D01*
X138027815Y-88917657D01*
X137332345Y-88222188D01*
X137307764Y-88192236D01*
X137188233Y-88094138D01*
X137051860Y-88021246D01*
X136903887Y-87976359D01*
X136788561Y-87965000D01*
X136788553Y-87965000D01*
X136750000Y-87961203D01*
X136711447Y-87965000D01*
X130175157Y-87965000D01*
X127485000Y-85274843D01*
X127485000Y-78138555D01*
X127488797Y-78100000D01*
X127485000Y-78061444D01*
X127485000Y-78061439D01*
X127481020Y-78021026D01*
X127473642Y-77946113D01*
X127428754Y-77798140D01*
X127409137Y-77761439D01*
X127355862Y-77661767D01*
X127257764Y-77542236D01*
X127227815Y-77517658D01*
X126182347Y-76472190D01*
X126157764Y-76442236D01*
X126038233Y-76344138D01*
X125901860Y-76271246D01*
X125753887Y-76226359D01*
X125638561Y-76215000D01*
X125638553Y-76215000D01*
X125600000Y-76211203D01*
X125561447Y-76215000D01*
X125489232Y-76215000D01*
X125465706Y-76170986D01*
X125280134Y-75944866D01*
X125054014Y-75759294D01*
X125028278Y-75745538D01*
X125234429Y-75589049D01*
X125427496Y-75371193D01*
X125574352Y-75119858D01*
X125666476Y-74856890D01*
X125545155Y-74627000D01*
X124227000Y-74627000D01*
X124227000Y-74647000D01*
X123973000Y-74647000D01*
X123973000Y-74627000D01*
X122654845Y-74627000D01*
X122533524Y-74856890D01*
X122625648Y-75119858D01*
X122772504Y-75371193D01*
X122965571Y-75589049D01*
X123171722Y-75745538D01*
X123145986Y-75759294D01*
X122919866Y-75944866D01*
X122734294Y-76170986D01*
X122596401Y-76428966D01*
X122511487Y-76708889D01*
X122482815Y-77000000D01*
X120170707Y-77000000D01*
X120169456Y-74143110D01*
X122533524Y-74143110D01*
X122654845Y-74373000D01*
X123973000Y-74373000D01*
X123973000Y-73173835D01*
X124227000Y-73173835D01*
X124227000Y-74373000D01*
X125545155Y-74373000D01*
X125666476Y-74143110D01*
X127833524Y-74143110D01*
X127954845Y-74373000D01*
X129273000Y-74373000D01*
X129273000Y-73173835D01*
X129527000Y-73173835D01*
X129527000Y-74373000D01*
X130845155Y-74373000D01*
X130966476Y-74143110D01*
X133133524Y-74143110D01*
X133254845Y-74373000D01*
X134573000Y-74373000D01*
X134573000Y-73173835D01*
X134827000Y-73173835D01*
X134827000Y-74373000D01*
X136145155Y-74373000D01*
X136266476Y-74143110D01*
X138633524Y-74143110D01*
X138754845Y-74373000D01*
X140073000Y-74373000D01*
X140073000Y-73173835D01*
X140327000Y-73173835D01*
X140327000Y-74373000D01*
X141645155Y-74373000D01*
X141766476Y-74143110D01*
X141674352Y-73880142D01*
X141527496Y-73628807D01*
X141334429Y-73410951D01*
X141102570Y-73234947D01*
X140840830Y-73107558D01*
X140559267Y-73033680D01*
X140327000Y-73173835D01*
X140073000Y-73173835D01*
X139840733Y-73033680D01*
X139559170Y-73107558D01*
X139297430Y-73234947D01*
X139065571Y-73410951D01*
X138872504Y-73628807D01*
X138725648Y-73880142D01*
X138633524Y-74143110D01*
X136266476Y-74143110D01*
X136174352Y-73880142D01*
X136027496Y-73628807D01*
X135834429Y-73410951D01*
X135602570Y-73234947D01*
X135340830Y-73107558D01*
X135059267Y-73033680D01*
X134827000Y-73173835D01*
X134573000Y-73173835D01*
X134340733Y-73033680D01*
X134059170Y-73107558D01*
X133797430Y-73234947D01*
X133565571Y-73410951D01*
X133372504Y-73628807D01*
X133225648Y-73880142D01*
X133133524Y-74143110D01*
X130966476Y-74143110D01*
X130874352Y-73880142D01*
X130727496Y-73628807D01*
X130534429Y-73410951D01*
X130302570Y-73234947D01*
X130040830Y-73107558D01*
X129759267Y-73033680D01*
X129527000Y-73173835D01*
X129273000Y-73173835D01*
X129040733Y-73033680D01*
X128759170Y-73107558D01*
X128497430Y-73234947D01*
X128265571Y-73410951D01*
X128072504Y-73628807D01*
X127925648Y-73880142D01*
X127833524Y-74143110D01*
X125666476Y-74143110D01*
X125574352Y-73880142D01*
X125427496Y-73628807D01*
X125234429Y-73410951D01*
X125002570Y-73234947D01*
X124740830Y-73107558D01*
X124459267Y-73033680D01*
X124227000Y-73173835D01*
X123973000Y-73173835D01*
X123740733Y-73033680D01*
X123459170Y-73107558D01*
X123197430Y-73234947D01*
X122965571Y-73410951D01*
X122772504Y-73628807D01*
X122625648Y-73880142D01*
X122533524Y-74143110D01*
X120169456Y-74143110D01*
X120165829Y-65859742D01*
X126128715Y-65859742D01*
X126197904Y-66142745D01*
X126320975Y-66406812D01*
X126493198Y-66641795D01*
X126707954Y-66838664D01*
X126956991Y-66989854D01*
X127230739Y-67089554D01*
X127243110Y-67091476D01*
X127473000Y-66970155D01*
X127473000Y-65627000D01*
X126272768Y-65627000D01*
X126128715Y-65859742D01*
X120165829Y-65859742D01*
X120165514Y-65140258D01*
X126128715Y-65140258D01*
X126272768Y-65373000D01*
X127473000Y-65373000D01*
X127473000Y-64029845D01*
X127243110Y-63908524D01*
X127230739Y-63910446D01*
X126956991Y-64010146D01*
X126707954Y-64161336D01*
X126493198Y-64358205D01*
X126320975Y-64593188D01*
X126197904Y-64857255D01*
X126128715Y-65140258D01*
X120165514Y-65140258D01*
X120163267Y-60009742D01*
X126128715Y-60009742D01*
X126197904Y-60292745D01*
X126320975Y-60556812D01*
X126493198Y-60791795D01*
X126707954Y-60988664D01*
X126956991Y-61139854D01*
X127230739Y-61239554D01*
X127243110Y-61241476D01*
X127473000Y-61120155D01*
X127473000Y-59777000D01*
X126272768Y-59777000D01*
X126128715Y-60009742D01*
X120163267Y-60009742D01*
X120162952Y-59290258D01*
X126128715Y-59290258D01*
X126272768Y-59523000D01*
X127473000Y-59523000D01*
X127473000Y-58179845D01*
X127243110Y-58058524D01*
X127230739Y-58060446D01*
X126956991Y-58160146D01*
X126707954Y-58311336D01*
X126493198Y-58508205D01*
X126320975Y-58743188D01*
X126197904Y-59007255D01*
X126128715Y-59290258D01*
X120162952Y-59290258D01*
X120161399Y-55743110D01*
X150508524Y-55743110D01*
X150629845Y-55973000D01*
X151973000Y-55973000D01*
X151973000Y-54772768D01*
X152227000Y-54772768D01*
X152227000Y-55973000D01*
X153570155Y-55973000D01*
X153691476Y-55743110D01*
X156608524Y-55743110D01*
X156729845Y-55973000D01*
X158073000Y-55973000D01*
X158073000Y-54772768D01*
X158327000Y-54772768D01*
X158327000Y-55973000D01*
X159670155Y-55973000D01*
X159791476Y-55743110D01*
X159789554Y-55730739D01*
X159757640Y-55643110D01*
X162608524Y-55643110D01*
X162729845Y-55873000D01*
X164073000Y-55873000D01*
X164073000Y-54672768D01*
X164327000Y-54672768D01*
X164327000Y-55873000D01*
X165670155Y-55873000D01*
X165791476Y-55643110D01*
X167708524Y-55643110D01*
X167829845Y-55873000D01*
X169173000Y-55873000D01*
X169173000Y-54672768D01*
X169427000Y-54672768D01*
X169427000Y-55873000D01*
X170770155Y-55873000D01*
X170891476Y-55643110D01*
X170889554Y-55630739D01*
X170789854Y-55356991D01*
X170638664Y-55107954D01*
X170441795Y-54893198D01*
X170206812Y-54720975D01*
X169942745Y-54597904D01*
X169659742Y-54528715D01*
X169427000Y-54672768D01*
X169173000Y-54672768D01*
X168940258Y-54528715D01*
X168657255Y-54597904D01*
X168393188Y-54720975D01*
X168158205Y-54893198D01*
X167961336Y-55107954D01*
X167810146Y-55356991D01*
X167710446Y-55630739D01*
X167708524Y-55643110D01*
X165791476Y-55643110D01*
X165789554Y-55630739D01*
X165689854Y-55356991D01*
X165538664Y-55107954D01*
X165341795Y-54893198D01*
X165106812Y-54720975D01*
X164842745Y-54597904D01*
X164559742Y-54528715D01*
X164327000Y-54672768D01*
X164073000Y-54672768D01*
X163840258Y-54528715D01*
X163557255Y-54597904D01*
X163293188Y-54720975D01*
X163058205Y-54893198D01*
X162861336Y-55107954D01*
X162710146Y-55356991D01*
X162610446Y-55630739D01*
X162608524Y-55643110D01*
X159757640Y-55643110D01*
X159689854Y-55456991D01*
X159538664Y-55207954D01*
X159341795Y-54993198D01*
X159106812Y-54820975D01*
X158842745Y-54697904D01*
X158559742Y-54628715D01*
X158327000Y-54772768D01*
X158073000Y-54772768D01*
X157840258Y-54628715D01*
X157557255Y-54697904D01*
X157293188Y-54820975D01*
X157058205Y-54993198D01*
X156861336Y-55207954D01*
X156710146Y-55456991D01*
X156610446Y-55730739D01*
X156608524Y-55743110D01*
X153691476Y-55743110D01*
X153689554Y-55730739D01*
X153589854Y-55456991D01*
X153438664Y-55207954D01*
X153241795Y-54993198D01*
X153006812Y-54820975D01*
X152742745Y-54697904D01*
X152459742Y-54628715D01*
X152227000Y-54772768D01*
X151973000Y-54772768D01*
X151740258Y-54628715D01*
X151457255Y-54697904D01*
X151193188Y-54820975D01*
X150958205Y-54993198D01*
X150761336Y-55207954D01*
X150610146Y-55456991D01*
X150510446Y-55730739D01*
X150508524Y-55743110D01*
X120161399Y-55743110D01*
X120160012Y-52579369D01*
X120230757Y-51770755D01*
X120433209Y-51015192D01*
X120578089Y-50704495D01*
X121915000Y-50704495D01*
X121915000Y-51095505D01*
X121991282Y-51479003D01*
X122140915Y-51840250D01*
X122358149Y-52165364D01*
X122634636Y-52441851D01*
X122959750Y-52659085D01*
X123320997Y-52808718D01*
X123704495Y-52885000D01*
X124095505Y-52885000D01*
X124479003Y-52808718D01*
X124840250Y-52659085D01*
X125165364Y-52441851D01*
X125441851Y-52165364D01*
X125659085Y-51840250D01*
X125808718Y-51479003D01*
X125885000Y-51095505D01*
X125885000Y-50704495D01*
X179915000Y-50704495D01*
X179915000Y-51095505D01*
X179991282Y-51479003D01*
X180140915Y-51840250D01*
X180358149Y-52165364D01*
X180634636Y-52441851D01*
X180959750Y-52659085D01*
X181320997Y-52808718D01*
X181704495Y-52885000D01*
X182095505Y-52885000D01*
X182479003Y-52808718D01*
X182840250Y-52659085D01*
X183165364Y-52441851D01*
X183441851Y-52165364D01*
X183659085Y-51840250D01*
X183808718Y-51479003D01*
X183885000Y-51095505D01*
X183885000Y-50704495D01*
X183808718Y-50320997D01*
X183659085Y-49959750D01*
X183441851Y-49634636D01*
X183165364Y-49358149D01*
X182840250Y-49140915D01*
X182479003Y-48991282D01*
X182095505Y-48915000D01*
X181704495Y-48915000D01*
X181320997Y-48991282D01*
X180959750Y-49140915D01*
X180634636Y-49358149D01*
X180358149Y-49634636D01*
X180140915Y-49959750D01*
X179991282Y-50320997D01*
X179915000Y-50704495D01*
X125885000Y-50704495D01*
X125808718Y-50320997D01*
X125659085Y-49959750D01*
X125441851Y-49634636D01*
X125165364Y-49358149D01*
X124840250Y-49140915D01*
X124479003Y-48991282D01*
X124095505Y-48915000D01*
X123704495Y-48915000D01*
X123320997Y-48991282D01*
X122959750Y-49140915D01*
X122634636Y-49358149D01*
X122358149Y-49634636D01*
X122140915Y-49959750D01*
X121991282Y-50320997D01*
X121915000Y-50704495D01*
X120578089Y-50704495D01*
X120763789Y-50306261D01*
X121212454Y-49665501D01*
X121765564Y-49112392D01*
X122406321Y-48663729D01*
X123115250Y-48333150D01*
X123870821Y-48130695D01*
X124679108Y-48059974D01*
X180382758Y-48011013D01*
X181179245Y-48080697D01*
G37*
X181179245Y-48080697D02*
X181934808Y-48283149D01*
X182643739Y-48613729D01*
X183284499Y-49062394D01*
X183837608Y-49615504D01*
X184286271Y-50256261D01*
X184616850Y-50965190D01*
X184819303Y-51720755D01*
X184890006Y-52528895D01*
X184899994Y-98190670D01*
X184827563Y-99002249D01*
X184620328Y-99759774D01*
X184282221Y-100468627D01*
X183823928Y-101106410D01*
X183259945Y-101652946D01*
X182608085Y-102090978D01*
X181888963Y-102406651D01*
X181120232Y-102591206D01*
X180455792Y-102640000D01*
X124629392Y-102640000D01*
X123817751Y-102567563D01*
X123060226Y-102360328D01*
X122351373Y-102022221D01*
X121713590Y-101563928D01*
X121167054Y-100999945D01*
X120729022Y-100348085D01*
X120413349Y-99628963D01*
X120228794Y-98860232D01*
X120179989Y-98195646D01*
X120177390Y-92259267D01*
X123733680Y-92259267D01*
X123807558Y-92540830D01*
X123934947Y-92802570D01*
X124110951Y-93034429D01*
X124328807Y-93227496D01*
X124580142Y-93374352D01*
X124843110Y-93466476D01*
X125073000Y-93345155D01*
X125073000Y-92027000D01*
X123873835Y-92027000D01*
X123733680Y-92259267D01*
X120177390Y-92259267D01*
X120177076Y-91540733D01*
X123733680Y-91540733D01*
X123873835Y-91773000D01*
X125073000Y-91773000D01*
X125073000Y-90454845D01*
X124843110Y-90333524D01*
X124580142Y-90425648D01*
X124328807Y-90572504D01*
X124110951Y-90765571D01*
X123934947Y-90997430D01*
X123807558Y-91259170D01*
X123733680Y-91540733D01*
X120177076Y-91540733D01*
X120170707Y-77000000D01*
X122482815Y-77000000D01*
X122511487Y-77291111D01*
X122596401Y-77571034D01*
X122734294Y-77829014D01*
X122919866Y-78055134D01*
X122983337Y-78107223D01*
X122881614Y-78161595D01*
X122747038Y-78272038D01*
X122636595Y-78406614D01*
X122554528Y-78560150D01*
X122503992Y-78726746D01*
X122486928Y-78900000D01*
X122486928Y-80100000D01*
X122503992Y-80273254D01*
X122554528Y-80439850D01*
X122636595Y-80593386D01*
X122747038Y-80727962D01*
X122881614Y-80838405D01*
X123035150Y-80920472D01*
X123201746Y-80971008D01*
X123375000Y-80988072D01*
X124825000Y-80988072D01*
X124998254Y-80971008D01*
X125164850Y-80920472D01*
X125318386Y-80838405D01*
X125452962Y-80727962D01*
X125563405Y-80593386D01*
X125645472Y-80439850D01*
X125696008Y-80273254D01*
X125713072Y-80100000D01*
X125713072Y-78900000D01*
X125696008Y-78726746D01*
X125645472Y-78560150D01*
X125563405Y-78406614D01*
X125452962Y-78272038D01*
X125318386Y-78161595D01*
X125216663Y-78107223D01*
X125280134Y-78055134D01*
X125399513Y-77909670D01*
X125915001Y-78425159D01*
X125915000Y-85561447D01*
X125911203Y-85600000D01*
X125915000Y-85638553D01*
X125915000Y-85638560D01*
X125926359Y-85753886D01*
X125971246Y-85901859D01*
X126044138Y-86038232D01*
X126142236Y-86157764D01*
X126172190Y-86182347D01*
X129267653Y-89277810D01*
X129292236Y-89307764D01*
X129411767Y-89405862D01*
X129506408Y-89456448D01*
X129548140Y-89478754D01*
X129696113Y-89523642D01*
X129771026Y-89531020D01*
X129811439Y-89535000D01*
X129811444Y-89535000D01*
X129850000Y-89538797D01*
X129888556Y-89535000D01*
X136424843Y-89535000D01*
X136715001Y-89825159D01*
X136715000Y-94574842D01*
X135772185Y-95517658D01*
X135742237Y-95542236D01*
X135717659Y-95572184D01*
X135717655Y-95572188D01*
X135693305Y-95601859D01*
X135644139Y-95661767D01*
X135613958Y-95718232D01*
X135571246Y-95798141D01*
X135526359Y-95946114D01*
X135511203Y-96100000D01*
X135515001Y-96138563D01*
X135515001Y-97198526D01*
X135353368Y-97306525D01*
X135146525Y-97513368D01*
X135030000Y-97687760D01*
X134913475Y-97513368D01*
X134706632Y-97306525D01*
X134545000Y-97198526D01*
X134545000Y-96798552D01*
X134548797Y-96759999D01*
X134545000Y-96721446D01*
X134545000Y-96721439D01*
X134533641Y-96606113D01*
X134488754Y-96458140D01*
X134415862Y-96321767D01*
X134317764Y-96202236D01*
X134287815Y-96177657D01*
X133485000Y-95374843D01*
X133485000Y-93289231D01*
X133529013Y-93265706D01*
X133755134Y-93080134D01*
X133807223Y-93016663D01*
X133861595Y-93118386D01*
X133972038Y-93252962D01*
X134106614Y-93363405D01*
X134260150Y-93445472D01*
X134426746Y-93496008D01*
X134600000Y-93513072D01*
X135800000Y-93513072D01*
X135973254Y-93496008D01*
X136139850Y-93445472D01*
X136293386Y-93363405D01*
X136427962Y-93252962D01*
X136538405Y-93118386D01*
X136620472Y-92964850D01*
X136671008Y-92798254D01*
X136688072Y-92625000D01*
X136688072Y-91175000D01*
X136671008Y-91001746D01*
X136620472Y-90835150D01*
X136538405Y-90681614D01*
X136427962Y-90547038D01*
X136293386Y-90436595D01*
X136139850Y-90354528D01*
X135973254Y-90303992D01*
X135800000Y-90286928D01*
X134600000Y-90286928D01*
X134426746Y-90303992D01*
X134260150Y-90354528D01*
X134106614Y-90436595D01*
X133972038Y-90547038D01*
X133861595Y-90681614D01*
X133807223Y-90783337D01*
X133755134Y-90719866D01*
X133529014Y-90534294D01*
X133271034Y-90396401D01*
X132991111Y-90311487D01*
X132700000Y-90282815D01*
X132408890Y-90311487D01*
X132128967Y-90396401D01*
X131870987Y-90534294D01*
X131644866Y-90719866D01*
X131459294Y-90945986D01*
X131450000Y-90963374D01*
X131440706Y-90945986D01*
X131255134Y-90719866D01*
X131029014Y-90534294D01*
X130771034Y-90396401D01*
X130491111Y-90311487D01*
X130200000Y-90282815D01*
X129908890Y-90311487D01*
X129628967Y-90396401D01*
X129370987Y-90534294D01*
X129144866Y-90719866D01*
X128959294Y-90945986D01*
X128950000Y-90963374D01*
X128940706Y-90945986D01*
X128755134Y-90719866D01*
X128529014Y-90534294D01*
X128271034Y-90396401D01*
X127991111Y-90311487D01*
X127700000Y-90282815D01*
X127408890Y-90311487D01*
X127128967Y-90396401D01*
X126870987Y-90534294D01*
X126644866Y-90719866D01*
X126459294Y-90945986D01*
X126445538Y-90971722D01*
X126289049Y-90765571D01*
X126071193Y-90572504D01*
X125819858Y-90425648D01*
X125556890Y-90333524D01*
X125327000Y-90454845D01*
X125327000Y-91773000D01*
X125347000Y-91773000D01*
X125347000Y-92027000D01*
X125327000Y-92027000D01*
X125327000Y-93345155D01*
X125556890Y-93466476D01*
X125819858Y-93374352D01*
X126071193Y-93227496D01*
X126289049Y-93034429D01*
X126445538Y-92828278D01*
X126459294Y-92854013D01*
X126644866Y-93080134D01*
X126870986Y-93265706D01*
X126915001Y-93289232D01*
X126915000Y-94974842D01*
X126472185Y-95417658D01*
X126442237Y-95442236D01*
X126417659Y-95472184D01*
X126417655Y-95472188D01*
X126393305Y-95501859D01*
X126344139Y-95561767D01*
X126322710Y-95601859D01*
X126271246Y-95698141D01*
X126226359Y-95846114D01*
X126211203Y-96000000D01*
X126215001Y-96038563D01*
X126215000Y-100161447D01*
X126211203Y-100200000D01*
X126215000Y-100238553D01*
X126215000Y-100238560D01*
X126226359Y-100353886D01*
X126271246Y-100501859D01*
X126344138Y-100638232D01*
X126442236Y-100757764D01*
X126472190Y-100782347D01*
X127217653Y-101527810D01*
X127242236Y-101557764D01*
X127335326Y-101634162D01*
X127364010Y-101703411D01*
X127526525Y-101946632D01*
X127733368Y-102153475D01*
X127976589Y-102315990D01*
X128246842Y-102427932D01*
X128533740Y-102485000D01*
X128826260Y-102485000D01*
X129113158Y-102427932D01*
X129383411Y-102315990D01*
X129626632Y-102153475D01*
X129833475Y-101946632D01*
X129950000Y-101772240D01*
X130066525Y-101946632D01*
X130273368Y-102153475D01*
X130516589Y-102315990D01*
X130786842Y-102427932D01*
X131073740Y-102485000D01*
X131366260Y-102485000D01*
X131653158Y-102427932D01*
X131923411Y-102315990D01*
X132166632Y-102153475D01*
X132373475Y-101946632D01*
X132490000Y-101772240D01*
X132606525Y-101946632D01*
X132813368Y-102153475D01*
X133056589Y-102315990D01*
X133326842Y-102427932D01*
X133613740Y-102485000D01*
X133906260Y-102485000D01*
X134193158Y-102427932D01*
X134463411Y-102315990D01*
X134706632Y-102153475D01*
X134913475Y-101946632D01*
X135035195Y-101764466D01*
X135104822Y-101881355D01*
X135299731Y-102097588D01*
X135533080Y-102271641D01*
X135795901Y-102396825D01*
X135943110Y-102441476D01*
X136173000Y-102320155D01*
X136173000Y-101127000D01*
X136153000Y-101127000D01*
X136153000Y-100873000D01*
X136173000Y-100873000D01*
X136173000Y-100853000D01*
X136427000Y-100853000D01*
X136427000Y-100873000D01*
X136447000Y-100873000D01*
X136447000Y-101127000D01*
X136427000Y-101127000D01*
X136427000Y-102320155D01*
X136656890Y-102441476D01*
X136804099Y-102396825D01*
X137066920Y-102271641D01*
X137300269Y-102097588D01*
X137495178Y-101881355D01*
X137564805Y-101764466D01*
X137686525Y-101946632D01*
X137893368Y-102153475D01*
X138136589Y-102315990D01*
X138406842Y-102427932D01*
X138693740Y-102485000D01*
X138986260Y-102485000D01*
X139273158Y-102427932D01*
X139543411Y-102315990D01*
X139786632Y-102153475D01*
X139993475Y-101946632D01*
X140115195Y-101764466D01*
X140184822Y-101881355D01*
X140379731Y-102097588D01*
X140613080Y-102271641D01*
X140875901Y-102396825D01*
X141023110Y-102441476D01*
X141253000Y-102320155D01*
X141253000Y-101127000D01*
X141233000Y-101127000D01*
X141233000Y-100873000D01*
X141253000Y-100873000D01*
X141253000Y-100853000D01*
X141507000Y-100853000D01*
X141507000Y-100873000D01*
X141527000Y-100873000D01*
X141527000Y-101127000D01*
X141507000Y-101127000D01*
X141507000Y-102320155D01*
X141736890Y-102441476D01*
X141884099Y-102396825D01*
X142146920Y-102271641D01*
X142380269Y-102097588D01*
X142575178Y-101881355D01*
X142644805Y-101764466D01*
X142766525Y-101946632D01*
X142973368Y-102153475D01*
X143216589Y-102315990D01*
X143486842Y-102427932D01*
X143773740Y-102485000D01*
X144066260Y-102485000D01*
X144353158Y-102427932D01*
X144623411Y-102315990D01*
X144866632Y-102153475D01*
X145073475Y-101946632D01*
X145190000Y-101772240D01*
X145306525Y-101946632D01*
X145513368Y-102153475D01*
X145756589Y-102315990D01*
X146026842Y-102427932D01*
X146313740Y-102485000D01*
X146606260Y-102485000D01*
X146893158Y-102427932D01*
X147163411Y-102315990D01*
X147406632Y-102153475D01*
X147613475Y-101946632D01*
X147730000Y-101772240D01*
X147846525Y-101946632D01*
X148053368Y-102153475D01*
X148296589Y-102315990D01*
X148566842Y-102427932D01*
X148853740Y-102485000D01*
X149146260Y-102485000D01*
X149433158Y-102427932D01*
X149703411Y-102315990D01*
X149946632Y-102153475D01*
X150153475Y-101946632D01*
X150270000Y-101772240D01*
X150386525Y-101946632D01*
X150593368Y-102153475D01*
X150836589Y-102315990D01*
X151106842Y-102427932D01*
X151393740Y-102485000D01*
X151686260Y-102485000D01*
X151973158Y-102427932D01*
X152243411Y-102315990D01*
X152486632Y-102153475D01*
X152693475Y-101946632D01*
X152815195Y-101764466D01*
X152884822Y-101881355D01*
X153079731Y-102097588D01*
X153313080Y-102271641D01*
X153575901Y-102396825D01*
X153723110Y-102441476D01*
X153953000Y-102320155D01*
X153953000Y-101127000D01*
X153933000Y-101127000D01*
X153933000Y-100873000D01*
X153953000Y-100873000D01*
X153953000Y-100853000D01*
X154207000Y-100853000D01*
X154207000Y-100873000D01*
X154227000Y-100873000D01*
X154227000Y-101127000D01*
X154207000Y-101127000D01*
X154207000Y-102320155D01*
X154436890Y-102441476D01*
X154584099Y-102396825D01*
X154846920Y-102271641D01*
X155080269Y-102097588D01*
X155275178Y-101881355D01*
X155344805Y-101764466D01*
X155466525Y-101946632D01*
X155673368Y-102153475D01*
X155916589Y-102315990D01*
X156186842Y-102427932D01*
X156473740Y-102485000D01*
X156766260Y-102485000D01*
X157053158Y-102427932D01*
X157323411Y-102315990D01*
X157566632Y-102153475D01*
X157773475Y-101946632D01*
X157890000Y-101772240D01*
X158006525Y-101946632D01*
X158213368Y-102153475D01*
X158456589Y-102315990D01*
X158726842Y-102427932D01*
X159013740Y-102485000D01*
X159306260Y-102485000D01*
X159593158Y-102427932D01*
X159863411Y-102315990D01*
X160106632Y-102153475D01*
X160313475Y-101946632D01*
X160435195Y-101764466D01*
X160504822Y-101881355D01*
X160699731Y-102097588D01*
X160933080Y-102271641D01*
X161195901Y-102396825D01*
X161343110Y-102441476D01*
X161573000Y-102320155D01*
X161573000Y-101127000D01*
X161553000Y-101127000D01*
X161553000Y-100873000D01*
X161573000Y-100873000D01*
X161573000Y-100853000D01*
X161827000Y-100853000D01*
X161827000Y-100873000D01*
X161847000Y-100873000D01*
X161847000Y-101127000D01*
X161827000Y-101127000D01*
X161827000Y-102320155D01*
X162056890Y-102441476D01*
X162204099Y-102396825D01*
X162466920Y-102271641D01*
X162700269Y-102097588D01*
X162895178Y-101881355D01*
X162964805Y-101764466D01*
X163086525Y-101946632D01*
X163293368Y-102153475D01*
X163536589Y-102315990D01*
X163806842Y-102427932D01*
X164093740Y-102485000D01*
X164386260Y-102485000D01*
X164673158Y-102427932D01*
X164943411Y-102315990D01*
X165186632Y-102153475D01*
X165393475Y-101946632D01*
X165510000Y-101772240D01*
X165626525Y-101946632D01*
X165833368Y-102153475D01*
X166076589Y-102315990D01*
X166346842Y-102427932D01*
X166633740Y-102485000D01*
X166926260Y-102485000D01*
X167213158Y-102427932D01*
X167483411Y-102315990D01*
X167726632Y-102153475D01*
X167933475Y-101946632D01*
X168050000Y-101772240D01*
X168166525Y-101946632D01*
X168373368Y-102153475D01*
X168616589Y-102315990D01*
X168886842Y-102427932D01*
X169173740Y-102485000D01*
X169466260Y-102485000D01*
X169753158Y-102427932D01*
X170023411Y-102315990D01*
X170266632Y-102153475D01*
X170473475Y-101946632D01*
X170595195Y-101764466D01*
X170664822Y-101881355D01*
X170859731Y-102097588D01*
X171093080Y-102271641D01*
X171355901Y-102396825D01*
X171503110Y-102441476D01*
X171733000Y-102320155D01*
X171733000Y-101127000D01*
X171713000Y-101127000D01*
X171713000Y-100873000D01*
X171733000Y-100873000D01*
X171733000Y-100853000D01*
X171987000Y-100853000D01*
X171987000Y-100873000D01*
X172007000Y-100873000D01*
X172007000Y-101127000D01*
X171987000Y-101127000D01*
X171987000Y-102320155D01*
X172216890Y-102441476D01*
X172364099Y-102396825D01*
X172626920Y-102271641D01*
X172860269Y-102097588D01*
X173055178Y-101881355D01*
X173124805Y-101764466D01*
X173246525Y-101946632D01*
X173453368Y-102153475D01*
X173696589Y-102315990D01*
X173966842Y-102427932D01*
X174253740Y-102485000D01*
X174546260Y-102485000D01*
X174833158Y-102427932D01*
X175103411Y-102315990D01*
X175346632Y-102153475D01*
X175365107Y-102135000D01*
X175974893Y-102135000D01*
X175993368Y-102153475D01*
X176236589Y-102315990D01*
X176506842Y-102427932D01*
X176793740Y-102485000D01*
X177086260Y-102485000D01*
X177373158Y-102427932D01*
X177643411Y-102315990D01*
X177886632Y-102153475D01*
X177905107Y-102135000D01*
X178086330Y-102135000D01*
X178142081Y-102140491D01*
X178197832Y-102135000D01*
X178197833Y-102135000D01*
X178364580Y-102118577D01*
X178578528Y-102053676D01*
X178775704Y-101948284D01*
X178948530Y-101806449D01*
X178984077Y-101763135D01*
X183388141Y-97359072D01*
X183431449Y-97323530D01*
X183573284Y-97150704D01*
X183678676Y-96953528D01*
X183743577Y-96739580D01*
X183760000Y-96572833D01*
X183760000Y-96572832D01*
X183765491Y-96517081D01*
X183760000Y-96461329D01*
X183760000Y-92480745D01*
X183765490Y-92425001D01*
X183760000Y-92369257D01*
X183760000Y-60080752D01*
X183765491Y-60025000D01*
X183743577Y-59802501D01*
X183678676Y-59588553D01*
X183573284Y-59391377D01*
X183466989Y-59261856D01*
X183466987Y-59261854D01*
X183431449Y-59218551D01*
X183388146Y-59183013D01*
X181941995Y-57736864D01*
X181906449Y-57693551D01*
X181733623Y-57551716D01*
X181536447Y-57446324D01*
X181322499Y-57381423D01*
X181155752Y-57365000D01*
X181155751Y-57365000D01*
X181100000Y-57359509D01*
X181044249Y-57365000D01*
X170754253Y-57365000D01*
X170677962Y-57272038D01*
X170543386Y-57161595D01*
X170441407Y-57107086D01*
X170441795Y-57106802D01*
X170638664Y-56892046D01*
X170789854Y-56643009D01*
X170889554Y-56369261D01*
X170891476Y-56356890D01*
X170770155Y-56127000D01*
X169427000Y-56127000D01*
X169427000Y-56147000D01*
X169173000Y-56147000D01*
X169173000Y-56127000D01*
X167829845Y-56127000D01*
X167708524Y-56356890D01*
X167710446Y-56369261D01*
X167810146Y-56643009D01*
X167961336Y-56892046D01*
X168158205Y-57106802D01*
X168158593Y-57107086D01*
X168056614Y-57161595D01*
X167922038Y-57272038D01*
X167811595Y-57406614D01*
X167780387Y-57465000D01*
X165719613Y-57465000D01*
X165688405Y-57406614D01*
X165577962Y-57272038D01*
X165443386Y-57161595D01*
X165341407Y-57107086D01*
X165341795Y-57106802D01*
X165538664Y-56892046D01*
X165689854Y-56643009D01*
X165789554Y-56369261D01*
X165791476Y-56356890D01*
X165670155Y-56127000D01*
X164327000Y-56127000D01*
X164327000Y-56147000D01*
X164073000Y-56147000D01*
X164073000Y-56127000D01*
X162729845Y-56127000D01*
X162608524Y-56356890D01*
X162610446Y-56369261D01*
X162710146Y-56643009D01*
X162861336Y-56892046D01*
X163058205Y-57106802D01*
X163058593Y-57107086D01*
X162956614Y-57161595D01*
X162822038Y-57272038D01*
X162711595Y-57406614D01*
X162680387Y-57465000D01*
X159654253Y-57465000D01*
X159577962Y-57372038D01*
X159443386Y-57261595D01*
X159341407Y-57207086D01*
X159341795Y-57206802D01*
X159538664Y-56992046D01*
X159689854Y-56743009D01*
X159789554Y-56469261D01*
X159791476Y-56456890D01*
X159670155Y-56227000D01*
X158327000Y-56227000D01*
X158327000Y-56247000D01*
X158073000Y-56247000D01*
X158073000Y-56227000D01*
X156729845Y-56227000D01*
X156608524Y-56456890D01*
X156610446Y-56469261D01*
X156710146Y-56743009D01*
X156861336Y-56992046D01*
X157058205Y-57206802D01*
X157058593Y-57207086D01*
X156956614Y-57261595D01*
X156822038Y-57372038D01*
X156745747Y-57465000D01*
X153554253Y-57465000D01*
X153477962Y-57372038D01*
X153343386Y-57261595D01*
X153241407Y-57207086D01*
X153241795Y-57206802D01*
X153438664Y-56992046D01*
X153589854Y-56743009D01*
X153689554Y-56469261D01*
X153691476Y-56456890D01*
X153570155Y-56227000D01*
X152227000Y-56227000D01*
X152227000Y-56247000D01*
X151973000Y-56247000D01*
X151973000Y-56227000D01*
X150629845Y-56227000D01*
X150508524Y-56456890D01*
X150510446Y-56469261D01*
X150610146Y-56743009D01*
X150761336Y-56992046D01*
X150958205Y-57206802D01*
X150958593Y-57207086D01*
X150856614Y-57261595D01*
X150722038Y-57372038D01*
X150611595Y-57506614D01*
X150529528Y-57660150D01*
X150478992Y-57826746D01*
X150461928Y-58000000D01*
X150461928Y-59200000D01*
X150478992Y-59373254D01*
X150529528Y-59539850D01*
X150611595Y-59693386D01*
X150665001Y-59758462D01*
X150665000Y-63644248D01*
X150659509Y-63700000D01*
X150665001Y-63755762D01*
X150665000Y-68470746D01*
X150572038Y-68547038D01*
X150461595Y-68681614D01*
X150379528Y-68835150D01*
X150328992Y-69001746D01*
X150311928Y-69175000D01*
X150311928Y-70625000D01*
X150328992Y-70798254D01*
X150379528Y-70964850D01*
X150461595Y-71118386D01*
X150572038Y-71252962D01*
X150706614Y-71363405D01*
X150765001Y-71394614D01*
X150765001Y-73505387D01*
X150706614Y-73536595D01*
X150572038Y-73647038D01*
X150461595Y-73781614D01*
X150379528Y-73935150D01*
X150328992Y-74101746D01*
X150311928Y-74275000D01*
X150311928Y-75725000D01*
X150328992Y-75898254D01*
X150379528Y-76064850D01*
X150461595Y-76218386D01*
X150572038Y-76352962D01*
X150706614Y-76463405D01*
X150765000Y-76494613D01*
X150765000Y-78605387D01*
X150706614Y-78636595D01*
X150572038Y-78747038D01*
X150461595Y-78881614D01*
X150379528Y-79035150D01*
X150328992Y-79201746D01*
X150311928Y-79375000D01*
X150311928Y-80825000D01*
X150328992Y-80998254D01*
X150379528Y-81164850D01*
X150461595Y-81318386D01*
X150572038Y-81452962D01*
X150706614Y-81563405D01*
X150860150Y-81645472D01*
X151026746Y-81696008D01*
X151200000Y-81713072D01*
X152400000Y-81713072D01*
X152573254Y-81696008D01*
X152739850Y-81645472D01*
X152893386Y-81563405D01*
X153027962Y-81452962D01*
X153138405Y-81318386D01*
X153192777Y-81216663D01*
X153244866Y-81280134D01*
X153470987Y-81465706D01*
X153728967Y-81603599D01*
X154008890Y-81688513D01*
X154300000Y-81717185D01*
X154591111Y-81688513D01*
X154871034Y-81603599D01*
X155129014Y-81465706D01*
X155355134Y-81280134D01*
X155540706Y-81054014D01*
X155550000Y-81036626D01*
X155559294Y-81054014D01*
X155744866Y-81280134D01*
X155970987Y-81465706D01*
X156228967Y-81603599D01*
X156508890Y-81688513D01*
X156800000Y-81717185D01*
X157091111Y-81688513D01*
X157371034Y-81603599D01*
X157629014Y-81465706D01*
X157855134Y-81280134D01*
X158040706Y-81054014D01*
X158054462Y-81028278D01*
X158210951Y-81234429D01*
X158428807Y-81427496D01*
X158680142Y-81574352D01*
X158943110Y-81666476D01*
X159173000Y-81545155D01*
X159173000Y-80227000D01*
X159427000Y-80227000D01*
X159427000Y-81545155D01*
X159656890Y-81666476D01*
X159919858Y-81574352D01*
X160171193Y-81427496D01*
X160389049Y-81234429D01*
X160565053Y-81002570D01*
X160692442Y-80740830D01*
X160766320Y-80459267D01*
X160626165Y-80227000D01*
X159427000Y-80227000D01*
X159173000Y-80227000D01*
X159153000Y-80227000D01*
X159153000Y-79973000D01*
X159173000Y-79973000D01*
X159173000Y-78654845D01*
X159427000Y-78654845D01*
X159427000Y-79973000D01*
X160626165Y-79973000D01*
X160766320Y-79740733D01*
X160692442Y-79459170D01*
X160565053Y-79197430D01*
X160389049Y-78965571D01*
X160171193Y-78772504D01*
X159919858Y-78625648D01*
X159656890Y-78533524D01*
X159427000Y-78654845D01*
X159173000Y-78654845D01*
X158943110Y-78533524D01*
X158680142Y-78625648D01*
X158428807Y-78772504D01*
X158210951Y-78965571D01*
X158054462Y-79171722D01*
X158040706Y-79145986D01*
X157855134Y-78919866D01*
X157629013Y-78734294D01*
X157371033Y-78596401D01*
X157091110Y-78511487D01*
X156800000Y-78482815D01*
X156508889Y-78511487D01*
X156228966Y-78596401D01*
X155970986Y-78734294D01*
X155744866Y-78919866D01*
X155559294Y-79145987D01*
X155550000Y-79163374D01*
X155540706Y-79145986D01*
X155355134Y-78919866D01*
X155129013Y-78734294D01*
X154871033Y-78596401D01*
X154591110Y-78511487D01*
X154300000Y-78482815D01*
X154008889Y-78511487D01*
X153728966Y-78596401D01*
X153470986Y-78734294D01*
X153244866Y-78919866D01*
X153192777Y-78983337D01*
X153138405Y-78881614D01*
X153035000Y-78755614D01*
X153035000Y-76344386D01*
X153138405Y-76218386D01*
X153192777Y-76116663D01*
X153244866Y-76180134D01*
X153470987Y-76365706D01*
X153728967Y-76503599D01*
X154008890Y-76588513D01*
X154300000Y-76617185D01*
X154591111Y-76588513D01*
X154871034Y-76503599D01*
X155129014Y-76365706D01*
X155355134Y-76180134D01*
X155540706Y-75954014D01*
X155550000Y-75936626D01*
X155559294Y-75954014D01*
X155744866Y-76180134D01*
X155970987Y-76365706D01*
X156228967Y-76503599D01*
X156508890Y-76588513D01*
X156800000Y-76617185D01*
X157091111Y-76588513D01*
X157371034Y-76503599D01*
X157629014Y-76365706D01*
X157855134Y-76180134D01*
X158040706Y-75954014D01*
X158054462Y-75928278D01*
X158210951Y-76134429D01*
X158428807Y-76327496D01*
X158680142Y-76474352D01*
X158943110Y-76566476D01*
X159173000Y-76445155D01*
X159173000Y-75127000D01*
X159427000Y-75127000D01*
X159427000Y-76445155D01*
X159656890Y-76566476D01*
X159919858Y-76474352D01*
X160171193Y-76327496D01*
X160389049Y-76134429D01*
X160565053Y-75902570D01*
X160692442Y-75640830D01*
X160766320Y-75359267D01*
X160626165Y-75127000D01*
X159427000Y-75127000D01*
X159173000Y-75127000D01*
X159153000Y-75127000D01*
X159153000Y-74873000D01*
X159173000Y-74873000D01*
X159173000Y-73554845D01*
X159427000Y-73554845D01*
X159427000Y-74873000D01*
X160626165Y-74873000D01*
X160766320Y-74640733D01*
X160692442Y-74359170D01*
X160565053Y-74097430D01*
X160389049Y-73865571D01*
X160171193Y-73672504D01*
X159919858Y-73525648D01*
X159656890Y-73433524D01*
X159427000Y-73554845D01*
X159173000Y-73554845D01*
X158943110Y-73433524D01*
X158680142Y-73525648D01*
X158428807Y-73672504D01*
X158210951Y-73865571D01*
X158054462Y-74071722D01*
X158040706Y-74045986D01*
X157855134Y-73819866D01*
X157629013Y-73634294D01*
X157371033Y-73496401D01*
X157091110Y-73411487D01*
X156800000Y-73382815D01*
X156508889Y-73411487D01*
X156228966Y-73496401D01*
X155970986Y-73634294D01*
X155744866Y-73819866D01*
X155559294Y-74045987D01*
X155550000Y-74063374D01*
X155540706Y-74045986D01*
X155355134Y-73819866D01*
X155129013Y-73634294D01*
X154871033Y-73496401D01*
X154591110Y-73411487D01*
X154300000Y-73382815D01*
X154008889Y-73411487D01*
X153728966Y-73496401D01*
X153470986Y-73634294D01*
X153244866Y-73819866D01*
X153192777Y-73883337D01*
X153138405Y-73781614D01*
X153035000Y-73655614D01*
X153035000Y-71244386D01*
X153138405Y-71118386D01*
X153192777Y-71016663D01*
X153244866Y-71080134D01*
X153470987Y-71265706D01*
X153728967Y-71403599D01*
X154008890Y-71488513D01*
X154300000Y-71517185D01*
X154591111Y-71488513D01*
X154871034Y-71403599D01*
X155129014Y-71265706D01*
X155355134Y-71080134D01*
X155540706Y-70854014D01*
X155550000Y-70836626D01*
X155559294Y-70854014D01*
X155744866Y-71080134D01*
X155970987Y-71265706D01*
X156228967Y-71403599D01*
X156508890Y-71488513D01*
X156800000Y-71517185D01*
X157091111Y-71488513D01*
X157371034Y-71403599D01*
X157629014Y-71265706D01*
X157855134Y-71080134D01*
X158040706Y-70854014D01*
X158054462Y-70828278D01*
X158210951Y-71034429D01*
X158428807Y-71227496D01*
X158680142Y-71374352D01*
X158943110Y-71466476D01*
X159173000Y-71345155D01*
X159173000Y-70027000D01*
X159427000Y-70027000D01*
X159427000Y-71345155D01*
X159656890Y-71466476D01*
X159919858Y-71374352D01*
X160171193Y-71227496D01*
X160389049Y-71034429D01*
X160565053Y-70802570D01*
X160692442Y-70540830D01*
X160766320Y-70259267D01*
X160626165Y-70027000D01*
X159427000Y-70027000D01*
X159173000Y-70027000D01*
X159153000Y-70027000D01*
X159153000Y-69773000D01*
X159173000Y-69773000D01*
X159173000Y-68454845D01*
X159427000Y-68454845D01*
X159427000Y-69773000D01*
X160626165Y-69773000D01*
X160766320Y-69540733D01*
X160692442Y-69259170D01*
X160565053Y-68997430D01*
X160389049Y-68765571D01*
X160171193Y-68572504D01*
X159919858Y-68425648D01*
X159656890Y-68333524D01*
X159427000Y-68454845D01*
X159173000Y-68454845D01*
X158943110Y-68333524D01*
X158680142Y-68425648D01*
X158428807Y-68572504D01*
X158210951Y-68765571D01*
X158054462Y-68971722D01*
X158040706Y-68945986D01*
X157935000Y-68817183D01*
X157935000Y-67979527D01*
X157964850Y-67970472D01*
X158118386Y-67888405D01*
X158252962Y-67777962D01*
X158363405Y-67643386D01*
X158445472Y-67489850D01*
X158496008Y-67323254D01*
X158513072Y-67150000D01*
X158513072Y-66225000D01*
X158496008Y-66051746D01*
X158445472Y-65885150D01*
X158363405Y-65731614D01*
X158252962Y-65597038D01*
X158118386Y-65486595D01*
X157964850Y-65404528D01*
X157798254Y-65353992D01*
X157625000Y-65336928D01*
X156375000Y-65336928D01*
X156201746Y-65353992D01*
X156035150Y-65404528D01*
X155881614Y-65486595D01*
X155747038Y-65597038D01*
X155712500Y-65639123D01*
X155677962Y-65597038D01*
X155543386Y-65486595D01*
X155389850Y-65404528D01*
X155223254Y-65353992D01*
X155050000Y-65336928D01*
X153800000Y-65336928D01*
X153626746Y-65353992D01*
X153460150Y-65404528D01*
X153306614Y-65486595D01*
X153172038Y-65597038D01*
X153061595Y-65731614D01*
X152979528Y-65885150D01*
X152935000Y-66031940D01*
X152935000Y-64835000D01*
X153211077Y-64835000D01*
X153306614Y-64913405D01*
X153460150Y-64995472D01*
X153626746Y-65046008D01*
X153800000Y-65063072D01*
X155050000Y-65063072D01*
X155223254Y-65046008D01*
X155389850Y-64995472D01*
X155543386Y-64913405D01*
X155638923Y-64835000D01*
X155786077Y-64835000D01*
X155881614Y-64913405D01*
X156035150Y-64995472D01*
X156201746Y-65046008D01*
X156375000Y-65063072D01*
X157625000Y-65063072D01*
X157798254Y-65046008D01*
X157964850Y-64995472D01*
X158118386Y-64913405D01*
X158252962Y-64802962D01*
X158363405Y-64668386D01*
X158445472Y-64514850D01*
X158496008Y-64348254D01*
X158513072Y-64175000D01*
X158513072Y-63250000D01*
X158496008Y-63076746D01*
X158445472Y-62910150D01*
X158363405Y-62756614D01*
X158252962Y-62622038D01*
X158118386Y-62511595D01*
X157964850Y-62429528D01*
X157798254Y-62378992D01*
X157625000Y-62361928D01*
X156375000Y-62361928D01*
X156201746Y-62378992D01*
X156035150Y-62429528D01*
X155881614Y-62511595D01*
X155816539Y-62565000D01*
X155608461Y-62565000D01*
X155543386Y-62511595D01*
X155389850Y-62429528D01*
X155223254Y-62378992D01*
X155050000Y-62361928D01*
X153800000Y-62361928D01*
X153626746Y-62378992D01*
X153460150Y-62429528D01*
X153306614Y-62511595D01*
X153241539Y-62565000D01*
X152935000Y-62565000D01*
X152935000Y-60079700D01*
X153023254Y-60071008D01*
X153189850Y-60020472D01*
X153343386Y-59938405D01*
X153477962Y-59827962D01*
X153554253Y-59735000D01*
X156745747Y-59735000D01*
X156822038Y-59827962D01*
X156956614Y-59938405D01*
X157110150Y-60020472D01*
X157276746Y-60071008D01*
X157450000Y-60088072D01*
X158950000Y-60088072D01*
X159123254Y-60071008D01*
X159289850Y-60020472D01*
X159443386Y-59938405D01*
X159577962Y-59827962D01*
X159654253Y-59735000D01*
X162830614Y-59735000D01*
X162956614Y-59838405D01*
X163110150Y-59920472D01*
X163276746Y-59971008D01*
X163450000Y-59988072D01*
X164293010Y-59988072D01*
X164366377Y-60048283D01*
X164563553Y-60153675D01*
X164777500Y-60218576D01*
X164999999Y-60240490D01*
X165222498Y-60218576D01*
X165436446Y-60153675D01*
X165633622Y-60048283D01*
X165806448Y-59906448D01*
X165947152Y-59735000D01*
X167930614Y-59735000D01*
X168056614Y-59838405D01*
X168210150Y-59920472D01*
X168376746Y-59971008D01*
X168550000Y-59988072D01*
X170050000Y-59988072D01*
X170223254Y-59971008D01*
X170389850Y-59920472D01*
X170543386Y-59838405D01*
X170677962Y-59727962D01*
X170754253Y-59635000D01*
X180629869Y-59635000D01*
X181490001Y-60495134D01*
X181490000Y-91305000D01*
X178058728Y-91305000D01*
X178104494Y-91280537D01*
X178201185Y-91201185D01*
X178280537Y-91104494D01*
X178339502Y-90994180D01*
X178375812Y-90874482D01*
X178388072Y-90750000D01*
X178388072Y-89050000D01*
X178375812Y-88925518D01*
X178339502Y-88805820D01*
X178280537Y-88695506D01*
X178201185Y-88598815D01*
X178104494Y-88519463D01*
X178023363Y-88476097D01*
X178018577Y-88427501D01*
X177953676Y-88213553D01*
X177921671Y-88153676D01*
X177848284Y-88016377D01*
X177706449Y-87843551D01*
X177663140Y-87808009D01*
X176191996Y-86336865D01*
X176156449Y-86293551D01*
X175983623Y-86151716D01*
X175786447Y-86046324D01*
X175572499Y-85981423D01*
X175405752Y-85965000D01*
X175405751Y-85965000D01*
X175350000Y-85959509D01*
X175294249Y-85965000D01*
X160400773Y-85965000D01*
X160372499Y-85956423D01*
X160150000Y-85934509D01*
X159927502Y-85956423D01*
X159899228Y-85965000D01*
X148770132Y-85965000D01*
X147535000Y-84729869D01*
X147535000Y-71855752D01*
X147540491Y-71800000D01*
X147518577Y-71577501D01*
X147453676Y-71363553D01*
X147348284Y-71166377D01*
X147241989Y-71036856D01*
X147241987Y-71036854D01*
X147206449Y-70993551D01*
X147163146Y-70958013D01*
X144241996Y-68036865D01*
X144206449Y-67993551D01*
X144033623Y-67851716D01*
X143836447Y-67746324D01*
X143622499Y-67681423D01*
X143455752Y-67665000D01*
X143455751Y-67665000D01*
X143400000Y-67659509D01*
X143344249Y-67665000D01*
X140285000Y-67665000D01*
X140285000Y-66854253D01*
X140377962Y-66777962D01*
X140488405Y-66643386D01*
X140570472Y-66489850D01*
X140621008Y-66323254D01*
X140638072Y-66150000D01*
X140638072Y-64650000D01*
X140621008Y-64476746D01*
X140570472Y-64310150D01*
X140488405Y-64156614D01*
X140377962Y-64022038D01*
X140285000Y-63945747D01*
X140285000Y-61004307D01*
X140377991Y-60927991D01*
X140488422Y-60793431D01*
X140570479Y-60639912D01*
X140621010Y-60473335D01*
X140638072Y-60300100D01*
X140638072Y-58799900D01*
X140621010Y-58626665D01*
X140570479Y-58460088D01*
X140488422Y-58306569D01*
X140377991Y-58172009D01*
X140243431Y-58061578D01*
X140089912Y-57979521D01*
X139923335Y-57928990D01*
X139750100Y-57911928D01*
X138549900Y-57911928D01*
X138376665Y-57928990D01*
X138210088Y-57979521D01*
X138056569Y-58061578D01*
X137922009Y-58172009D01*
X137811578Y-58306569D01*
X137757063Y-58408561D01*
X137756802Y-58408205D01*
X137542046Y-58211336D01*
X137293009Y-58060146D01*
X137019261Y-57960446D01*
X137006890Y-57958524D01*
X136777000Y-58079845D01*
X136777000Y-59423000D01*
X136797000Y-59423000D01*
X136797000Y-59677000D01*
X136777000Y-59677000D01*
X136777000Y-61020155D01*
X137006890Y-61141476D01*
X137019261Y-61139554D01*
X137293009Y-61039854D01*
X137542046Y-60888664D01*
X137756802Y-60691795D01*
X137757063Y-60691439D01*
X137811578Y-60793431D01*
X137922009Y-60927991D01*
X138015000Y-61004307D01*
X138015001Y-63945746D01*
X137922038Y-64022038D01*
X137811595Y-64156614D01*
X137757086Y-64258593D01*
X137756802Y-64258205D01*
X137542046Y-64061336D01*
X137293009Y-63910146D01*
X137019261Y-63810446D01*
X137006890Y-63808524D01*
X136777000Y-63929845D01*
X136777000Y-65273000D01*
X136797000Y-65273000D01*
X136797000Y-65527000D01*
X136777000Y-65527000D01*
X136777000Y-66870155D01*
X137006890Y-66991476D01*
X137019261Y-66989554D01*
X137293009Y-66889854D01*
X137542046Y-66738664D01*
X137756802Y-66541795D01*
X137757086Y-66541407D01*
X137811595Y-66643386D01*
X137922038Y-66777962D01*
X138015000Y-66854254D01*
X138015001Y-67565000D01*
X131970132Y-67565000D01*
X131303318Y-66898187D01*
X131327962Y-66877962D01*
X131438405Y-66743386D01*
X131520472Y-66589850D01*
X131571008Y-66423254D01*
X131588072Y-66250000D01*
X131588072Y-65759742D01*
X135178715Y-65759742D01*
X135247904Y-66042745D01*
X135370975Y-66306812D01*
X135543198Y-66541795D01*
X135757954Y-66738664D01*
X136006991Y-66889854D01*
X136280739Y-66989554D01*
X136293110Y-66991476D01*
X136523000Y-66870155D01*
X136523000Y-65527000D01*
X135322768Y-65527000D01*
X135178715Y-65759742D01*
X131588072Y-65759742D01*
X131588072Y-65040258D01*
X135178715Y-65040258D01*
X135322768Y-65273000D01*
X136523000Y-65273000D01*
X136523000Y-63929845D01*
X136293110Y-63808524D01*
X136280739Y-63810446D01*
X136006991Y-63910146D01*
X135757954Y-64061336D01*
X135543198Y-64258205D01*
X135370975Y-64493188D01*
X135247904Y-64757255D01*
X135178715Y-65040258D01*
X131588072Y-65040258D01*
X131588072Y-64750000D01*
X131571008Y-64576746D01*
X131520472Y-64410150D01*
X131438405Y-64256614D01*
X131327962Y-64122038D01*
X131235000Y-64045747D01*
X131235000Y-61104253D01*
X131327962Y-61027962D01*
X131438405Y-60893386D01*
X131520472Y-60739850D01*
X131571008Y-60573254D01*
X131588072Y-60400000D01*
X131588072Y-59909742D01*
X135178715Y-59909742D01*
X135247904Y-60192745D01*
X135370975Y-60456812D01*
X135543198Y-60691795D01*
X135757954Y-60888664D01*
X136006991Y-61039854D01*
X136280739Y-61139554D01*
X136293110Y-61141476D01*
X136523000Y-61020155D01*
X136523000Y-59677000D01*
X135322768Y-59677000D01*
X135178715Y-59909742D01*
X131588072Y-59909742D01*
X131588072Y-59190258D01*
X135178715Y-59190258D01*
X135322768Y-59423000D01*
X136523000Y-59423000D01*
X136523000Y-58079845D01*
X136293110Y-57958524D01*
X136280739Y-57960446D01*
X136006991Y-58060146D01*
X135757954Y-58211336D01*
X135543198Y-58408205D01*
X135370975Y-58643188D01*
X135247904Y-58907255D01*
X135178715Y-59190258D01*
X131588072Y-59190258D01*
X131588072Y-58900000D01*
X131571008Y-58726746D01*
X131520472Y-58560150D01*
X131438405Y-58406614D01*
X131327962Y-58272038D01*
X131193386Y-58161595D01*
X131039850Y-58079528D01*
X130873254Y-58028992D01*
X130700000Y-58011928D01*
X129500000Y-58011928D01*
X129326746Y-58028992D01*
X129160150Y-58079528D01*
X129006614Y-58161595D01*
X128872038Y-58272038D01*
X128761595Y-58406614D01*
X128707086Y-58508593D01*
X128706802Y-58508205D01*
X128492046Y-58311336D01*
X128243009Y-58160146D01*
X127969261Y-58060446D01*
X127956890Y-58058524D01*
X127727000Y-58179845D01*
X127727000Y-59523000D01*
X127747000Y-59523000D01*
X127747000Y-59777000D01*
X127727000Y-59777000D01*
X127727000Y-61120155D01*
X127956890Y-61241476D01*
X127969261Y-61239554D01*
X128243009Y-61139854D01*
X128492046Y-60988664D01*
X128706802Y-60791795D01*
X128707086Y-60791407D01*
X128761595Y-60893386D01*
X128872038Y-61027962D01*
X128965000Y-61104254D01*
X128965001Y-64045746D01*
X128872038Y-64122038D01*
X128761595Y-64256614D01*
X128707086Y-64358593D01*
X128706802Y-64358205D01*
X128492046Y-64161336D01*
X128243009Y-64010146D01*
X127969261Y-63910446D01*
X127956890Y-63908524D01*
X127727000Y-64029845D01*
X127727000Y-65373000D01*
X127747000Y-65373000D01*
X127747000Y-65627000D01*
X127727000Y-65627000D01*
X127727000Y-66970155D01*
X127956890Y-67091476D01*
X127969261Y-67089554D01*
X128243009Y-66989854D01*
X128492046Y-66838664D01*
X128706802Y-66641795D01*
X128707086Y-66641407D01*
X128761595Y-66743386D01*
X128872038Y-66877962D01*
X128965000Y-66954253D01*
X128965000Y-67244249D01*
X128959509Y-67300000D01*
X128981423Y-67522498D01*
X129046324Y-67736446D01*
X129068515Y-67777962D01*
X129151717Y-67933623D01*
X129293552Y-68106449D01*
X129336860Y-68141991D01*
X130658008Y-69463140D01*
X130693551Y-69506449D01*
X130866377Y-69648284D01*
X131053463Y-69748283D01*
X131063553Y-69753676D01*
X131277501Y-69818577D01*
X131500000Y-69840491D01*
X131555751Y-69835000D01*
X138528612Y-69835000D01*
X138563553Y-69853676D01*
X138777501Y-69918577D01*
X138944248Y-69935000D01*
X138944249Y-69935000D01*
X139000000Y-69940491D01*
X139055751Y-69935000D01*
X142929869Y-69935000D01*
X145265001Y-72270134D01*
X145265000Y-85144249D01*
X145259509Y-85200000D01*
X145265000Y-85255751D01*
X145281423Y-85422498D01*
X145346324Y-85636446D01*
X145451716Y-85833623D01*
X145593551Y-86006449D01*
X145636865Y-86041996D01*
X147458009Y-87863141D01*
X147493551Y-87906449D01*
X147633431Y-88021246D01*
X147666377Y-88048284D01*
X147863553Y-88153676D01*
X148077501Y-88218577D01*
X148300000Y-88240491D01*
X148355752Y-88235000D01*
X159015001Y-88235000D01*
X159015000Y-94459868D01*
X156499869Y-96975000D01*
X156473740Y-96975000D01*
X156186842Y-97032068D01*
X155916589Y-97144010D01*
X155673368Y-97306525D01*
X155466525Y-97513368D01*
X155350000Y-97687760D01*
X155233475Y-97513368D01*
X155026632Y-97306525D01*
X154783411Y-97144010D01*
X154513158Y-97032068D01*
X154226260Y-96975000D01*
X153933740Y-96975000D01*
X153646842Y-97032068D01*
X153376589Y-97144010D01*
X153133368Y-97306525D01*
X152926525Y-97513368D01*
X152810000Y-97687760D01*
X152693475Y-97513368D01*
X152675000Y-97494893D01*
X152675000Y-95390131D01*
X155001989Y-93063144D01*
X155020204Y-93040949D01*
X155061595Y-93118386D01*
X155172038Y-93252962D01*
X155306614Y-93363405D01*
X155460150Y-93445472D01*
X155626746Y-93496008D01*
X155800000Y-93513072D01*
X157000000Y-93513072D01*
X157173254Y-93496008D01*
X157339850Y-93445472D01*
X157493386Y-93363405D01*
X157627962Y-93252962D01*
X157738405Y-93118386D01*
X157820472Y-92964850D01*
X157871008Y-92798254D01*
X157888072Y-92625000D01*
X157888072Y-91175000D01*
X157871008Y-91001746D01*
X157820472Y-90835150D01*
X157738405Y-90681614D01*
X157627962Y-90547038D01*
X157493386Y-90436595D01*
X157339850Y-90354528D01*
X157173254Y-90303992D01*
X157000000Y-90286928D01*
X155800000Y-90286928D01*
X155626746Y-90303992D01*
X155460150Y-90354528D01*
X155306614Y-90436595D01*
X155172038Y-90547038D01*
X155061595Y-90681614D01*
X155007223Y-90783337D01*
X154955134Y-90719866D01*
X154729014Y-90534294D01*
X154471034Y-90396401D01*
X154191111Y-90311487D01*
X153900000Y-90282815D01*
X153608890Y-90311487D01*
X153328967Y-90396401D01*
X153070987Y-90534294D01*
X152844866Y-90719866D01*
X152659294Y-90945986D01*
X152650000Y-90963374D01*
X152640706Y-90945986D01*
X152455134Y-90719866D01*
X152229014Y-90534294D01*
X151971034Y-90396401D01*
X151691111Y-90311487D01*
X151400000Y-90282815D01*
X151108890Y-90311487D01*
X150828967Y-90396401D01*
X150570987Y-90534294D01*
X150344866Y-90719866D01*
X150159294Y-90945986D01*
X150150000Y-90963374D01*
X150140706Y-90945986D01*
X149955134Y-90719866D01*
X149729014Y-90534294D01*
X149471034Y-90396401D01*
X149191111Y-90311487D01*
X148900000Y-90282815D01*
X148608890Y-90311487D01*
X148328967Y-90396401D01*
X148070987Y-90534294D01*
X147844866Y-90719866D01*
X147659294Y-90945986D01*
X147645538Y-90971722D01*
X147489049Y-90765571D01*
X147271193Y-90572504D01*
X147019858Y-90425648D01*
X146756890Y-90333524D01*
X146527000Y-90454845D01*
X146527000Y-91773000D01*
X146547000Y-91773000D01*
X146547000Y-92027000D01*
X146527000Y-92027000D01*
X146527000Y-93345155D01*
X146756890Y-93466476D01*
X147019858Y-93374352D01*
X147271193Y-93227496D01*
X147489049Y-93034429D01*
X147645538Y-92828278D01*
X147659294Y-92854013D01*
X147844866Y-93080134D01*
X147865001Y-93096658D01*
X147865000Y-97494893D01*
X147846525Y-97513368D01*
X147724805Y-97695534D01*
X147655178Y-97578645D01*
X147460269Y-97362412D01*
X147226920Y-97188359D01*
X146964099Y-97063175D01*
X146816890Y-97018524D01*
X146587000Y-97139845D01*
X146587000Y-98333000D01*
X146607000Y-98333000D01*
X146607000Y-98587000D01*
X146587000Y-98587000D01*
X146587000Y-98607000D01*
X146333000Y-98607000D01*
X146333000Y-98587000D01*
X146313000Y-98587000D01*
X146313000Y-98333000D01*
X146333000Y-98333000D01*
X146333000Y-97139845D01*
X146103110Y-97018524D01*
X145955901Y-97063175D01*
X145693080Y-97188359D01*
X145459731Y-97362412D01*
X145264822Y-97578645D01*
X145195195Y-97695534D01*
X145073475Y-97513368D01*
X144866632Y-97306525D01*
X144705000Y-97198526D01*
X144705000Y-92259267D01*
X144933680Y-92259267D01*
X145007558Y-92540830D01*
X145134947Y-92802570D01*
X145310951Y-93034429D01*
X145528807Y-93227496D01*
X145780142Y-93374352D01*
X146043110Y-93466476D01*
X146273000Y-93345155D01*
X146273000Y-92027000D01*
X145073835Y-92027000D01*
X144933680Y-92259267D01*
X144705000Y-92259267D01*
X144705000Y-91540733D01*
X144933680Y-91540733D01*
X145073835Y-91773000D01*
X146273000Y-91773000D01*
X146273000Y-90454845D01*
X146043110Y-90333524D01*
X145780142Y-90425648D01*
X145528807Y-90572504D01*
X145310951Y-90765571D01*
X145134947Y-90997430D01*
X145007558Y-91259170D01*
X144933680Y-91540733D01*
X144705000Y-91540733D01*
X144705000Y-78458552D01*
X144708797Y-78419999D01*
X144705000Y-78381446D01*
X144705000Y-78381439D01*
X144693641Y-78266113D01*
X144648754Y-78118140D01*
X144575862Y-77981767D01*
X144477764Y-77862236D01*
X144447816Y-77837658D01*
X143082347Y-76472190D01*
X143057764Y-76442236D01*
X142938233Y-76344138D01*
X142801860Y-76271246D01*
X142653887Y-76226359D01*
X142538561Y-76215000D01*
X142538553Y-76215000D01*
X142500000Y-76211203D01*
X142461447Y-76215000D01*
X141589232Y-76215000D01*
X141565706Y-76170986D01*
X141380134Y-75944866D01*
X141154014Y-75759294D01*
X141128278Y-75745538D01*
X141334429Y-75589049D01*
X141527496Y-75371193D01*
X141674352Y-75119858D01*
X141766476Y-74856890D01*
X141645155Y-74627000D01*
X140327000Y-74627000D01*
X140327000Y-74647000D01*
X140073000Y-74647000D01*
X140073000Y-74627000D01*
X138754845Y-74627000D01*
X138633524Y-74856890D01*
X138725648Y-75119858D01*
X138872504Y-75371193D01*
X139065571Y-75589049D01*
X139271722Y-75745538D01*
X139245986Y-75759294D01*
X139019866Y-75944866D01*
X138834294Y-76170986D01*
X138696401Y-76428966D01*
X138611487Y-76708889D01*
X138582815Y-77000000D01*
X138611487Y-77291111D01*
X138696401Y-77571034D01*
X138834294Y-77829014D01*
X139019866Y-78055134D01*
X139083337Y-78107223D01*
X138981614Y-78161595D01*
X138847038Y-78272038D01*
X138736595Y-78406614D01*
X138654528Y-78560150D01*
X138603992Y-78726746D01*
X138586928Y-78900000D01*
X138586928Y-80100000D01*
X138603992Y-80273254D01*
X138654528Y-80439850D01*
X138736595Y-80593386D01*
X138847038Y-80727962D01*
X138981614Y-80838405D01*
X139135150Y-80920472D01*
X139301746Y-80971008D01*
X139475000Y-80988072D01*
X140925000Y-80988072D01*
X141098254Y-80971008D01*
X141264850Y-80920472D01*
X141418386Y-80838405D01*
X141552962Y-80727962D01*
X141663405Y-80593386D01*
X141745472Y-80439850D01*
X141796008Y-80273254D01*
X141813072Y-80100000D01*
X141813072Y-78900000D01*
X141796008Y-78726746D01*
X141745472Y-78560150D01*
X141663405Y-78406614D01*
X141552962Y-78272038D01*
X141418386Y-78161595D01*
X141316663Y-78107223D01*
X141380134Y-78055134D01*
X141565706Y-77829014D01*
X141589232Y-77785000D01*
X142174843Y-77785000D01*
X143135001Y-78745159D01*
X143135000Y-96223554D01*
X143127815Y-96217658D01*
X142285000Y-95374843D01*
X142285000Y-86388552D01*
X142288797Y-86349999D01*
X142285000Y-86311446D01*
X142285000Y-86311439D01*
X142273641Y-86196113D01*
X142228754Y-86048140D01*
X142155862Y-85911767D01*
X142057764Y-85792236D01*
X142027816Y-85767658D01*
X137685000Y-81424843D01*
X137685000Y-77838556D01*
X137688797Y-77800000D01*
X137685000Y-77761444D01*
X137685000Y-77761439D01*
X137681020Y-77721026D01*
X137673642Y-77646113D01*
X137628754Y-77498140D01*
X137555862Y-77361767D01*
X137457764Y-77242236D01*
X137427810Y-77217653D01*
X136682347Y-76472190D01*
X136657764Y-76442236D01*
X136538233Y-76344138D01*
X136401860Y-76271246D01*
X136253887Y-76226359D01*
X136138561Y-76215000D01*
X136138553Y-76215000D01*
X136100000Y-76211203D01*
X136087842Y-76212400D01*
X136065706Y-76170986D01*
X135880134Y-75944866D01*
X135654014Y-75759294D01*
X135628278Y-75745538D01*
X135834429Y-75589049D01*
X136027496Y-75371193D01*
X136174352Y-75119858D01*
X136266476Y-74856890D01*
X136145155Y-74627000D01*
X134827000Y-74627000D01*
X134827000Y-74647000D01*
X134573000Y-74647000D01*
X134573000Y-74627000D01*
X133254845Y-74627000D01*
X133133524Y-74856890D01*
X133225648Y-75119858D01*
X133372504Y-75371193D01*
X133565571Y-75589049D01*
X133771722Y-75745538D01*
X133745986Y-75759294D01*
X133519866Y-75944866D01*
X133334294Y-76170986D01*
X133196401Y-76428966D01*
X133111487Y-76708889D01*
X133082815Y-77000000D01*
X133111487Y-77291111D01*
X133196401Y-77571034D01*
X133334294Y-77829014D01*
X133519866Y-78055134D01*
X133583337Y-78107223D01*
X133481614Y-78161595D01*
X133347038Y-78272038D01*
X133236595Y-78406614D01*
X133154528Y-78560150D01*
X133103992Y-78726746D01*
X133086928Y-78900000D01*
X133086928Y-80100000D01*
X133103992Y-80273254D01*
X133154528Y-80439850D01*
X133236595Y-80593386D01*
X133347038Y-80727962D01*
X133481614Y-80838405D01*
X133635150Y-80920472D01*
X133801746Y-80971008D01*
X133975000Y-80988072D01*
X135425000Y-80988072D01*
X135598254Y-80971008D01*
X135764850Y-80920472D01*
X135918386Y-80838405D01*
X136052962Y-80727962D01*
X136115000Y-80652368D01*
X136115000Y-81711447D01*
X136111203Y-81750000D01*
X136115000Y-81788553D01*
X136115000Y-81788560D01*
X136126359Y-81903886D01*
X136171246Y-82051859D01*
X136244138Y-82188232D01*
X136342236Y-82307764D01*
X136372190Y-82332347D01*
X140715001Y-86675159D01*
X140715000Y-95661447D01*
X140711203Y-95700000D01*
X140715000Y-95738553D01*
X140715000Y-95738560D01*
X140726359Y-95853886D01*
X140771246Y-96001859D01*
X140844138Y-96138232D01*
X140942236Y-96257764D01*
X140972190Y-96282347D01*
X141699253Y-97009411D01*
X141526260Y-96975000D01*
X141233740Y-96975000D01*
X140946842Y-97032068D01*
X140676589Y-97144010D01*
X140433368Y-97306525D01*
X140226525Y-97513368D01*
X140110000Y-97687760D01*
X139993475Y-97513368D01*
X139786632Y-97306525D01*
X139543411Y-97144010D01*
X139273158Y-97032068D01*
X139027045Y-96983113D01*
X140227817Y-95782341D01*
X140257764Y-95757764D01*
X140355862Y-95638233D01*
X140428754Y-95501860D01*
X140473641Y-95353887D01*
X140485000Y-95238561D01*
X140485000Y-95238554D01*
X140488797Y-95200001D01*
X140485000Y-95161448D01*
X140485000Y-88538552D01*
X140488797Y-88499999D01*
X140485000Y-88461446D01*
X140485000Y-88461439D01*
X140473641Y-88346113D01*
X140428754Y-88198140D01*
X140355862Y-88061767D01*
X140306450Y-88001559D01*
X140282345Y-87972187D01*
X140282342Y-87972184D01*
X140257764Y-87942236D01*
X140227816Y-87917658D01*
X138632345Y-86322188D01*
X138607764Y-86292236D01*
X138488233Y-86194138D01*
X138351860Y-86121246D01*
X138203887Y-86076359D01*
X138088561Y-86065000D01*
X138088553Y-86065000D01*
X138050000Y-86061203D01*
X138011447Y-86065000D01*
X133425157Y-86065000D01*
X132885000Y-85524843D01*
X132885000Y-78838552D01*
X132888797Y-78799999D01*
X132885000Y-78761446D01*
X132885000Y-78761439D01*
X132873641Y-78646113D01*
X132828754Y-78498140D01*
X132755862Y-78361767D01*
X132657764Y-78242236D01*
X132627816Y-78217658D01*
X130931674Y-76521517D01*
X130903599Y-76428966D01*
X130765706Y-76170986D01*
X130580134Y-75944866D01*
X130354014Y-75759294D01*
X130328278Y-75745538D01*
X130534429Y-75589049D01*
X130727496Y-75371193D01*
X130874352Y-75119858D01*
X130966476Y-74856890D01*
X130845155Y-74627000D01*
X129527000Y-74627000D01*
X129527000Y-74647000D01*
X129273000Y-74647000D01*
X129273000Y-74627000D01*
X127954845Y-74627000D01*
X127833524Y-74856890D01*
X127925648Y-75119858D01*
X128072504Y-75371193D01*
X128265571Y-75589049D01*
X128471722Y-75745538D01*
X128445986Y-75759294D01*
X128219866Y-75944866D01*
X128034294Y-76170986D01*
X127896401Y-76428966D01*
X127811487Y-76708889D01*
X127782815Y-77000000D01*
X127811487Y-77291111D01*
X127896401Y-77571034D01*
X128034294Y-77829014D01*
X128219866Y-78055134D01*
X128283337Y-78107223D01*
X128181614Y-78161595D01*
X128047038Y-78272038D01*
X127936595Y-78406614D01*
X127854528Y-78560150D01*
X127803992Y-78726746D01*
X127786928Y-78900000D01*
X127786928Y-80100000D01*
X127803992Y-80273254D01*
X127854528Y-80439850D01*
X127936595Y-80593386D01*
X128047038Y-80727962D01*
X128181614Y-80838405D01*
X128335150Y-80920472D01*
X128501746Y-80971008D01*
X128675000Y-80988072D01*
X130125000Y-80988072D01*
X130298254Y-80971008D01*
X130464850Y-80920472D01*
X130618386Y-80838405D01*
X130752962Y-80727962D01*
X130863405Y-80593386D01*
X130945472Y-80439850D01*
X130996008Y-80273254D01*
X131013072Y-80100000D01*
X131013072Y-78900000D01*
X131004685Y-78814842D01*
X131315001Y-79125159D01*
X131315000Y-85811447D01*
X131311203Y-85850000D01*
X131315000Y-85888553D01*
X131315000Y-85888560D01*
X131326359Y-86003886D01*
X131371246Y-86151859D01*
X131444138Y-86288232D01*
X131542236Y-86407764D01*
X131572190Y-86432347D01*
X132517653Y-87377810D01*
X132542236Y-87407764D01*
X132661767Y-87505862D01*
X132798140Y-87578754D01*
X132946113Y-87623642D01*
X133021026Y-87631020D01*
X133061439Y-87635000D01*
X133061444Y-87635000D01*
X133100000Y-87638797D01*
X133138556Y-87635000D01*
X137724843Y-87635000D01*
X138915001Y-88825159D01*
X138915000Y-94874842D01*
X137112184Y-96677659D01*
X137085000Y-96699969D01*
X137085000Y-96425157D01*
X138027817Y-95482341D01*
X138057764Y-95457764D01*
X138155862Y-95338233D01*
X138228754Y-95201860D01*
X138263194Y-95088328D01*
X138273641Y-95053888D01*
X138278541Y-95004138D01*
X138285000Y-94938561D01*
X138285000Y-94938554D01*
X138288797Y-94900001D01*
X138285000Y-94861448D01*
X138285000Y-89538552D01*
X138288797Y-89499999D01*
X138285000Y-89461446D01*
X138285000Y-89461439D01*
X138273641Y-89346113D01*
X138265009Y-89317655D01*
X138228754Y-89198140D01*
X138214379Y-89171246D01*
X138155862Y-89061767D01*
X138057764Y-88942236D01*
X138027815Y-88917657D01*
X137332345Y-88222188D01*
X137307764Y-88192236D01*
X137188233Y-88094138D01*
X137051860Y-88021246D01*
X136903887Y-87976359D01*
X136788561Y-87965000D01*
X136788553Y-87965000D01*
X136750000Y-87961203D01*
X136711447Y-87965000D01*
X130175157Y-87965000D01*
X127485000Y-85274843D01*
X127485000Y-78138555D01*
X127488797Y-78100000D01*
X127485000Y-78061444D01*
X127485000Y-78061439D01*
X127481020Y-78021026D01*
X127473642Y-77946113D01*
X127428754Y-77798140D01*
X127409137Y-77761439D01*
X127355862Y-77661767D01*
X127257764Y-77542236D01*
X127227815Y-77517658D01*
X126182347Y-76472190D01*
X126157764Y-76442236D01*
X126038233Y-76344138D01*
X125901860Y-76271246D01*
X125753887Y-76226359D01*
X125638561Y-76215000D01*
X125638553Y-76215000D01*
X125600000Y-76211203D01*
X125561447Y-76215000D01*
X125489232Y-76215000D01*
X125465706Y-76170986D01*
X125280134Y-75944866D01*
X125054014Y-75759294D01*
X125028278Y-75745538D01*
X125234429Y-75589049D01*
X125427496Y-75371193D01*
X125574352Y-75119858D01*
X125666476Y-74856890D01*
X125545155Y-74627000D01*
X124227000Y-74627000D01*
X124227000Y-74647000D01*
X123973000Y-74647000D01*
X123973000Y-74627000D01*
X122654845Y-74627000D01*
X122533524Y-74856890D01*
X122625648Y-75119858D01*
X122772504Y-75371193D01*
X122965571Y-75589049D01*
X123171722Y-75745538D01*
X123145986Y-75759294D01*
X122919866Y-75944866D01*
X122734294Y-76170986D01*
X122596401Y-76428966D01*
X122511487Y-76708889D01*
X122482815Y-77000000D01*
X120170707Y-77000000D01*
X120169456Y-74143110D01*
X122533524Y-74143110D01*
X122654845Y-74373000D01*
X123973000Y-74373000D01*
X123973000Y-73173835D01*
X124227000Y-73173835D01*
X124227000Y-74373000D01*
X125545155Y-74373000D01*
X125666476Y-74143110D01*
X127833524Y-74143110D01*
X127954845Y-74373000D01*
X129273000Y-74373000D01*
X129273000Y-73173835D01*
X129527000Y-73173835D01*
X129527000Y-74373000D01*
X130845155Y-74373000D01*
X130966476Y-74143110D01*
X133133524Y-74143110D01*
X133254845Y-74373000D01*
X134573000Y-74373000D01*
X134573000Y-73173835D01*
X134827000Y-73173835D01*
X134827000Y-74373000D01*
X136145155Y-74373000D01*
X136266476Y-74143110D01*
X138633524Y-74143110D01*
X138754845Y-74373000D01*
X140073000Y-74373000D01*
X140073000Y-73173835D01*
X140327000Y-73173835D01*
X140327000Y-74373000D01*
X141645155Y-74373000D01*
X141766476Y-74143110D01*
X141674352Y-73880142D01*
X141527496Y-73628807D01*
X141334429Y-73410951D01*
X141102570Y-73234947D01*
X140840830Y-73107558D01*
X140559267Y-73033680D01*
X140327000Y-73173835D01*
X140073000Y-73173835D01*
X139840733Y-73033680D01*
X139559170Y-73107558D01*
X139297430Y-73234947D01*
X139065571Y-73410951D01*
X138872504Y-73628807D01*
X138725648Y-73880142D01*
X138633524Y-74143110D01*
X136266476Y-74143110D01*
X136174352Y-73880142D01*
X136027496Y-73628807D01*
X135834429Y-73410951D01*
X135602570Y-73234947D01*
X135340830Y-73107558D01*
X135059267Y-73033680D01*
X134827000Y-73173835D01*
X134573000Y-73173835D01*
X134340733Y-73033680D01*
X134059170Y-73107558D01*
X133797430Y-73234947D01*
X133565571Y-73410951D01*
X133372504Y-73628807D01*
X133225648Y-73880142D01*
X133133524Y-74143110D01*
X130966476Y-74143110D01*
X130874352Y-73880142D01*
X130727496Y-73628807D01*
X130534429Y-73410951D01*
X130302570Y-73234947D01*
X130040830Y-73107558D01*
X129759267Y-73033680D01*
X129527000Y-73173835D01*
X129273000Y-73173835D01*
X129040733Y-73033680D01*
X128759170Y-73107558D01*
X128497430Y-73234947D01*
X128265571Y-73410951D01*
X128072504Y-73628807D01*
X127925648Y-73880142D01*
X127833524Y-74143110D01*
X125666476Y-74143110D01*
X125574352Y-73880142D01*
X125427496Y-73628807D01*
X125234429Y-73410951D01*
X125002570Y-73234947D01*
X124740830Y-73107558D01*
X124459267Y-73033680D01*
X124227000Y-73173835D01*
X123973000Y-73173835D01*
X123740733Y-73033680D01*
X123459170Y-73107558D01*
X123197430Y-73234947D01*
X122965571Y-73410951D01*
X122772504Y-73628807D01*
X122625648Y-73880142D01*
X122533524Y-74143110D01*
X120169456Y-74143110D01*
X120165829Y-65859742D01*
X126128715Y-65859742D01*
X126197904Y-66142745D01*
X126320975Y-66406812D01*
X126493198Y-66641795D01*
X126707954Y-66838664D01*
X126956991Y-66989854D01*
X127230739Y-67089554D01*
X127243110Y-67091476D01*
X127473000Y-66970155D01*
X127473000Y-65627000D01*
X126272768Y-65627000D01*
X126128715Y-65859742D01*
X120165829Y-65859742D01*
X120165514Y-65140258D01*
X126128715Y-65140258D01*
X126272768Y-65373000D01*
X127473000Y-65373000D01*
X127473000Y-64029845D01*
X127243110Y-63908524D01*
X127230739Y-63910446D01*
X126956991Y-64010146D01*
X126707954Y-64161336D01*
X126493198Y-64358205D01*
X126320975Y-64593188D01*
X126197904Y-64857255D01*
X126128715Y-65140258D01*
X120165514Y-65140258D01*
X120163267Y-60009742D01*
X126128715Y-60009742D01*
X126197904Y-60292745D01*
X126320975Y-60556812D01*
X126493198Y-60791795D01*
X126707954Y-60988664D01*
X126956991Y-61139854D01*
X127230739Y-61239554D01*
X127243110Y-61241476D01*
X127473000Y-61120155D01*
X127473000Y-59777000D01*
X126272768Y-59777000D01*
X126128715Y-60009742D01*
X120163267Y-60009742D01*
X120162952Y-59290258D01*
X126128715Y-59290258D01*
X126272768Y-59523000D01*
X127473000Y-59523000D01*
X127473000Y-58179845D01*
X127243110Y-58058524D01*
X127230739Y-58060446D01*
X126956991Y-58160146D01*
X126707954Y-58311336D01*
X126493198Y-58508205D01*
X126320975Y-58743188D01*
X126197904Y-59007255D01*
X126128715Y-59290258D01*
X120162952Y-59290258D01*
X120161399Y-55743110D01*
X150508524Y-55743110D01*
X150629845Y-55973000D01*
X151973000Y-55973000D01*
X151973000Y-54772768D01*
X152227000Y-54772768D01*
X152227000Y-55973000D01*
X153570155Y-55973000D01*
X153691476Y-55743110D01*
X156608524Y-55743110D01*
X156729845Y-55973000D01*
X158073000Y-55973000D01*
X158073000Y-54772768D01*
X158327000Y-54772768D01*
X158327000Y-55973000D01*
X159670155Y-55973000D01*
X159791476Y-55743110D01*
X159789554Y-55730739D01*
X159757640Y-55643110D01*
X162608524Y-55643110D01*
X162729845Y-55873000D01*
X164073000Y-55873000D01*
X164073000Y-54672768D01*
X164327000Y-54672768D01*
X164327000Y-55873000D01*
X165670155Y-55873000D01*
X165791476Y-55643110D01*
X167708524Y-55643110D01*
X167829845Y-55873000D01*
X169173000Y-55873000D01*
X169173000Y-54672768D01*
X169427000Y-54672768D01*
X169427000Y-55873000D01*
X170770155Y-55873000D01*
X170891476Y-55643110D01*
X170889554Y-55630739D01*
X170789854Y-55356991D01*
X170638664Y-55107954D01*
X170441795Y-54893198D01*
X170206812Y-54720975D01*
X169942745Y-54597904D01*
X169659742Y-54528715D01*
X169427000Y-54672768D01*
X169173000Y-54672768D01*
X168940258Y-54528715D01*
X168657255Y-54597904D01*
X168393188Y-54720975D01*
X168158205Y-54893198D01*
X167961336Y-55107954D01*
X167810146Y-55356991D01*
X167710446Y-55630739D01*
X167708524Y-55643110D01*
X165791476Y-55643110D01*
X165789554Y-55630739D01*
X165689854Y-55356991D01*
X165538664Y-55107954D01*
X165341795Y-54893198D01*
X165106812Y-54720975D01*
X164842745Y-54597904D01*
X164559742Y-54528715D01*
X164327000Y-54672768D01*
X164073000Y-54672768D01*
X163840258Y-54528715D01*
X163557255Y-54597904D01*
X163293188Y-54720975D01*
X163058205Y-54893198D01*
X162861336Y-55107954D01*
X162710146Y-55356991D01*
X162610446Y-55630739D01*
X162608524Y-55643110D01*
X159757640Y-55643110D01*
X159689854Y-55456991D01*
X159538664Y-55207954D01*
X159341795Y-54993198D01*
X159106812Y-54820975D01*
X158842745Y-54697904D01*
X158559742Y-54628715D01*
X158327000Y-54772768D01*
X158073000Y-54772768D01*
X157840258Y-54628715D01*
X157557255Y-54697904D01*
X157293188Y-54820975D01*
X157058205Y-54993198D01*
X156861336Y-55207954D01*
X156710146Y-55456991D01*
X156610446Y-55730739D01*
X156608524Y-55743110D01*
X153691476Y-55743110D01*
X153689554Y-55730739D01*
X153589854Y-55456991D01*
X153438664Y-55207954D01*
X153241795Y-54993198D01*
X153006812Y-54820975D01*
X152742745Y-54697904D01*
X152459742Y-54628715D01*
X152227000Y-54772768D01*
X151973000Y-54772768D01*
X151740258Y-54628715D01*
X151457255Y-54697904D01*
X151193188Y-54820975D01*
X150958205Y-54993198D01*
X150761336Y-55207954D01*
X150610146Y-55456991D01*
X150510446Y-55730739D01*
X150508524Y-55743110D01*
X120161399Y-55743110D01*
X120160012Y-52579369D01*
X120230757Y-51770755D01*
X120433209Y-51015192D01*
X120578089Y-50704495D01*
X121915000Y-50704495D01*
X121915000Y-51095505D01*
X121991282Y-51479003D01*
X122140915Y-51840250D01*
X122358149Y-52165364D01*
X122634636Y-52441851D01*
X122959750Y-52659085D01*
X123320997Y-52808718D01*
X123704495Y-52885000D01*
X124095505Y-52885000D01*
X124479003Y-52808718D01*
X124840250Y-52659085D01*
X125165364Y-52441851D01*
X125441851Y-52165364D01*
X125659085Y-51840250D01*
X125808718Y-51479003D01*
X125885000Y-51095505D01*
X125885000Y-50704495D01*
X179915000Y-50704495D01*
X179915000Y-51095505D01*
X179991282Y-51479003D01*
X180140915Y-51840250D01*
X180358149Y-52165364D01*
X180634636Y-52441851D01*
X180959750Y-52659085D01*
X181320997Y-52808718D01*
X181704495Y-52885000D01*
X182095505Y-52885000D01*
X182479003Y-52808718D01*
X182840250Y-52659085D01*
X183165364Y-52441851D01*
X183441851Y-52165364D01*
X183659085Y-51840250D01*
X183808718Y-51479003D01*
X183885000Y-51095505D01*
X183885000Y-50704495D01*
X183808718Y-50320997D01*
X183659085Y-49959750D01*
X183441851Y-49634636D01*
X183165364Y-49358149D01*
X182840250Y-49140915D01*
X182479003Y-48991282D01*
X182095505Y-48915000D01*
X181704495Y-48915000D01*
X181320997Y-48991282D01*
X180959750Y-49140915D01*
X180634636Y-49358149D01*
X180358149Y-49634636D01*
X180140915Y-49959750D01*
X179991282Y-50320997D01*
X179915000Y-50704495D01*
X125885000Y-50704495D01*
X125808718Y-50320997D01*
X125659085Y-49959750D01*
X125441851Y-49634636D01*
X125165364Y-49358149D01*
X124840250Y-49140915D01*
X124479003Y-48991282D01*
X124095505Y-48915000D01*
X123704495Y-48915000D01*
X123320997Y-48991282D01*
X122959750Y-49140915D01*
X122634636Y-49358149D01*
X122358149Y-49634636D01*
X122140915Y-49959750D01*
X121991282Y-50320997D01*
X121915000Y-50704495D01*
X120578089Y-50704495D01*
X120763789Y-50306261D01*
X121212454Y-49665501D01*
X121765564Y-49112392D01*
X122406321Y-48663729D01*
X123115250Y-48333150D01*
X123870821Y-48130695D01*
X124679108Y-48059974D01*
X180382758Y-48011013D01*
X181179245Y-48080697D01*
G36*
X168166525Y-99406632D02*
G01*
X168373368Y-99613475D01*
X168547760Y-99730000D01*
X168373368Y-99846525D01*
X168166525Y-100053368D01*
X168050000Y-100227760D01*
X167933475Y-100053368D01*
X167726632Y-99846525D01*
X167550594Y-99728900D01*
X167780269Y-99557588D01*
X167975178Y-99341355D01*
X168044805Y-99224466D01*
X168166525Y-99406632D01*
G37*
X168166525Y-99406632D02*
X168373368Y-99613475D01*
X168547760Y-99730000D01*
X168373368Y-99846525D01*
X168166525Y-100053368D01*
X168050000Y-100227760D01*
X167933475Y-100053368D01*
X167726632Y-99846525D01*
X167550594Y-99728900D01*
X167780269Y-99557588D01*
X167975178Y-99341355D01*
X168044805Y-99224466D01*
X168166525Y-99406632D01*
G36*
X171947000Y-92313000D02*
G01*
X171967000Y-92313000D01*
X171967000Y-92567000D01*
X171947000Y-92567000D01*
X171947000Y-93760155D01*
X172176890Y-93881476D01*
X172324099Y-93836825D01*
X172586920Y-93711641D01*
X172820269Y-93537588D01*
X173015178Y-93321355D01*
X173084805Y-93204466D01*
X173206525Y-93386632D01*
X173413368Y-93593475D01*
X173656589Y-93755990D01*
X173926842Y-93867932D01*
X174213740Y-93925000D01*
X174506260Y-93925000D01*
X174793158Y-93867932D01*
X175063411Y-93755990D01*
X175306632Y-93593475D01*
X175325107Y-93575000D01*
X175934893Y-93575000D01*
X175953368Y-93593475D01*
X176196589Y-93755990D01*
X176466842Y-93867932D01*
X176753740Y-93925000D01*
X177046260Y-93925000D01*
X177333158Y-93867932D01*
X177603411Y-93755990D01*
X177846632Y-93593475D01*
X177865107Y-93575000D01*
X181490001Y-93575000D01*
X181490000Y-96046949D01*
X178428072Y-99108878D01*
X178428072Y-97610000D01*
X178415812Y-97485518D01*
X178379502Y-97365820D01*
X178320537Y-97255506D01*
X178241185Y-97158815D01*
X178144494Y-97079463D01*
X178034180Y-97020498D01*
X177914482Y-96984188D01*
X177790000Y-96971928D01*
X176090000Y-96971928D01*
X175965518Y-96984188D01*
X175845820Y-97020498D01*
X175735506Y-97079463D01*
X175638815Y-97158815D01*
X175559463Y-97255506D01*
X175500498Y-97365820D01*
X175478487Y-97438380D01*
X175346632Y-97306525D01*
X175103411Y-97144010D01*
X174833158Y-97032068D01*
X174546260Y-96975000D01*
X174253740Y-96975000D01*
X173966842Y-97032068D01*
X173696589Y-97144010D01*
X173453368Y-97306525D01*
X173246525Y-97513368D01*
X173130000Y-97687760D01*
X173013475Y-97513368D01*
X172806632Y-97306525D01*
X172563411Y-97144010D01*
X172293158Y-97032068D01*
X172006260Y-96975000D01*
X171713740Y-96975000D01*
X171426842Y-97032068D01*
X171305001Y-97082536D01*
X171305001Y-96558553D01*
X171308798Y-96520000D01*
X171305001Y-96481447D01*
X171305001Y-96481440D01*
X171293642Y-96366114D01*
X171293384Y-96365261D01*
X171283195Y-96331673D01*
X171248755Y-96218141D01*
X171175863Y-96081768D01*
X171115941Y-96008754D01*
X171102346Y-95992188D01*
X171102343Y-95992185D01*
X171077765Y-95962237D01*
X171047816Y-95937659D01*
X170065000Y-94954843D01*
X170065000Y-93701474D01*
X170226632Y-93593475D01*
X170433475Y-93386632D01*
X170555195Y-93204466D01*
X170624822Y-93321355D01*
X170819731Y-93537588D01*
X171053080Y-93711641D01*
X171315901Y-93836825D01*
X171463110Y-93881476D01*
X171693000Y-93760155D01*
X171693000Y-92567000D01*
X171673000Y-92567000D01*
X171673000Y-92313000D01*
X171693000Y-92313000D01*
X171693000Y-92293000D01*
X171947000Y-92293000D01*
X171947000Y-92313000D01*
G37*
X171947000Y-92313000D02*
X171967000Y-92313000D01*
X171967000Y-92567000D01*
X171947000Y-92567000D01*
X171947000Y-93760155D01*
X172176890Y-93881476D01*
X172324099Y-93836825D01*
X172586920Y-93711641D01*
X172820269Y-93537588D01*
X173015178Y-93321355D01*
X173084805Y-93204466D01*
X173206525Y-93386632D01*
X173413368Y-93593475D01*
X173656589Y-93755990D01*
X173926842Y-93867932D01*
X174213740Y-93925000D01*
X174506260Y-93925000D01*
X174793158Y-93867932D01*
X175063411Y-93755990D01*
X175306632Y-93593475D01*
X175325107Y-93575000D01*
X175934893Y-93575000D01*
X175953368Y-93593475D01*
X176196589Y-93755990D01*
X176466842Y-93867932D01*
X176753740Y-93925000D01*
X177046260Y-93925000D01*
X177333158Y-93867932D01*
X177603411Y-93755990D01*
X177846632Y-93593475D01*
X177865107Y-93575000D01*
X181490001Y-93575000D01*
X181490000Y-96046949D01*
X178428072Y-99108878D01*
X178428072Y-97610000D01*
X178415812Y-97485518D01*
X178379502Y-97365820D01*
X178320537Y-97255506D01*
X178241185Y-97158815D01*
X178144494Y-97079463D01*
X178034180Y-97020498D01*
X177914482Y-96984188D01*
X177790000Y-96971928D01*
X176090000Y-96971928D01*
X175965518Y-96984188D01*
X175845820Y-97020498D01*
X175735506Y-97079463D01*
X175638815Y-97158815D01*
X175559463Y-97255506D01*
X175500498Y-97365820D01*
X175478487Y-97438380D01*
X175346632Y-97306525D01*
X175103411Y-97144010D01*
X174833158Y-97032068D01*
X174546260Y-96975000D01*
X174253740Y-96975000D01*
X173966842Y-97032068D01*
X173696589Y-97144010D01*
X173453368Y-97306525D01*
X173246525Y-97513368D01*
X173130000Y-97687760D01*
X173013475Y-97513368D01*
X172806632Y-97306525D01*
X172563411Y-97144010D01*
X172293158Y-97032068D01*
X172006260Y-96975000D01*
X171713740Y-96975000D01*
X171426842Y-97032068D01*
X171305001Y-97082536D01*
X171305001Y-96558553D01*
X171308798Y-96520000D01*
X171305001Y-96481447D01*
X171305001Y-96481440D01*
X171293642Y-96366114D01*
X171293384Y-96365261D01*
X171283195Y-96331673D01*
X171248755Y-96218141D01*
X171175863Y-96081768D01*
X171115941Y-96008754D01*
X171102346Y-95992188D01*
X171102343Y-95992185D01*
X171077765Y-95962237D01*
X171047816Y-95937659D01*
X170065000Y-94954843D01*
X170065000Y-93701474D01*
X170226632Y-93593475D01*
X170433475Y-93386632D01*
X170555195Y-93204466D01*
X170624822Y-93321355D01*
X170819731Y-93537588D01*
X171053080Y-93711641D01*
X171315901Y-93836825D01*
X171463110Y-93881476D01*
X171693000Y-93760155D01*
X171693000Y-92567000D01*
X171673000Y-92567000D01*
X171673000Y-92313000D01*
X171693000Y-92313000D01*
X171693000Y-92293000D01*
X171947000Y-92293000D01*
X171947000Y-92313000D01*
G36*
X166907000Y-98333000D02*
G01*
X166927000Y-98333000D01*
X166927000Y-98587000D01*
X166907000Y-98587000D01*
X166907000Y-98607000D01*
X166653000Y-98607000D01*
X166653000Y-98587000D01*
X166633000Y-98587000D01*
X166633000Y-98333000D01*
X166653000Y-98333000D01*
X166653000Y-98313000D01*
X166907000Y-98313000D01*
X166907000Y-98333000D01*
G37*
X166907000Y-98333000D02*
X166927000Y-98333000D01*
X166927000Y-98587000D01*
X166907000Y-98587000D01*
X166907000Y-98607000D01*
X166653000Y-98607000D01*
X166653000Y-98587000D01*
X166633000Y-98587000D01*
X166633000Y-98333000D01*
X166653000Y-98333000D01*
X166653000Y-98313000D01*
X166907000Y-98313000D01*
X166907000Y-98333000D01*
G36*
X128959294Y-92854013D02*
G01*
X129144866Y-93080134D01*
X129370986Y-93265706D01*
X129415001Y-93289232D01*
X129415000Y-95361447D01*
X129411203Y-95400000D01*
X129415000Y-95438553D01*
X129415000Y-95438560D01*
X129426359Y-95553886D01*
X129471246Y-95701859D01*
X129544138Y-95838232D01*
X129642236Y-95957764D01*
X129672190Y-95982347D01*
X130740928Y-97051086D01*
X130516589Y-97144010D01*
X130273368Y-97306525D01*
X130066525Y-97513368D01*
X129944805Y-97695534D01*
X129875178Y-97578645D01*
X129680269Y-97362412D01*
X129446920Y-97188359D01*
X129184099Y-97063175D01*
X129036890Y-97018524D01*
X128807000Y-97139845D01*
X128807000Y-98333000D01*
X128827000Y-98333000D01*
X128827000Y-98587000D01*
X128807000Y-98587000D01*
X128807000Y-98607000D01*
X128553000Y-98607000D01*
X128553000Y-98587000D01*
X128533000Y-98587000D01*
X128533000Y-98333000D01*
X128553000Y-98333000D01*
X128553000Y-97139845D01*
X128323110Y-97018524D01*
X128175901Y-97063175D01*
X127913080Y-97188359D01*
X127785000Y-97283893D01*
X127785000Y-96325157D01*
X128227816Y-95882341D01*
X128257764Y-95857764D01*
X128355862Y-95738233D01*
X128428754Y-95601860D01*
X128463194Y-95488328D01*
X128473641Y-95453888D01*
X128476209Y-95427813D01*
X128485000Y-95338561D01*
X128485000Y-95338554D01*
X128488797Y-95300001D01*
X128485000Y-95261448D01*
X128485000Y-93289231D01*
X128529013Y-93265706D01*
X128755134Y-93080134D01*
X128940706Y-92854014D01*
X128950000Y-92836626D01*
X128959294Y-92854013D01*
G37*
X128959294Y-92854013D02*
X129144866Y-93080134D01*
X129370986Y-93265706D01*
X129415001Y-93289232D01*
X129415000Y-95361447D01*
X129411203Y-95400000D01*
X129415000Y-95438553D01*
X129415000Y-95438560D01*
X129426359Y-95553886D01*
X129471246Y-95701859D01*
X129544138Y-95838232D01*
X129642236Y-95957764D01*
X129672190Y-95982347D01*
X130740928Y-97051086D01*
X130516589Y-97144010D01*
X130273368Y-97306525D01*
X130066525Y-97513368D01*
X129944805Y-97695534D01*
X129875178Y-97578645D01*
X129680269Y-97362412D01*
X129446920Y-97188359D01*
X129184099Y-97063175D01*
X129036890Y-97018524D01*
X128807000Y-97139845D01*
X128807000Y-98333000D01*
X128827000Y-98333000D01*
X128827000Y-98587000D01*
X128807000Y-98587000D01*
X128807000Y-98607000D01*
X128553000Y-98607000D01*
X128553000Y-98587000D01*
X128533000Y-98587000D01*
X128533000Y-98333000D01*
X128553000Y-98333000D01*
X128553000Y-97139845D01*
X128323110Y-97018524D01*
X128175901Y-97063175D01*
X127913080Y-97188359D01*
X127785000Y-97283893D01*
X127785000Y-96325157D01*
X128227816Y-95882341D01*
X128257764Y-95857764D01*
X128355862Y-95738233D01*
X128428754Y-95601860D01*
X128463194Y-95488328D01*
X128473641Y-95453888D01*
X128476209Y-95427813D01*
X128485000Y-95338561D01*
X128485000Y-95338554D01*
X128488797Y-95300001D01*
X128485000Y-95261448D01*
X128485000Y-93289231D01*
X128529013Y-93265706D01*
X128755134Y-93080134D01*
X128940706Y-92854014D01*
X128950000Y-92836626D01*
X128959294Y-92854013D01*
G36*
X175458215Y-88813346D02*
G01*
X175438487Y-88878380D01*
X175306632Y-88746525D01*
X175063411Y-88584010D01*
X174793158Y-88472068D01*
X174506260Y-88415000D01*
X174213740Y-88415000D01*
X173926842Y-88472068D01*
X173656589Y-88584010D01*
X173413368Y-88746525D01*
X173206525Y-88953368D01*
X173090000Y-89127760D01*
X172973475Y-88953368D01*
X172766632Y-88746525D01*
X172523411Y-88584010D01*
X172253158Y-88472068D01*
X171966260Y-88415000D01*
X171673740Y-88415000D01*
X171386842Y-88472068D01*
X171116589Y-88584010D01*
X170873368Y-88746525D01*
X170666525Y-88953368D01*
X170550000Y-89127760D01*
X170433475Y-88953368D01*
X170226632Y-88746525D01*
X169983411Y-88584010D01*
X169713158Y-88472068D01*
X169426260Y-88415000D01*
X169133740Y-88415000D01*
X168846842Y-88472068D01*
X168576589Y-88584010D01*
X168333368Y-88746525D01*
X168126525Y-88953368D01*
X168004805Y-89135534D01*
X167935178Y-89018645D01*
X167740269Y-88802412D01*
X167506920Y-88628359D01*
X167244099Y-88503175D01*
X167096890Y-88458524D01*
X166867000Y-88579845D01*
X166867000Y-89773000D01*
X166887000Y-89773000D01*
X166887000Y-90027000D01*
X166867000Y-90027000D01*
X166867000Y-90047000D01*
X166613000Y-90047000D01*
X166613000Y-90027000D01*
X166593000Y-90027000D01*
X166593000Y-89773000D01*
X166613000Y-89773000D01*
X166613000Y-88579845D01*
X166383110Y-88458524D01*
X166235901Y-88503175D01*
X165973080Y-88628359D01*
X165739731Y-88802412D01*
X165544822Y-89018645D01*
X165475195Y-89135534D01*
X165353475Y-88953368D01*
X165146632Y-88746525D01*
X164903411Y-88584010D01*
X164633158Y-88472068D01*
X164346260Y-88415000D01*
X164053740Y-88415000D01*
X163766842Y-88472068D01*
X163496589Y-88584010D01*
X163253368Y-88746525D01*
X163046525Y-88953368D01*
X162884010Y-89196589D01*
X162772068Y-89466842D01*
X162715000Y-89753740D01*
X162715000Y-90046260D01*
X162772068Y-90333158D01*
X162884010Y-90603411D01*
X163046525Y-90846632D01*
X163253368Y-91053475D01*
X163427760Y-91170000D01*
X163253368Y-91286525D01*
X163046525Y-91493368D01*
X162884010Y-91736589D01*
X162772068Y-92006842D01*
X162715000Y-92293740D01*
X162715000Y-92586260D01*
X162752925Y-92776918D01*
X162372191Y-93157652D01*
X162342237Y-93182235D01*
X162244139Y-93301767D01*
X162171247Y-93438140D01*
X162126360Y-93586113D01*
X162115001Y-93701439D01*
X162115001Y-93701446D01*
X162111204Y-93739999D01*
X162115001Y-93778552D01*
X162115001Y-97028456D01*
X161846260Y-96975000D01*
X161553740Y-96975000D01*
X161266842Y-97032068D01*
X160996589Y-97144010D01*
X160753368Y-97306525D01*
X160546525Y-97513368D01*
X160430000Y-97687760D01*
X160313475Y-97513368D01*
X160106632Y-97306525D01*
X159863411Y-97144010D01*
X159635518Y-97049614D01*
X160913141Y-95771991D01*
X160956449Y-95736449D01*
X161098284Y-95563623D01*
X161203676Y-95366447D01*
X161268577Y-95152499D01*
X161285000Y-94985752D01*
X161285000Y-94985751D01*
X161290491Y-94930000D01*
X161285000Y-94874248D01*
X161285000Y-88235000D01*
X174879869Y-88235000D01*
X175458215Y-88813346D01*
G37*
X175458215Y-88813346D02*
X175438487Y-88878380D01*
X175306632Y-88746525D01*
X175063411Y-88584010D01*
X174793158Y-88472068D01*
X174506260Y-88415000D01*
X174213740Y-88415000D01*
X173926842Y-88472068D01*
X173656589Y-88584010D01*
X173413368Y-88746525D01*
X173206525Y-88953368D01*
X173090000Y-89127760D01*
X172973475Y-88953368D01*
X172766632Y-88746525D01*
X172523411Y-88584010D01*
X172253158Y-88472068D01*
X171966260Y-88415000D01*
X171673740Y-88415000D01*
X171386842Y-88472068D01*
X171116589Y-88584010D01*
X170873368Y-88746525D01*
X170666525Y-88953368D01*
X170550000Y-89127760D01*
X170433475Y-88953368D01*
X170226632Y-88746525D01*
X169983411Y-88584010D01*
X169713158Y-88472068D01*
X169426260Y-88415000D01*
X169133740Y-88415000D01*
X168846842Y-88472068D01*
X168576589Y-88584010D01*
X168333368Y-88746525D01*
X168126525Y-88953368D01*
X168004805Y-89135534D01*
X167935178Y-89018645D01*
X167740269Y-88802412D01*
X167506920Y-88628359D01*
X167244099Y-88503175D01*
X167096890Y-88458524D01*
X166867000Y-88579845D01*
X166867000Y-89773000D01*
X166887000Y-89773000D01*
X166887000Y-90027000D01*
X166867000Y-90027000D01*
X166867000Y-90047000D01*
X166613000Y-90047000D01*
X166613000Y-90027000D01*
X166593000Y-90027000D01*
X166593000Y-89773000D01*
X166613000Y-89773000D01*
X166613000Y-88579845D01*
X166383110Y-88458524D01*
X166235901Y-88503175D01*
X165973080Y-88628359D01*
X165739731Y-88802412D01*
X165544822Y-89018645D01*
X165475195Y-89135534D01*
X165353475Y-88953368D01*
X165146632Y-88746525D01*
X164903411Y-88584010D01*
X164633158Y-88472068D01*
X164346260Y-88415000D01*
X164053740Y-88415000D01*
X163766842Y-88472068D01*
X163496589Y-88584010D01*
X163253368Y-88746525D01*
X163046525Y-88953368D01*
X162884010Y-89196589D01*
X162772068Y-89466842D01*
X162715000Y-89753740D01*
X162715000Y-90046260D01*
X162772068Y-90333158D01*
X162884010Y-90603411D01*
X163046525Y-90846632D01*
X163253368Y-91053475D01*
X163427760Y-91170000D01*
X163253368Y-91286525D01*
X163046525Y-91493368D01*
X162884010Y-91736589D01*
X162772068Y-92006842D01*
X162715000Y-92293740D01*
X162715000Y-92586260D01*
X162752925Y-92776918D01*
X162372191Y-93157652D01*
X162342237Y-93182235D01*
X162244139Y-93301767D01*
X162171247Y-93438140D01*
X162126360Y-93586113D01*
X162115001Y-93701439D01*
X162115001Y-93701446D01*
X162111204Y-93739999D01*
X162115001Y-93778552D01*
X162115001Y-97028456D01*
X161846260Y-96975000D01*
X161553740Y-96975000D01*
X161266842Y-97032068D01*
X160996589Y-97144010D01*
X160753368Y-97306525D01*
X160546525Y-97513368D01*
X160430000Y-97687760D01*
X160313475Y-97513368D01*
X160106632Y-97306525D01*
X159863411Y-97144010D01*
X159635518Y-97049614D01*
X160913141Y-95771991D01*
X160956449Y-95736449D01*
X161098284Y-95563623D01*
X161203676Y-95366447D01*
X161268577Y-95152499D01*
X161285000Y-94985752D01*
X161285000Y-94985751D01*
X161290491Y-94930000D01*
X161285000Y-94874248D01*
X161285000Y-88235000D01*
X174879869Y-88235000D01*
X175458215Y-88813346D01*
G36*
X170666525Y-90846632D02*
G01*
X170873368Y-91053475D01*
X171049406Y-91171100D01*
X170819731Y-91342412D01*
X170624822Y-91558645D01*
X170555195Y-91675534D01*
X170433475Y-91493368D01*
X170226632Y-91286525D01*
X170052240Y-91170000D01*
X170226632Y-91053475D01*
X170433475Y-90846632D01*
X170550000Y-90672240D01*
X170666525Y-90846632D01*
G37*
X170666525Y-90846632D02*
X170873368Y-91053475D01*
X171049406Y-91171100D01*
X170819731Y-91342412D01*
X170624822Y-91558645D01*
X170555195Y-91675534D01*
X170433475Y-91493368D01*
X170226632Y-91286525D01*
X170052240Y-91170000D01*
X170226632Y-91053475D01*
X170433475Y-90846632D01*
X170550000Y-90672240D01*
X170666525Y-90846632D01*
G36*
X168126525Y-90846632D02*
G01*
X168333368Y-91053475D01*
X168507760Y-91170000D01*
X168333368Y-91286525D01*
X168126525Y-91493368D01*
X168010000Y-91667760D01*
X167893475Y-91493368D01*
X167686632Y-91286525D01*
X167510594Y-91168900D01*
X167740269Y-90997588D01*
X167935178Y-90781355D01*
X168004805Y-90664466D01*
X168126525Y-90846632D01*
G37*
X168126525Y-90846632D02*
X168333368Y-91053475D01*
X168507760Y-91170000D01*
X168333368Y-91286525D01*
X168126525Y-91493368D01*
X168010000Y-91667760D01*
X167893475Y-91493368D01*
X167686632Y-91286525D01*
X167510594Y-91168900D01*
X167740269Y-90997588D01*
X167935178Y-90781355D01*
X168004805Y-90664466D01*
X168126525Y-90846632D01*
%TD*%
M02*
