0
SECTION
2
HEADER
9
$INSUNITS
70
5
9
$ACADVER
1
AC1014
9
$HANDSEED
5
FFFF
0
ENDSEC
0
SECTION
2
TABLES
0
TABLE
2
VPORT
5
8
100
AcDbSymbolTable
0
ENDTAB
0
TABLE
2
LTYPE
5
5
100
AcDbSymbolTable
0
LTYPE
5
14
100
AcDbSymbolTableRecord
100
AcDbLinetypeTableRecord
2
BYBLOCK
70
0
0
LTYPE
5
15
100
AcDbSymbolTableRecord
100
AcDbLinetypeTableRecord
2
BYLAYER
70
0
0
ENDTAB
0
TABLE
2
LAYER
5
2
100
AcDbSymbolTable
70
2
0
LAYER
5
50
100
AcDbSymbolTableRecord
100
AcDbLayerTableRecord
2
0
70
0
6
CONTINUOUS
0
ENDTAB
0
TABLE
2
STYLE
5
3
100
AcDbSymbolTable
70
1
0
STYLE
5
11
100
AcDbSymbolTableRecord
100
AcDbTextStyleTableRecord
2
STANDARD
70
0
0
ENDTAB
0
TABLE
2
VIEW
5
6
100
AcDbSymbolTable
70
0
0
ENDTAB
0
TABLE
2
UCS
5
7
100
AcDbSymbolTable
70
0
0
ENDTAB
0
TABLE
2
APPID
5
9
100
AcDbSymbolTable
70
2
0
APPID
5
12
100
AcDbSymbolTableRecord
100
AcDbRegAppTableRecord
2
ACAD
70
0
0
ENDTAB
0
TABLE
2
DIMSTYLE
5
A
100
AcDbSymbolTable
70
1
0
ENDTAB
0
TABLE
2
BLOCK_RECORD
5
1
100
AcDbSymbolTable
70
1
0
BLOCK_RECORD
5
1F
100
AcDbSymbolTableRecord
100
AcDbBlockTableRecord
2
*MODEL_SPACE
0
BLOCK_RECORD
5
1B
100
AcDbSymbolTableRecord
100
AcDbBlockTableRecord
2
*PAPER_SPACE
0
ENDTAB
0
ENDSEC
0
SECTION
2
BLOCKS
0
BLOCK
5
20
100
AcDbEntity
100
AcDbBlockBegin
2
*MODEL_SPACE
0
ENDBLK
5
21
100
AcDbEntity
100
AcDbBlockEnd
0
BLOCK
5
1C
100
AcDbEntity
100
AcDbBlockBegin
2
*PAPER_SPACE
0
ENDBLK
5
1D
100
AcDbEntity
100
AcDbBlockEnd
0
ENDSEC
0
SECTION
2
ENTITIES
0
LWPOLYLINE
5
100
100
AcDbEntity
8
0
100
AcDbPolyline
90
22
70
1
43
0.0
10
-3.9499999999999997
20
2.7999999999999998
10
2.9289515692517898
20
2.7999999999999998
10
2.9289515692517898
20
2.3500000000000001
10
3.4510484307482101
20
2.3500000000000001
10
3.4510484307482101
20
2.7999999999999998
10
3.9500000000000002
20
2.7999999999999998
42
-0.41421356237309503
10
4.25
20
2.5
10
4.25
20
-2.5
42
-0.41421356237309503
10
3.9499999999999997
20
-2.7999999999999998
10
-3.9500000000000011
20
-2.799999999999998
42
-0.35639395869259977
10
-4.2439387691339796
20
-2.5600000000000001
10
-2.75
20
-2.5600000000000001
10
-2.75
20
-1.24
10
-4.25
20
-1.24
10
-4.25
20
-0.76000000000000001
10
-2.75
20
-0.76000000000000001
10
-2.75
20
0.56000000000000005
10
-4.25
20
0.56000000000000105
10
-4.25
20
0.97500000000000098
10
-2.3300000000000001
20
0.97500000000000098
10
-2.3300000000000001
20
2.5750000000000002
10
-4.2404737509655561
20
2.5749999999999993
42
-0.34199871311964736
0
LWPOLYLINE
5
101
100
AcDbEntity
8
0
100
AcDbPolyline
90
4
70
1
43
0.0
10
4.0300000000000002
20
1.0249999999999999
10
3.73
20
1.0249999999999999
10
3.73
20
-1.0249999999999999
10
4.0300000000000002
20
-1.0249999999999999
0
LWPOLYLINE
5
102
100
AcDbEntity
8
0
100
AcDbPolyline
90
4
70
1
43
0.0
10
-0.39999999999999902
20
0.625
10
-0.099999999999999201
20
0.625
10
-0.099999999999999423
20
2.6749999999999998
10
-0.39999999999999902
20
2.6749999999999998
0
LWPOLYLINE
5
103
100
AcDbEntity
8
0
100
AcDbPolyline
90
4
70
1
43
0.0
10
-1.45
20
1.5449999999999999
10
-0.749999999999999
20
1.5449999999999999
10
-0.749999999999999
20
2.7949999999999999
10
-1.45
20
2.7949999999999999
0
LWPOLYLINE
5
104
100
AcDbEntity
8
0
100
AcDbPolyline
90
132
70
1
43
0.0
10
-1.5349999999999999
20
-2.2747299999999999
10
-1.5349999999999999
20
-2.62527
10
-1.5348200000000001
20
-2.625
10
-1.48482
20
-2.7000000000000002
10
-1.3433999999999999
20
-2.7000000000000002
10
-1.2936099999999999
20
-2.6253150000000001
10
-1.2438199999999999
20
-2.7000000000000002
10
-1.10198
20
-2.7000000000000002
10
-1.05219
20
-2.6253150000000001
10
-1.0024
20
-2.7000000000000002
10
-0.86055999999999999
20
-2.7000000000000002
10
-0.81076999999999999
20
-2.6253150000000001
10
-0.76097999999999999
20
-2.7000000000000002
10
-0.61914000000000002
20
-2.7000000000000002
10
-0.56935000000000002
20
-2.6253150000000001
10
-0.51956000000000002
20
-2.7000000000000002
10
-0.377720000000001
20
-2.7000000000000002
10
-0.32793
20
-2.6253150000000001
10
-0.27814
20
-2.7000000000000002
10
-0.1363
20
-2.7000000000000002
10
-0.086510000000000101
20
-2.6253150000000001
10
-0.036720000000000294
20
-2.7000000000000002
10
0.10511999999999901
20
-2.7000000000000002
10
0.15490999999999999
20
-2.6253150000000001
10
0.20469999999999999
20
-2.7000000000000002
10
0.34654000000000001
20
-2.7000000000000002
10
0.39633000000000002
20
-2.6253150000000001
10
0.44612000000000002
20
-2.7000000000000002
10
0.58795999999999904
20
-2.7000000000000002
10
0.63775000000000004
20
-2.6253150000000001
10
0.68754000000000004
20
-2.7000000000000002
10
0.82938000000000001
20
-2.7000000000000002
10
0.87917000000000001
20
-2.6253150000000001
10
0.92896000000000001
20
-2.7000000000000002
10
1.0708
20
-2.7000000000000002
10
1.12059
20
-2.6253150000000001
10
1.17038
20
-2.7000000000000002
10
1.3122199999999999
20
-2.7000000000000002
10
1.3620099999999999
20
-2.6253150000000001
10
1.4117999999999999
20
-2.7000000000000002
10
1.5536399999999999
20
-2.7000000000000002
10
1.6034299999999999
20
-2.6253150000000001
10
1.6532199999999999
20
-2.7000000000000002
10
1.7950600000000001
20
-2.7000000000000002
10
1.8448500000000001
20
-2.6253150000000001
10
1.8946400000000001
20
-2.7000000000000002
10
2.0364800000000001
20
-2.7000000000000002
10
2.0862699999999998
20
-2.6253150000000001
10
2.1360600000000001
20
-2.7000000000000002
10
2.2778999999999998
20
-2.7000000000000002
10
2.32769
20
-2.6253150000000001
10
2.3774799999999998
20
-2.7000000000000002
10
2.51932
20
-2.7000000000000002
10
2.5691099999999998
20
-2.6253150000000001
10
2.6189
20
-2.7000000000000002
10
2.7607400000000002
20
-2.7000000000000002
10
2.81053
20
-2.6253150000000001
10
2.8603200000000002
20
-2.7000000000000002
10
3.0021599999999999
20
-2.7000000000000002
10
3.0519500000000002
20
-2.6253150000000001
10
3.1017399999999999
20
-2.7000000000000002
10
3.2435800000000001
20
-2.7000000000000002
10
3.2933699999999999
20
-2.6253150000000001
10
3.3431600000000001
20
-2.7000000000000002
10
3.4845799999999998
20
-2.7000000000000002
10
3.5345800000000001
20
-2.625
10
3.5350000000000001
20
-2.6256300000000001
10
3.5350000000000001
20
-2.2743699999999998
10
3.5345800000000001
20
-2.2749999999999999
10
3.4845799999999998
20
-2.2000000000000002
10
3.3431600000000001
20
-2.2000000000000002
10
3.2933699999999999
20
-2.2746849999999998
10
3.2435800000000001
20
-2.2000000000000002
10
3.1017399999999999
20
-2.2000000000000002
10
3.0519500000000002
20
-2.2746849999999998
10
3.0021599999999999
20
-2.2000000000000002
10
2.8603200000000002
20
-2.2000000000000002
10
2.81053
20
-2.2746849999999998
10
2.7607400000000002
20
-2.2000000000000002
10
2.6189
20
-2.2000000000000002
10
2.5691099999999998
20
-2.2746849999999998
10
2.51932
20
-2.2000000000000002
10
2.3774799999999998
20
-2.2000000000000002
10
2.32769
20
-2.2746849999999998
10
2.2778999999999998
20
-2.2000000000000002
10
2.1360600000000001
20
-2.2000000000000002
10
2.0862699999999998
20
-2.2746849999999998
10
2.0364800000000001
20
-2.2000000000000002
10
1.8946400000000001
20
-2.2000000000000002
10
1.8448500000000001
20
-2.2746849999999998
10
1.7950600000000001
20
-2.2000000000000002
10
1.6532199999999999
20
-2.2000000000000002
10
1.6034299999999999
20
-2.2746849999999998
10
1.5536399999999999
20
-2.2000000000000002
10
1.4117999999999999
20
-2.2000000000000002
10
1.3620099999999999
20
-2.2746849999999998
10
1.3122199999999999
20
-2.2000000000000002
10
1.17038
20
-2.2000000000000002
10
1.12059
20
-2.2746849999999998
10
1.0708
20
-2.2000000000000002
10
0.92896000000000001
20
-2.2000000000000002
10
0.87917000000000001
20
-2.2746849999999998
10
0.82938000000000001
20
-2.2000000000000002
10
0.68754000000000004
20
-2.2000000000000002
10
0.63775000000000004
20
-2.2746849999999998
10
0.58796000000000004
20
-2.2000000000000002
10
0.44612000000000102
20
-2.2000000000000002
10
0.39633000000000002
20
-2.2746849999999998
10
0.34654000000000001
20
-2.2000000000000002
10
0.20470000000000099
20
-2.2000000000000002
10
0.15490999999999999
20
-2.2746849999999998
10
0.10512000000000002
20
-2.2000000000000002
10
-0.0367199999999984
20
-2.2000000000000002
10
-0.086510000000000101
20
-2.2746849999999998
10
-0.1363
20
-2.2000000000000002
10
-0.278139999999998
20
-2.2000000000000002
10
-0.32793
20
-2.2746849999999998
10
-0.37772
20
-2.2000000000000002
10
-0.51955999999999902
20
-2.2000000000000002
10
-0.56935000000000002
20
-2.2746849999999998
10
-0.61914000000000002
20
-2.2000000000000002
10
-0.76097999999999799
20
-2.2000000000000002
10
-0.81076999999999899
20
-2.2746849999999998
10
-0.86055999999999999
20
-2.2000000000000002
10
-1.0024
20
-2.2000000000000002
10
-1.05219
20
-2.2746849999999998
10
-1.10198
20
-2.2000000000000002
10
-1.2438199999999999
20
-2.2000000000000002
10
-1.2936099999999999
20
-2.2746849999999998
10
-1.3433999999999999
20
-2.2000000000000002
10
-1.48482
20
-2.2000000000000002
10
-1.5348200000000001
20
-2.2749999999999999
0
LWPOLYLINE
5
105
100
AcDbEntity
8
0
100
AcDbPolyline
90
4
70
1
43
0.0
10
1.79
20
1.8
10
1.79
20
2.4500000000000002
10
0.310000000000001
20
2.4500000000000002
10
0.31000000000000094
20
1.8
0
CIRCLE
5
106
100
AcDbEntity
8
0
100
AcDbCircle
10
-3.8999999999999999
20
2.4500000000000002
30
1.1102230246251565e-16
40
0.31
210
0
220
0
230
-1
0
CIRCLE
5
107
100
AcDbEntity
8
0
100
AcDbCircle
10
1.8999999999999999
20
2.4500000000000002
30
1.1102230246251565e-16
40
0.31
210
0
220
0
230
-1
0
CIRCLE
5
108
100
AcDbEntity
8
0
100
AcDbCircle
10
1.8999999999999999
20
-2.4500000000000002
30
1.1102230246251565e-16
40
0.31
210
0
220
0
230
-1
0
CIRCLE
5
109
100
AcDbEntity
8
0
100
AcDbCircle
10
-3.8999999999999999
20
-2.4500000000000002
30
1.1102230246251565e-16
40
0.31
210
0
220
0
230
-1
0
LINE
5
110
100
AcDbEntity
8
0
100
AcDbLine
10
-2.3300000000000001
20
0.97500000000000098
30
0
11
-2.3300000000000001
21
2.5750000000000002
31
0
0
LINE
5
111
100
AcDbEntity
8
0
100
AcDbLine
10
-2.3300000000000001
20
2.5750000000000002
30
0
11
-4.4500000000000002
21
2.5750000000000002
31
0
0
LINE
5
112
100
AcDbEntity
8
0
100
AcDbLine
10
-4.4500000000000002
20
2.5750000000000002
30
0
11
-4.4500000000000002
21
0.97500000000000098
31
0
0
LINE
5
113
100
AcDbEntity
8
0
100
AcDbLine
10
-4.4500000000000002
20
0.97500000000000098
30
0
11
-2.3300000000000001
21
0.97500000000000098
31
0
0
LINE
5
114
100
AcDbEntity
8
0
100
AcDbLine
10
-4.4500000000000002
20
0.56000000000000005
30
0
11
-4.4500000000000002
21
-0.76000000000000001
31
0
0
LINE
5
115
100
AcDbEntity
8
0
100
AcDbLine
10
-4.4500000000000002
20
-0.76000000000000001
30
0
11
-2.75
21
-0.76000000000000001
31
0
0
LINE
5
116
100
AcDbEntity
8
0
100
AcDbLine
10
-2.75
20
-0.76000000000000001
30
0
11
-2.75
21
0.56000000000000005
31
0
0
LINE
5
117
100
AcDbEntity
8
0
100
AcDbLine
10
-2.75
20
0.56000000000000005
30
0
11
-4.4500000000000002
21
0.56000000000000005
31
0
0
LINE
5
118
100
AcDbEntity
8
0
100
AcDbLine
10
-4.4500000000000002
20
-1.24
30
0
11
-4.4500000000000002
21
-2.5600000000000001
31
0
0
LINE
5
119
100
AcDbEntity
8
0
100
AcDbLine
10
-4.4500000000000002
20
-2.5600000000000001
30
0
11
-2.75
21
-2.5600000000000001
31
0
0
LINE
5
120
100
AcDbEntity
8
0
100
AcDbLine
10
-2.75
20
-2.5600000000000001
30
0
11
-2.75
21
-1.24
31
0
0
LINE
5
121
100
AcDbEntity
8
0
100
AcDbLine
10
-2.75
20
-1.24
30
0
11
-4.4500000000000002
21
-1.24
31
0
0
LINE
5
122
100
AcDbEntity
8
0
100
AcDbLine
10
2.9289515692517898
20
2.7999999999999998
30
0
11
-3.9499999999999997
21
2.7999999999999998
31
0
0
ARC
5
123
100
AcDbEntity
8
0
100
AcDbCircle
10
-3.9500000000000002
20
2.5
30
0
40
0.29999999999999982
210
0
220
-0
230
1
100
AcDbArc
50
89.999999999999929
51
165.52248781407025
0
LINE
5
124
100
AcDbEntity
8
0
100
AcDbLine
10
-4.240473750965557
20
2.5749999999999993
30
0
11
-2.3300000000000001
21
2.5750000000000002
31
0
0
LINE
5
125
100
AcDbEntity
8
0
100
AcDbLine
10
-2.3300000000000001
20
2.5750000000000002
30
0
11
-2.3300000000000001
21
0.97500000000000098
31
0
0
LINE
5
126
100
AcDbEntity
8
0
100
AcDbLine
10
-2.3300000000000001
20
0.97500000000000098
30
0
11
-4.25
21
0.97500000000000098
31
0
0
LINE
5
127
100
AcDbEntity
8
0
100
AcDbLine
10
-4.25
20
0.97500000000000098
30
0
11
-4.25
21
0.56000000000000105
31
0
0
LINE
5
128
100
AcDbEntity
8
0
100
AcDbLine
10
-4.25
20
0.56000000000000105
30
0
11
-2.75
21
0.56000000000000005
31
0
0
LINE
5
129
100
AcDbEntity
8
0
100
AcDbLine
10
-2.75
20
0.56000000000000005
30
0
11
-2.75
21
-0.76000000000000001
31
0
0
LINE
5
130
100
AcDbEntity
8
0
100
AcDbLine
10
-2.75
20
-0.76000000000000001
30
0
11
-4.25
21
-0.76000000000000001
31
0
0
LINE
5
131
100
AcDbEntity
8
0
100
AcDbLine
10
-4.25
20
-0.76000000000000001
30
0
11
-4.25
21
-1.24
31
0
0
LINE
5
132
100
AcDbEntity
8
0
100
AcDbLine
10
-4.25
20
-1.24
30
0
11
-2.75
21
-1.24
31
0
0
LINE
5
133
100
AcDbEntity
8
0
100
AcDbLine
10
-2.75
20
-1.24
30
0
11
-2.75
21
-2.5600000000000001
31
0
0
LINE
5
134
100
AcDbEntity
8
0
100
AcDbLine
10
-2.75
20
-2.5600000000000001
30
0
11
-4.2439387691339796
21
-2.5600000000000001
31
0
0
ARC
5
135
100
AcDbEntity
8
0
100
AcDbCircle
10
-3.9500000000000002
20
-2.5
30
0
40
0.2999999999999981
210
0
220
0
230
1
100
AcDbArc
50
191.53695903281556
51
270
0
LINE
5
136
100
AcDbEntity
8
0
100
AcDbLine
10
-3.9500000000000002
20
-2.7999999999999998
30
0
11
3.9500000000000002
21
-2.7999999999999998
31
0
0
ARC
5
137
100
AcDbEntity
8
0
100
AcDbCircle
10
3.9500000000000002
20
-2.5
30
0
40
0.29999999999999982
210
-0
220
0
230
1
100
AcDbArc
50
-90
51
0
0
LINE
5
138
100
AcDbEntity
8
0
100
AcDbLine
10
4.25
20
-2.5
30
0
11
4.25
21
2.5
31
0
0
ARC
5
139
100
AcDbEntity
8
0
100
AcDbCircle
10
3.9500000000000002
20
2.5
30
0
40
0.29999999999999982
210
0
220
-0
230
1
100
AcDbArc
50
0
51
90
0
LINE
5
140
100
AcDbEntity
8
0
100
AcDbLine
10
3.9500000000000002
20
2.7999999999999998
30
0
11
3.4510484307482101
21
2.7999999999999998
31
0
0
LINE
5
141
100
AcDbEntity
8
0
100
AcDbLine
10
3.4510484307482101
20
2.7999999999999998
30
0
11
3.4510484307482101
21
2.3500000000000001
31
0
0
LINE
5
142
100
AcDbEntity
8
0
100
AcDbLine
10
3.4510484307482101
20
2.3500000000000001
30
0
11
2.9289515692517898
21
2.3500000000000001
31
0
0
LINE
5
143
100
AcDbEntity
8
0
100
AcDbLine
10
2.9289515692517898
20
2.3500000000000001
30
0
11
2.9289515692517898
21
2.7999999999999998
31
0
0
LWPOLYLINE
5
144
100
AcDbEntity
8
0
100
AcDbPolyline
90
4
70
1
43
0.0
10
4.0300000000000002
20
1.0249999999999999
10
3.73
20
1.0249999999999999
10
3.73
20
-1.0249999999999999
10
4.0300000000000002
20
-1.0249999999999999
0
LWPOLYLINE
5
145
100
AcDbEntity
8
0
100
AcDbPolyline
90
4
70
1
43
0.0
10
-0.39999999999999902
20
0.625
10
-0.099999999999999201
20
0.625
10
-0.099999999999999423
20
2.6749999999999998
10
-0.39999999999999902
20
2.6749999999999998
0
LINE
5
146
100
AcDbEntity
8
0
100
AcDbLine
10
-0.749999999999999
20
1.5449999999999999
30
0
11
-1.45
21
1.5449999999999999
31
0
0
LINE
5
147
100
AcDbEntity
8
0
100
AcDbLine
10
-1.45
20
1.5449999999999999
30
0
11
-1.45
21
2.7949999999999999
31
0
0
LINE
5
148
100
AcDbEntity
8
0
100
AcDbLine
10
-1.45
20
2.7949999999999999
30
0
11
-0.749999999999999
21
2.7949999999999999
31
0
0
LINE
5
149
100
AcDbEntity
8
0
100
AcDbLine
10
-0.749999999999999
20
2.7949999999999999
30
0
11
-0.749999999999999
21
1.5449999999999999
31
0
0
LWPOLYLINE
5
150
100
AcDbEntity
8
0
100
AcDbPolyline
90
132
70
1
43
0.0
10
-1.5349999999999999
20
-2.2747299999999999
10
-1.5349999999999999
20
-2.62527
10
-1.5348200000000001
20
-2.625
10
-1.48482
20
-2.7000000000000002
10
-1.3433999999999999
20
-2.7000000000000002
10
-1.2936099999999999
20
-2.6253150000000001
10
-1.2438199999999999
20
-2.7000000000000002
10
-1.10198
20
-2.7000000000000002
10
-1.05219
20
-2.6253150000000001
10
-1.0024
20
-2.7000000000000002
10
-0.86055999999999999
20
-2.7000000000000002
10
-0.81076999999999999
20
-2.6253150000000001
10
-0.76097999999999999
20
-2.7000000000000002
10
-0.61914000000000002
20
-2.7000000000000002
10
-0.56935000000000002
20
-2.6253150000000001
10
-0.51956000000000002
20
-2.7000000000000002
10
-0.377720000000001
20
-2.7000000000000002
10
-0.32793
20
-2.6253150000000001
10
-0.27814
20
-2.7000000000000002
10
-0.1363
20
-2.7000000000000002
10
-0.086510000000000101
20
-2.6253150000000001
10
-0.036720000000000294
20
-2.7000000000000002
10
0.10511999999999901
20
-2.7000000000000002
10
0.15490999999999999
20
-2.6253150000000001
10
0.20469999999999999
20
-2.7000000000000002
10
0.34654000000000001
20
-2.7000000000000002
10
0.39633000000000002
20
-2.6253150000000001
10
0.44612000000000002
20
-2.7000000000000002
10
0.58795999999999904
20
-2.7000000000000002
10
0.63775000000000004
20
-2.6253150000000001
10
0.68754000000000004
20
-2.7000000000000002
10
0.82938000000000001
20
-2.7000000000000002
10
0.87917000000000001
20
-2.6253150000000001
10
0.92896000000000001
20
-2.7000000000000002
10
1.0708
20
-2.7000000000000002
10
1.12059
20
-2.6253150000000001
10
1.17038
20
-2.7000000000000002
10
1.3122199999999999
20
-2.7000000000000002
10
1.3620099999999999
20
-2.6253150000000001
10
1.4117999999999999
20
-2.7000000000000002
10
1.5536399999999999
20
-2.7000000000000002
10
1.6034299999999999
20
-2.6253150000000001
10
1.6532199999999999
20
-2.7000000000000002
10
1.7950600000000001
20
-2.7000000000000002
10
1.8448500000000001
20
-2.6253150000000001
10
1.8946400000000001
20
-2.7000000000000002
10
2.0364800000000001
20
-2.7000000000000002
10
2.0862699999999998
20
-2.6253150000000001
10
2.1360600000000001
20
-2.7000000000000002
10
2.2778999999999998
20
-2.7000000000000002
10
2.32769
20
-2.6253150000000001
10
2.3774799999999998
20
-2.7000000000000002
10
2.51932
20
-2.7000000000000002
10
2.5691099999999998
20
-2.6253150000000001
10
2.6189
20
-2.7000000000000002
10
2.7607400000000002
20
-2.7000000000000002
10
2.81053
20
-2.6253150000000001
10
2.8603200000000002
20
-2.7000000000000002
10
3.0021599999999999
20
-2.7000000000000002
10
3.0519500000000002
20
-2.6253150000000001
10
3.1017399999999999
20
-2.7000000000000002
10
3.2435800000000001
20
-2.7000000000000002
10
3.2933699999999999
20
-2.6253150000000001
10
3.3431600000000001
20
-2.7000000000000002
10
3.4845799999999998
20
-2.7000000000000002
10
3.5345800000000001
20
-2.625
10
3.5350000000000001
20
-2.6256300000000001
10
3.5350000000000001
20
-2.2743699999999998
10
3.5345800000000001
20
-2.2749999999999999
10
3.4845799999999998
20
-2.2000000000000002
10
3.3431600000000001
20
-2.2000000000000002
10
3.2933699999999999
20
-2.2746849999999998
10
3.2435800000000001
20
-2.2000000000000002
10
3.1017399999999999
20
-2.2000000000000002
10
3.0519500000000002
20
-2.2746849999999998
10
3.0021599999999999
20
-2.2000000000000002
10
2.8603200000000002
20
-2.2000000000000002
10
2.81053
20
-2.2746849999999998
10
2.7607400000000002
20
-2.2000000000000002
10
2.6189
20
-2.2000000000000002
10
2.5691099999999998
20
-2.2746849999999998
10
2.51932
20
-2.2000000000000002
10
2.3774799999999998
20
-2.2000000000000002
10
2.32769
20
-2.2746849999999998
10
2.2778999999999998
20
-2.2000000000000002
10
2.1360600000000001
20
-2.2000000000000002
10
2.0862699999999998
20
-2.2746849999999998
10
2.0364800000000001
20
-2.2000000000000002
10
1.8946400000000001
20
-2.2000000000000002
10
1.8448500000000001
20
-2.2746849999999998
10
1.7950600000000001
20
-2.2000000000000002
10
1.6532199999999999
20
-2.2000000000000002
10
1.6034299999999999
20
-2.2746849999999998
10
1.5536399999999999
20
-2.2000000000000002
10
1.4117999999999999
20
-2.2000000000000002
10
1.3620099999999999
20
-2.2746849999999998
10
1.3122199999999999
20
-2.2000000000000002
10
1.17038
20
-2.2000000000000002
10
1.12059
20
-2.2746849999999998
10
1.0708
20
-2.2000000000000002
10
0.92896000000000001
20
-2.2000000000000002
10
0.87917000000000001
20
-2.2746849999999998
10
0.82938000000000001
20
-2.2000000000000002
10
0.68754000000000004
20
-2.2000000000000002
10
0.63775000000000004
20
-2.2746849999999998
10
0.58796000000000004
20
-2.2000000000000002
10
0.44612000000000102
20
-2.2000000000000002
10
0.39633000000000002
20
-2.2746849999999998
10
0.34654000000000001
20
-2.2000000000000002
10
0.20470000000000099
20
-2.2000000000000002
10
0.15490999999999999
20
-2.2746849999999998
10
0.10512000000000002
20
-2.2000000000000002
10
-0.0367199999999984
20
-2.2000000000000002
10
-0.086510000000000101
20
-2.2746849999999998
10
-0.1363
20
-2.2000000000000002
10
-0.278139999999998
20
-2.2000000000000002
10
-0.32793
20
-2.2746849999999998
10
-0.37772
20
-2.2000000000000002
10
-0.51955999999999902
20
-2.2000000000000002
10
-0.56935000000000002
20
-2.2746849999999998
10
-0.61914000000000002
20
-2.2000000000000002
10
-0.76097999999999799
20
-2.2000000000000002
10
-0.81076999999999899
20
-2.2746849999999998
10
-0.86055999999999999
20
-2.2000000000000002
10
-1.0024
20
-2.2000000000000002
10
-1.05219
20
-2.2746849999999998
10
-1.10198
20
-2.2000000000000002
10
-1.2438199999999999
20
-2.2000000000000002
10
-1.2936099999999999
20
-2.2746849999999998
10
-1.3433999999999999
20
-2.2000000000000002
10
-1.48482
20
-2.2000000000000002
10
-1.5348200000000001
20
-2.2749999999999999
0
CIRCLE
5
151
100
AcDbEntity
8
0
100
AcDbCircle
10
3.8999999999999999
20
2.4500000000000002
30
0
40
0.31
210
0
220
0
230
1
0
CIRCLE
5
152
100
AcDbEntity
8
0
100
AcDbCircle
10
-1.8999999999999999
20
2.4500000000000002
30
0
40
0.31
210
0
220
0
230
1
0
CIRCLE
5
153
100
AcDbEntity
8
0
100
AcDbCircle
10
-1.8999999999999999
20
-2.4500000000000002
30
0
40
0.31
210
0
220
0
230
1
0
CIRCLE
5
154
100
AcDbEntity
8
0
100
AcDbCircle
10
3.8999999999999999
20
-2.4500000000000002
30
0
40
0.31
210
0
220
0
230
1
0
LINE
5
155
100
AcDbEntity
8
0
100
AcDbLine
10
1.79
20
2.4500000000000002
30
0
11
1.79
21
1.8
31
0
0
LINE
5
156
100
AcDbEntity
8
0
100
AcDbLine
10
1.79
20
1.8
30
0
11
0.31000000000000094
21
1.8
31
0
0
LINE
5
157
100
AcDbEntity
8
0
100
AcDbLine
10
0.31000000000000094
20
1.8
30
0
11
0.310000000000001
21
2.4500000000000002
31
0
0
LINE
5
158
100
AcDbEntity
8
0
100
AcDbLine
10
0.310000000000001
20
2.4500000000000002
30
0
11
1.79
21
2.4500000000000002
31
0
0
CIRCLE
5
159
100
AcDbEntity
8
0
100
AcDbCircle
10
-1.8999999999999999
20
-2.4500000000000002
30
0
40
0.13750000000000001
210
0
220
0
230
1
0
CIRCLE
5
160
100
AcDbEntity
8
0
100
AcDbCircle
10
-1.8999999999999999
20
-2.4500000000000002
30
0
40
0.31
210
0
220
0
230
1
0
CIRCLE
5
161
100
AcDbEntity
8
0
100
AcDbCircle
10
-1.8999999999999999
20
-2.4500000000000002
30
0
40
0.13750000000000001
210
0
220
0
230
1
0
CIRCLE
5
162
100
AcDbEntity
8
0
100
AcDbCircle
10
-1.8999999999999999
20
2.4500000000000002
30
0
40
0.31
210
0
220
0
230
1
0
CIRCLE
5
163
100
AcDbEntity
8
0
100
AcDbCircle
10
-1.8999999999999999
20
2.4500000000000002
30
0
40
0.31
210
0
220
0
230
1
0
CIRCLE
5
164
100
AcDbEntity
8
0
100
AcDbCircle
10
-1.8999999999999999
20
2.4500000000000002
30
0
40
0.13749999999999901
210
0
220
0
230
1
0
LWPOLYLINE
5
165
100
AcDbEntity
8
0
100
AcDbPolyline
90
12
70
1
43
0.0
10
-0.094999999999999404
20
0.83499999999999996
10
-0.094999999999999307
20
0.53500000000000003
10
-0.40999999999999898
20
0.53500000000000003
10
-0.40999999999999898
20
1.01
10
-0.494999999999999
20
1.095
10
-0.494999999999999
20
2.2050000000000001
10
-0.40999999999999898
20
2.29
10
-0.40999999999999898
20
2.7650000000000001
10
-0.094999999999999293
20
2.7650000000000001
10
-0.094999999999999418
20
2.4649999999999999
10
-0.26499999999999901
20
2.4649999999999999
10
-0.26499999999999901
20
0.83499999999999996
0
LINE
5
166
100
AcDbEntity
8
0
100
AcDbLine
10
-1.45
20
2.7949999999999999
30
0
11
-1.45
21
1.5449999999999999
31
0
0
LINE
5
167
100
AcDbEntity
8
0
100
AcDbLine
10
-1.45
20
1.5449999999999999
30
0
11
-0.749999999999999
21
1.5449999999999999
31
0
0
LINE
5
168
100
AcDbEntity
8
0
100
AcDbLine
10
-0.749999999999999
20
1.5449999999999999
30
0
11
-0.749999999999999
21
2.7949999999999999
31
0
0
LINE
5
169
100
AcDbEntity
8
0
100
AcDbLine
10
-0.749999999999999
20
2.7949999999999999
30
0
11
-1.1000000000000001
21
2.7949999999999999
31
0
0
LINE
5
170
100
AcDbEntity
8
0
100
AcDbLine
10
-1.1000000000000001
20
2.7949999999999999
30
0
11
-1.45
21
2.7949999999999999
31
0
0
LINE
5
171
100
AcDbEntity
8
0
100
AcDbLine
10
-0.8025000000000001
20
3.0350000000000001
30
0
11
-1.3975
21
3.0350000000000001
31
0
0
LINE
5
172
100
AcDbEntity
8
0
100
AcDbLine
10
-0.8025000000000001
20
3.0350000000000001
30
0
11
-1.3975
21
3.0350000000000001
31
0
0
LINE
5
173
100
AcDbEntity
8
0
100
AcDbLine
10
-0.8025000000000001
20
2.7949999999999999
30
0
11
-1.3975
21
2.7949999999999999
31
0
0
LINE
5
174
100
AcDbEntity
8
0
100
AcDbLine
10
1.7
20
2.9500000000000002
30
0
11
0.40000000000000102
21
2.9500000000000002
31
0
0
LINE
5
175
100
AcDbEntity
8
0
100
AcDbLine
10
0.40000000000000102
20
2.9500000000000002
30
0
11
0.40000000000000102
21
1.8
31
0
0
LINE
5
176
100
AcDbEntity
8
0
100
AcDbLine
10
0.40000000000000102
20
1.8
30
0
11
1.7
21
1.8
31
0
0
LINE
5
177
100
AcDbEntity
8
0
100
AcDbLine
10
1.7
20
1.8
30
0
11
1.7
21
2.9500000000000002
31
0
0
LINE
5
178
100
AcDbEntity
8
0
100
AcDbLine
10
-0.14500000000000099
20
2.4449999999999998
30
0
11
-0.14500000000000099
21
0.85499999999999998
31
0
0
LINE
5
179
100
AcDbEntity
8
0
100
AcDbLine
10
-0.14500000000000099
20
2.4449999999999998
30
0
11
-0.244999999999999
21
2.4449999999999998
31
0
0
LINE
5
180
100
AcDbEntity
8
0
100
AcDbLine
10
-0.244999999999999
20
2.4449999999999998
30
0
11
-0.244999999999999
21
0.85499999999999998
31
0
0
LINE
5
181
100
AcDbEntity
8
0
100
AcDbLine
10
-0.244999999999999
20
0.85499999999999998
30
0
11
-0.14500000000000099
21
0.85499999999999998
31
0
0
LINE
5
182
100
AcDbEntity
8
0
100
AcDbLine
10
-0.14500000000000099
20
0.85499999999999998
30
0
11
-0.14500000000000099
21
2.4449999999999998
31
0
0
LINE
5
183
100
AcDbEntity
8
0
100
AcDbLine
10
-0.099999999999999201
20
0.85499999999999998
30
0
11
-0.099999999999999201
21
2.4449999999999998
31
0
0
LINE
5
184
100
AcDbEntity
8
0
100
AcDbLine
10
-0.099999999999999201
20
2.4449999999999998
30
0
11
-0.14500000000000099
21
2.4449999999999998
31
0
0
LINE
5
185
100
AcDbEntity
8
0
100
AcDbLine
10
-0.14500000000000099
20
2.4449999999999998
30
0
11
-0.14500000000000099
21
0.85499999999999998
31
0
0
LINE
5
186
100
AcDbEntity
8
0
100
AcDbLine
10
-0.14500000000000099
20
0.85499999999999998
30
0
11
-0.099999999999999201
21
0.85499999999999998
31
0
0
LINE
5
187
100
AcDbEntity
8
0
100
AcDbLine
10
-0.099999999999999201
20
0.85499999999999998
30
0
11
-0.099999999999999201
21
2.4449999999999998
31
0
0
LINE
5
188
100
AcDbEntity
8
0
100
AcDbLine
10
0.40000000000000102
20
2.9500000000000002
30
0
11
0.31000000000000105
21
2.9500000000000002
31
0
0
LINE
5
189
100
AcDbEntity
8
0
100
AcDbLine
10
0.31000000000000105
20
2.9500000000000002
30
0
11
0.31000000000000094
21
1.8
31
0
0
LINE
5
190
100
AcDbEntity
8
0
100
AcDbLine
10
0.40000000000000102
20
1.8
30
0
11
0.31000000000000094
21
1.8
31
0
0
LINE
5
191
100
AcDbEntity
8
0
100
AcDbLine
10
0.40000000000000102
20
1.8
30
0
11
0.40000000000000102
21
2.9500000000000002
31
0
0
LINE
5
192
100
AcDbEntity
8
0
100
AcDbLine
10
1.79
20
2.9500000000000002
30
0
11
1.7
21
2.9500000000000002
31
0
0
LINE
5
193
100
AcDbEntity
8
0
100
AcDbLine
10
1.7
20
2.9500000000000002
30
0
11
1.7
21
1.8
31
0
0
LINE
5
194
100
AcDbEntity
8
0
100
AcDbLine
10
1.79
20
1.8
30
0
11
1.7
21
1.8
31
0
0
LINE
5
195
100
AcDbEntity
8
0
100
AcDbLine
10
1.79
20
1.8
30
0
11
1.79
21
2.9500000000000002
31
0
0
LWPOLYLINE
5
196
100
AcDbEntity
8
0
100
AcDbPolyline
90
4
70
1
43
0.0
10
3.46339749710621
20
2.3500000000000001
10
2.9166025028937899
20
2.3500000000000001
10
2.9166025028937899
20
2.8999999999999999
10
3.46339749710621
20
2.8999999999999999
0
CIRCLE
5
197
100
AcDbEntity
8
0
100
AcDbCircle
10
3.8999999999999999
20
2.4500000000000002
30
0
40
0.31
210
0
220
0
230
1
0
CIRCLE
5
198
100
AcDbEntity
8
0
100
AcDbCircle
10
3.8999999999999999
20
2.4500000000000002
30
0
40
0.13750000000000001
210
0
220
0
230
1
0
LWPOLYLINE
5
199
100
AcDbEntity
8
0
100
AcDbPolyline
90
12
70
1
43
0.0
10
3.7250000000000001
20
-0.81499999999999995
10
3.8999999999999999
20
-0.81499999999999995
10
3.8999999999999999
20
0.81500000000000195
10
3.7250000000000001
20
0.81500000000000195
10
3.7250000000000001
20
1.115
10
4.04
20
1.115
10
4.04
20
0.64500000000000102
10
4.1299999999999999
20
0.55500000000000305
10
4.1299999999999999
20
-0.55500000000000105
10
4.04
20
-0.64500000000000002
10
4.04
20
-1.115
10
3.7250000000000001
20
-1.115
0
LWPOLYLINE
5
200
100
AcDbEntity
8
0
100
AcDbPolyline
90
4
70
1
43
0.0
10
3.8799999999999999
20
-0.79500000000000004
10
3.7799999999999998
20
-0.79500000000000004
10
3.7799999999999998
20
0.79500000000000204
10
3.8799999999999999
20
0.79500000000000115
0
CIRCLE
5
201
100
AcDbEntity
8
0
100
AcDbCircle
10
3.8999999999999999
20
-2.4500000000000002
30
0
40
0.31
210
0
220
0
230
1
0
CIRCLE
5
202
100
AcDbEntity
8
0
100
AcDbCircle
10
3.8999999999999999
20
-2.4500000000000002
30
0
40
0.13750000000000001
210
0
220
0
230
1
0
LINE
5
203
100
AcDbEntity
8
0
100
AcDbLine
10
-0.61914000000000002
20
-2.2000000000000002
30
0
11
-0.76097999999999799
21
-2.2000000000000002
31
0
0
LINE
5
204
100
AcDbEntity
8
0
100
AcDbLine
10
-0.76097999999999799
20
-2.2000000000000002
30
0
11
-0.81076999999999899
21
-2.2746849999999998
31
0
0
LINE
5
205
100
AcDbEntity
8
0
100
AcDbLine
10
-0.81076999999999899
20
-2.2746849999999998
30
0
11
-0.86055999999999999
21
-2.2000000000000002
31
0
0
LINE
5
206
100
AcDbEntity
8
0
100
AcDbLine
10
-0.86055999999999999
20
-2.2000000000000002
30
0
11
-1.0024
21
-2.2000000000000002
31
0
0
LINE
5
207
100
AcDbEntity
8
0
100
AcDbLine
10
-1.0024
20
-2.2000000000000002
30
0
11
-1.05219
21
-2.2746849999999998
31
0
0
LINE
5
208
100
AcDbEntity
8
0
100
AcDbLine
10
-1.05219
20
-2.2746849999999998
30
0
11
-1.10198
21
-2.2000000000000002
31
0
0
LINE
5
209
100
AcDbEntity
8
0
100
AcDbLine
10
-1.10198
20
-2.2000000000000002
30
0
11
-1.2438199999999999
21
-2.2000000000000002
31
0
0
LINE
5
210
100
AcDbEntity
8
0
100
AcDbLine
10
-1.2438199999999999
20
-2.2000000000000002
30
0
11
-1.2936099999999999
21
-2.2746849999999998
31
0
0
LINE
5
211
100
AcDbEntity
8
0
100
AcDbLine
10
-1.2936099999999999
20
-2.2746849999999998
30
0
11
-1.3433999999999999
21
-2.2000000000000002
31
0
0
LINE
5
212
100
AcDbEntity
8
0
100
AcDbLine
10
-1.3433999999999999
20
-2.2000000000000002
30
0
11
-1.48482
21
-2.2000000000000002
31
0
0
LINE
5
213
100
AcDbEntity
8
0
100
AcDbLine
10
-1.48482
20
-2.2000000000000002
30
0
11
-1.5348200000000001
21
-2.2749999999999999
31
0
0
LINE
5
214
100
AcDbEntity
8
0
100
AcDbLine
10
-1.5348200000000001
20
-2.2749999999999999
30
0
11
-1.5349999999999999
21
-2.2747299999999999
31
0
0
LINE
5
215
100
AcDbEntity
8
0
100
AcDbLine
10
-1.5349999999999999
20
-2.2747299999999999
30
0
11
-1.5349999999999999
21
-2.62527
31
0
0
LINE
5
216
100
AcDbEntity
8
0
100
AcDbLine
10
-1.5349999999999999
20
-2.62527
30
0
11
-1.5348200000000001
21
-2.625
31
0
0
LINE
5
217
100
AcDbEntity
8
0
100
AcDbLine
10
-1.5348200000000001
20
-2.625
30
0
11
-1.48482
21
-2.7000000000000002
31
0
0
LINE
5
218
100
AcDbEntity
8
0
100
AcDbLine
10
-1.48482
20
-2.7000000000000002
30
0
11
-1.3433999999999999
21
-2.7000000000000002
31
0
0
LINE
5
219
100
AcDbEntity
8
0
100
AcDbLine
10
-1.3433999999999999
20
-2.7000000000000002
30
0
11
-1.2936099999999999
21
-2.6253150000000001
31
0
0
LINE
5
220
100
AcDbEntity
8
0
100
AcDbLine
10
-1.2936099999999999
20
-2.6253150000000001
30
0
11
-1.2438199999999999
21
-2.7000000000000002
31
0
0
LINE
5
221
100
AcDbEntity
8
0
100
AcDbLine
10
-1.2438199999999999
20
-2.7000000000000002
30
0
11
-1.10198
21
-2.7000000000000002
31
0
0
LINE
5
222
100
AcDbEntity
8
0
100
AcDbLine
10
-1.10198
20
-2.7000000000000002
30
0
11
-1.05219
21
-2.6253150000000001
31
0
0
LINE
5
223
100
AcDbEntity
8
0
100
AcDbLine
10
-1.05219
20
-2.6253150000000001
30
0
11
-1.0024
21
-2.7000000000000002
31
0
0
LINE
5
224
100
AcDbEntity
8
0
100
AcDbLine
10
-1.0024
20
-2.7000000000000002
30
0
11
-0.86055999999999999
21
-2.7000000000000002
31
0
0
LINE
5
225
100
AcDbEntity
8
0
100
AcDbLine
10
-0.86055999999999999
20
-2.7000000000000002
30
0
11
-0.81076999999999999
21
-2.6253150000000001
31
0
0
LINE
5
226
100
AcDbEntity
8
0
100
AcDbLine
10
-0.81076999999999999
20
-2.6253150000000001
30
0
11
-0.76097999999999999
21
-2.7000000000000002
31
0
0
LINE
5
227
100
AcDbEntity
8
0
100
AcDbLine
10
-0.76097999999999999
20
-2.7000000000000002
30
0
11
-0.61914000000000002
21
-2.7000000000000002
31
0
0
LINE
5
228
100
AcDbEntity
8
0
100
AcDbLine
10
-0.61914000000000002
20
-2.7000000000000002
30
0
11
-0.56935000000000002
21
-2.6253150000000001
31
0
0
LINE
5
229
100
AcDbEntity
8
0
100
AcDbLine
10
-0.56935000000000002
20
-2.6253150000000001
30
0
11
-0.51956000000000002
21
-2.7000000000000002
31
0
0
LINE
5
230
100
AcDbEntity
8
0
100
AcDbLine
10
-0.51956000000000002
20
-2.7000000000000002
30
0
11
-0.377720000000001
21
-2.7000000000000002
31
0
0
LINE
5
231
100
AcDbEntity
8
0
100
AcDbLine
10
-0.377720000000001
20
-2.7000000000000002
30
0
11
-0.32793
21
-2.6253150000000001
31
0
0
LINE
5
232
100
AcDbEntity
8
0
100
AcDbLine
10
-0.32793
20
-2.6253150000000001
30
0
11
-0.27814
21
-2.7000000000000002
31
0
0
LINE
5
233
100
AcDbEntity
8
0
100
AcDbLine
10
-0.27814
20
-2.7000000000000002
30
0
11
-0.1363
21
-2.7000000000000002
31
0
0
LINE
5
234
100
AcDbEntity
8
0
100
AcDbLine
10
-0.1363
20
-2.7000000000000002
30
0
11
-0.086510000000000101
21
-2.6253150000000001
31
0
0
LINE
5
235
100
AcDbEntity
8
0
100
AcDbLine
10
-0.086510000000000101
20
-2.6253150000000001
30
0
11
-0.036720000000000294
21
-2.7000000000000002
31
0
0
LINE
5
236
100
AcDbEntity
8
0
100
AcDbLine
10
-0.036720000000000294
20
-2.7000000000000002
30
0
11
0.10511999999999901
21
-2.7000000000000002
31
0
0
LINE
5
237
100
AcDbEntity
8
0
100
AcDbLine
10
0.10511999999999901
20
-2.7000000000000002
30
0
11
0.15490999999999999
21
-2.6253150000000001
31
0
0
LINE
5
238
100
AcDbEntity
8
0
100
AcDbLine
10
0.15490999999999999
20
-2.6253150000000001
30
0
11
0.20469999999999999
21
-2.7000000000000002
31
0
0
LINE
5
239
100
AcDbEntity
8
0
100
AcDbLine
10
0.20469999999999999
20
-2.7000000000000002
30
0
11
0.34654000000000001
21
-2.7000000000000002
31
0
0
LINE
5
240
100
AcDbEntity
8
0
100
AcDbLine
10
0.34654000000000001
20
-2.7000000000000002
30
0
11
0.39633000000000002
21
-2.6253150000000001
31
0
0
LINE
5
241
100
AcDbEntity
8
0
100
AcDbLine
10
0.39633000000000002
20
-2.6253150000000001
30
0
11
0.44612000000000002
21
-2.7000000000000002
31
0
0
LINE
5
242
100
AcDbEntity
8
0
100
AcDbLine
10
0.44612000000000002
20
-2.7000000000000002
30
0
11
0.58795999999999904
21
-2.7000000000000002
31
0
0
LINE
5
243
100
AcDbEntity
8
0
100
AcDbLine
10
0.58795999999999904
20
-2.7000000000000002
30
0
11
0.63775000000000004
21
-2.6253150000000001
31
0
0
LINE
5
244
100
AcDbEntity
8
0
100
AcDbLine
10
0.63775000000000004
20
-2.6253150000000001
30
0
11
0.68754000000000004
21
-2.7000000000000002
31
0
0
LINE
5
245
100
AcDbEntity
8
0
100
AcDbLine
10
0.68754000000000004
20
-2.7000000000000002
30
0
11
0.82938000000000001
21
-2.7000000000000002
31
0
0
LINE
5
246
100
AcDbEntity
8
0
100
AcDbLine
10
0.82938000000000001
20
-2.7000000000000002
30
0
11
0.87917000000000001
21
-2.6253150000000001
31
0
0
LINE
5
247
100
AcDbEntity
8
0
100
AcDbLine
10
0.87917000000000001
20
-2.6253150000000001
30
0
11
0.92896000000000001
21
-2.7000000000000002
31
0
0
LINE
5
248
100
AcDbEntity
8
0
100
AcDbLine
10
0.92896000000000001
20
-2.7000000000000002
30
0
11
1.0708
21
-2.7000000000000002
31
0
0
LINE
5
249
100
AcDbEntity
8
0
100
AcDbLine
10
1.0708
20
-2.7000000000000002
30
0
11
1.12059
21
-2.6253150000000001
31
0
0
LINE
5
250
100
AcDbEntity
8
0
100
AcDbLine
10
1.12059
20
-2.6253150000000001
30
0
11
1.17038
21
-2.7000000000000002
31
0
0
LINE
5
251
100
AcDbEntity
8
0
100
AcDbLine
10
1.17038
20
-2.7000000000000002
30
0
11
1.3122199999999999
21
-2.7000000000000002
31
0
0
LINE
5
252
100
AcDbEntity
8
0
100
AcDbLine
10
1.3122199999999999
20
-2.7000000000000002
30
0
11
1.3620099999999999
21
-2.6253150000000001
31
0
0
LINE
5
253
100
AcDbEntity
8
0
100
AcDbLine
10
1.3620099999999999
20
-2.6253150000000001
30
0
11
1.4117999999999999
21
-2.7000000000000002
31
0
0
LINE
5
254
100
AcDbEntity
8
0
100
AcDbLine
10
1.4117999999999999
20
-2.7000000000000002
30
0
11
1.5536399999999999
21
-2.7000000000000002
31
0
0
LINE
5
255
100
AcDbEntity
8
0
100
AcDbLine
10
1.5536399999999999
20
-2.7000000000000002
30
0
11
1.6034299999999999
21
-2.6253150000000001
31
0
0
LINE
5
256
100
AcDbEntity
8
0
100
AcDbLine
10
1.6034299999999999
20
-2.6253150000000001
30
0
11
1.6532199999999999
21
-2.7000000000000002
31
0
0
LINE
5
257
100
AcDbEntity
8
0
100
AcDbLine
10
1.6532199999999999
20
-2.7000000000000002
30
0
11
1.7950600000000001
21
-2.7000000000000002
31
0
0
LINE
5
258
100
AcDbEntity
8
0
100
AcDbLine
10
1.7950600000000001
20
-2.7000000000000002
30
0
11
1.8448500000000001
21
-2.6253150000000001
31
0
0
LINE
5
259
100
AcDbEntity
8
0
100
AcDbLine
10
1.8448500000000001
20
-2.6253150000000001
30
0
11
1.8946400000000001
21
-2.7000000000000002
31
0
0
LINE
5
260
100
AcDbEntity
8
0
100
AcDbLine
10
1.8946400000000001
20
-2.7000000000000002
30
0
11
2.0364800000000001
21
-2.7000000000000002
31
0
0
LINE
5
261
100
AcDbEntity
8
0
100
AcDbLine
10
2.0364800000000001
20
-2.7000000000000002
30
0
11
2.0862699999999998
21
-2.6253150000000001
31
0
0
LINE
5
262
100
AcDbEntity
8
0
100
AcDbLine
10
2.0862699999999998
20
-2.6253150000000001
30
0
11
2.1360600000000001
21
-2.7000000000000002
31
0
0
LINE
5
263
100
AcDbEntity
8
0
100
AcDbLine
10
2.1360600000000001
20
-2.7000000000000002
30
0
11
2.2778999999999998
21
-2.7000000000000002
31
0
0
LINE
5
264
100
AcDbEntity
8
0
100
AcDbLine
10
2.2778999999999998
20
-2.7000000000000002
30
0
11
2.32769
21
-2.6253150000000001
31
0
0
LINE
5
265
100
AcDbEntity
8
0
100
AcDbLine
10
2.32769
20
-2.6253150000000001
30
0
11
2.3774799999999998
21
-2.7000000000000002
31
0
0
LINE
5
266
100
AcDbEntity
8
0
100
AcDbLine
10
2.3774799999999998
20
-2.7000000000000002
30
0
11
2.51932
21
-2.7000000000000002
31
0
0
LINE
5
267
100
AcDbEntity
8
0
100
AcDbLine
10
2.51932
20
-2.7000000000000002
30
0
11
2.5691099999999998
21
-2.6253150000000001
31
0
0
LINE
5
268
100
AcDbEntity
8
0
100
AcDbLine
10
2.5691099999999998
20
-2.6253150000000001
30
0
11
2.6189
21
-2.7000000000000002
31
0
0
LINE
5
269
100
AcDbEntity
8
0
100
AcDbLine
10
2.6189
20
-2.7000000000000002
30
0
11
2.7607400000000002
21
-2.7000000000000002
31
0
0
LINE
5
270
100
AcDbEntity
8
0
100
AcDbLine
10
2.7607400000000002
20
-2.7000000000000002
30
0
11
2.81053
21
-2.6253150000000001
31
0
0
LINE
5
271
100
AcDbEntity
8
0
100
AcDbLine
10
2.81053
20
-2.6253150000000001
30
0
11
2.8603200000000002
21
-2.7000000000000002
31
0
0
LINE
5
272
100
AcDbEntity
8
0
100
AcDbLine
10
2.8603200000000002
20
-2.7000000000000002
30
0
11
3.0021599999999999
21
-2.7000000000000002
31
0
0
LINE
5
273
100
AcDbEntity
8
0
100
AcDbLine
10
3.0021599999999999
20
-2.7000000000000002
30
0
11
3.0519500000000002
21
-2.6253150000000001
31
0
0
LINE
5
274
100
AcDbEntity
8
0
100
AcDbLine
10
3.0519500000000002
20
-2.6253150000000001
30
0
11
3.1017399999999999
21
-2.7000000000000002
31
0
0
LINE
5
275
100
AcDbEntity
8
0
100
AcDbLine
10
3.1017399999999999
20
-2.7000000000000002
30
0
11
3.2435800000000001
21
-2.7000000000000002
31
0
0
LINE
5
276
100
AcDbEntity
8
0
100
AcDbLine
10
3.2435800000000001
20
-2.7000000000000002
30
0
11
3.2933699999999999
21
-2.6253150000000001
31
0
0
LINE
5
277
100
AcDbEntity
8
0
100
AcDbLine
10
3.2933699999999999
20
-2.6253150000000001
30
0
11
3.3431600000000001
21
-2.7000000000000002
31
0
0
LINE
5
278
100
AcDbEntity
8
0
100
AcDbLine
10
3.3431600000000001
20
-2.7000000000000002
30
0
11
3.4845799999999998
21
-2.7000000000000002
31
0
0
LINE
5
279
100
AcDbEntity
8
0
100
AcDbLine
10
3.4845799999999998
20
-2.7000000000000002
30
0
11
3.5345800000000001
21
-2.625
31
0
0
LINE
5
280
100
AcDbEntity
8
0
100
AcDbLine
10
3.5345800000000001
20
-2.625
30
0
11
3.5350000000000001
21
-2.6256300000000001
31
0
0
LINE
5
281
100
AcDbEntity
8
0
100
AcDbLine
10
3.5350000000000001
20
-2.6256300000000001
30
0
11
3.5350000000000001
21
-2.2743699999999998
31
0
0
LINE
5
282
100
AcDbEntity
8
0
100
AcDbLine
10
3.5350000000000001
20
-2.2743699999999998
30
0
11
3.5345800000000001
21
-2.2749999999999999
31
0
0
LINE
5
283
100
AcDbEntity
8
0
100
AcDbLine
10
3.5345800000000001
20
-2.2749999999999999
30
0
11
3.4845799999999998
21
-2.2000000000000002
31
0
0
LINE
5
284
100
AcDbEntity
8
0
100
AcDbLine
10
3.4845799999999998
20
-2.2000000000000002
30
0
11
3.3431600000000001
21
-2.2000000000000002
31
0
0
LINE
5
285
100
AcDbEntity
8
0
100
AcDbLine
10
3.3431600000000001
20
-2.2000000000000002
30
0
11
3.2933699999999999
21
-2.2746849999999998
31
0
0
LINE
5
286
100
AcDbEntity
8
0
100
AcDbLine
10
3.2933699999999999
20
-2.2746849999999998
30
0
11
3.2435800000000001
21
-2.2000000000000002
31
0
0
LINE
5
287
100
AcDbEntity
8
0
100
AcDbLine
10
3.2435800000000001
20
-2.2000000000000002
30
0
11
3.1017399999999999
21
-2.2000000000000002
31
0
0
LINE
5
288
100
AcDbEntity
8
0
100
AcDbLine
10
3.1017399999999999
20
-2.2000000000000002
30
0
11
3.0519500000000002
21
-2.2746849999999998
31
0
0
LINE
5
289
100
AcDbEntity
8
0
100
AcDbLine
10
3.0519500000000002
20
-2.2746849999999998
30
0
11
3.0021599999999999
21
-2.2000000000000002
31
0
0
LINE
5
290
100
AcDbEntity
8
0
100
AcDbLine
10
3.0021599999999999
20
-2.2000000000000002
30
0
11
2.8603200000000002
21
-2.2000000000000002
31
0
0
LINE
5
291
100
AcDbEntity
8
0
100
AcDbLine
10
2.8603200000000002
20
-2.2000000000000002
30
0
11
2.81053
21
-2.2746849999999998
31
0
0
LINE
5
292
100
AcDbEntity
8
0
100
AcDbLine
10
2.81053
20
-2.2746849999999998
30
0
11
2.7607400000000002
21
-2.2000000000000002
31
0
0
LINE
5
293
100
AcDbEntity
8
0
100
AcDbLine
10
2.7607400000000002
20
-2.2000000000000002
30
0
11
2.6189
21
-2.2000000000000002
31
0
0
LINE
5
294
100
AcDbEntity
8
0
100
AcDbLine
10
2.6189
20
-2.2000000000000002
30
0
11
2.5691099999999998
21
-2.2746849999999998
31
0
0
LINE
5
295
100
AcDbEntity
8
0
100
AcDbLine
10
2.5691099999999998
20
-2.2746849999999998
30
0
11
2.51932
21
-2.2000000000000002
31
0
0
LINE
5
296
100
AcDbEntity
8
0
100
AcDbLine
10
2.51932
20
-2.2000000000000002
30
0
11
2.3774799999999998
21
-2.2000000000000002
31
0
0
LINE
5
297
100
AcDbEntity
8
0
100
AcDbLine
10
2.3774799999999998
20
-2.2000000000000002
30
0
11
2.32769
21
-2.2746849999999998
31
0
0
LINE
5
298
100
AcDbEntity
8
0
100
AcDbLine
10
2.32769
20
-2.2746849999999998
30
0
11
2.2778999999999998
21
-2.2000000000000002
31
0
0
LINE
5
299
100
AcDbEntity
8
0
100
AcDbLine
10
2.2778999999999998
20
-2.2000000000000002
30
0
11
2.1360600000000001
21
-2.2000000000000002
31
0
0
LINE
5
300
100
AcDbEntity
8
0
100
AcDbLine
10
2.1360600000000001
20
-2.2000000000000002
30
0
11
2.0862699999999998
21
-2.2746849999999998
31
0
0
LINE
5
301
100
AcDbEntity
8
0
100
AcDbLine
10
2.0862699999999998
20
-2.2746849999999998
30
0
11
2.0364800000000001
21
-2.2000000000000002
31
0
0
LINE
5
302
100
AcDbEntity
8
0
100
AcDbLine
10
2.0364800000000001
20
-2.2000000000000002
30
0
11
1.8946400000000001
21
-2.2000000000000002
31
0
0
LINE
5
303
100
AcDbEntity
8
0
100
AcDbLine
10
1.8946400000000001
20
-2.2000000000000002
30
0
11
1.8448500000000001
21
-2.2746849999999998
31
0
0
LINE
5
304
100
AcDbEntity
8
0
100
AcDbLine
10
1.8448500000000001
20
-2.2746849999999998
30
0
11
1.7950600000000001
21
-2.2000000000000002
31
0
0
LINE
5
305
100
AcDbEntity
8
0
100
AcDbLine
10
1.7950600000000001
20
-2.2000000000000002
30
0
11
1.6532199999999999
21
-2.2000000000000002
31
0
0
LINE
5
306
100
AcDbEntity
8
0
100
AcDbLine
10
1.6532199999999999
20
-2.2000000000000002
30
0
11
1.6034299999999999
21
-2.2746849999999998
31
0
0
LINE
5
307
100
AcDbEntity
8
0
100
AcDbLine
10
1.6034299999999999
20
-2.2746849999999998
30
0
11
1.5536399999999999
21
-2.2000000000000002
31
0
0
LINE
5
308
100
AcDbEntity
8
0
100
AcDbLine
10
1.5536399999999999
20
-2.2000000000000002
30
0
11
1.4117999999999999
21
-2.2000000000000002
31
0
0
LINE
5
309
100
AcDbEntity
8
0
100
AcDbLine
10
1.4117999999999999
20
-2.2000000000000002
30
0
11
1.3620099999999999
21
-2.2746849999999998
31
0
0
LINE
5
310
100
AcDbEntity
8
0
100
AcDbLine
10
1.3620099999999999
20
-2.2746849999999998
30
0
11
1.3122199999999999
21
-2.2000000000000002
31
0
0
LINE
5
311
100
AcDbEntity
8
0
100
AcDbLine
10
1.3122199999999999
20
-2.2000000000000002
30
0
11
1.17038
21
-2.2000000000000002
31
0
0
LINE
5
312
100
AcDbEntity
8
0
100
AcDbLine
10
1.17038
20
-2.2000000000000002
30
0
11
1.12059
21
-2.2746849999999998
31
0
0
LINE
5
313
100
AcDbEntity
8
0
100
AcDbLine
10
1.12059
20
-2.2746849999999998
30
0
11
1.0708
21
-2.2000000000000002
31
0
0
LINE
5
314
100
AcDbEntity
8
0
100
AcDbLine
10
1.0708
20
-2.2000000000000002
30
0
11
0.92896000000000001
21
-2.2000000000000002
31
0
0
LINE
5
315
100
AcDbEntity
8
0
100
AcDbLine
10
0.92896000000000001
20
-2.2000000000000002
30
0
11
0.87917000000000001
21
-2.2746849999999998
31
0
0
LINE
5
316
100
AcDbEntity
8
0
100
AcDbLine
10
0.87917000000000001
20
-2.2746849999999998
30
0
11
0.82938000000000001
21
-2.2000000000000002
31
0
0
LINE
5
317
100
AcDbEntity
8
0
100
AcDbLine
10
0.82938000000000001
20
-2.2000000000000002
30
0
11
0.68754000000000004
21
-2.2000000000000002
31
0
0
LINE
5
318
100
AcDbEntity
8
0
100
AcDbLine
10
0.68754000000000004
20
-2.2000000000000002
30
0
11
0.63775000000000004
21
-2.2746849999999998
31
0
0
LINE
5
319
100
AcDbEntity
8
0
100
AcDbLine
10
0.63775000000000004
20
-2.2746849999999998
30
0
11
0.58796000000000004
21
-2.2000000000000002
31
0
0
LINE
5
320
100
AcDbEntity
8
0
100
AcDbLine
10
0.58796000000000004
20
-2.2000000000000002
30
0
11
0.44612000000000102
21
-2.2000000000000002
31
0
0
LINE
5
321
100
AcDbEntity
8
0
100
AcDbLine
10
0.44612000000000102
20
-2.2000000000000002
30
0
11
0.39633000000000002
21
-2.2746849999999998
31
0
0
LINE
5
322
100
AcDbEntity
8
0
100
AcDbLine
10
0.39633000000000002
20
-2.2746849999999998
30
0
11
0.34654000000000001
21
-2.2000000000000002
31
0
0
LINE
5
323
100
AcDbEntity
8
0
100
AcDbLine
10
0.34654000000000001
20
-2.2000000000000002
30
0
11
0.20470000000000099
21
-2.2000000000000002
31
0
0
LINE
5
324
100
AcDbEntity
8
0
100
AcDbLine
10
0.20470000000000099
20
-2.2000000000000002
30
0
11
0.15490999999999999
21
-2.2746849999999998
31
0
0
LINE
5
325
100
AcDbEntity
8
0
100
AcDbLine
10
0.15490999999999999
20
-2.2746849999999998
30
0
11
0.10512000000000002
21
-2.2000000000000002
31
0
0
LINE
5
326
100
AcDbEntity
8
0
100
AcDbLine
10
0.10512000000000002
20
-2.2000000000000002
30
0
11
-0.0367199999999984
21
-2.2000000000000002
31
0
0
LINE
5
327
100
AcDbEntity
8
0
100
AcDbLine
10
-0.0367199999999984
20
-2.2000000000000002
30
0
11
-0.086510000000000101
21
-2.2746849999999998
31
0
0
LINE
5
328
100
AcDbEntity
8
0
100
AcDbLine
10
-0.086510000000000101
20
-2.2746849999999998
30
0
11
-0.1363
21
-2.2000000000000002
31
0
0
LINE
5
329
100
AcDbEntity
8
0
100
AcDbLine
10
-0.1363
20
-2.2000000000000002
30
0
11
-0.278139999999998
21
-2.2000000000000002
31
0
0
LINE
5
330
100
AcDbEntity
8
0
100
AcDbLine
10
-0.278139999999998
20
-2.2000000000000002
30
0
11
-0.32793
21
-2.2746849999999998
31
0
0
LINE
5
331
100
AcDbEntity
8
0
100
AcDbLine
10
-0.32793
20
-2.2746849999999998
30
0
11
-0.37772
21
-2.2000000000000002
31
0
0
LINE
5
332
100
AcDbEntity
8
0
100
AcDbLine
10
-0.37772
20
-2.2000000000000002
30
0
11
-0.51955999999999902
21
-2.2000000000000002
31
0
0
LINE
5
333
100
AcDbEntity
8
0
100
AcDbLine
10
-0.51955999999999902
20
-2.2000000000000002
30
0
11
-0.56935000000000002
21
-2.2746849999999998
31
0
0
LINE
5
334
100
AcDbEntity
8
0
100
AcDbLine
10
-0.56935000000000002
20
-2.2746849999999998
30
0
11
-0.61914000000000002
21
-2.2000000000000002
31
0
0
LWPOLYLINE
5
335
100
AcDbEntity
8
0
100
AcDbPolyline
90
4
70
1
43
0.0
10
3.4442900000000001
20
-2.5449999999999999
10
3.38429
20
-2.5449999999999999
10
3.38429
20
-2.605
10
3.4442900000000001
20
-2.605
0
LWPOLYLINE
5
336
100
AcDbEntity
8
0
100
AcDbPolyline
90
4
70
1
43
0.0
10
3.38429
20
-2.2949999999999999
10
3.38429
20
-2.355
10
3.4442900000000001
20
-2.355
10
3.4442900000000001
20
-2.2949999999999999
0
LWPOLYLINE
5
337
100
AcDbEntity
8
0
100
AcDbPolyline
90
4
70
1
43
0.0
10
3.2028699999999999
20
-2.5449999999999999
10
3.1428699999999998
20
-2.5449999999999999
10
3.1428699999999998
20
-2.605
10
3.2028699999999999
20
-2.605
0
LWPOLYLINE
5
338
100
AcDbEntity
8
0
100
AcDbPolyline
90
4
70
1
43
0.0
10
3.1428699999999998
20
-2.2949999999999999
10
3.1428699999999998
20
-2.355
10
3.2028699999999999
20
-2.355
10
3.2028699999999999
20
-2.2949999999999999
0
LWPOLYLINE
5
339
100
AcDbEntity
8
0
100
AcDbPolyline
90
4
70
1
43
0.0
10
2.9614500000000001
20
-2.5449999999999999
10
2.9014500000000001
20
-2.5449999999999999
10
2.9014500000000001
20
-2.605
10
2.9614500000000001
20
-2.605
0
LWPOLYLINE
5
340
100
AcDbEntity
8
0
100
AcDbPolyline
90
4
70
1
43
0.0
10
2.9014500000000001
20
-2.2949999999999999
10
2.9014500000000001
20
-2.355
10
2.9614500000000001
20
-2.355
10
2.9614500000000001
20
-2.2949999999999999
0
LWPOLYLINE
5
341
100
AcDbEntity
8
0
100
AcDbPolyline
90
4
70
1
43
0.0
10
2.7200299999999999
20
-2.5449999999999999
10
2.6600299999999999
20
-2.5449999999999999
10
2.6600299999999999
20
-2.605
10
2.7200299999999999
20
-2.605
0
LWPOLYLINE
5
342
100
AcDbEntity
8
0
100
AcDbPolyline
90
4
70
1
43
0.0
10
2.6600299999999999
20
-2.2949999999999999
10
2.6600299999999999
20
-2.355
10
2.7200299999999999
20
-2.355
10
2.7200299999999999
20
-2.2949999999999999
0
LWPOLYLINE
5
343
100
AcDbEntity
8
0
100
AcDbPolyline
90
4
70
1
43
0.0
10
2.4786100000000002
20
-2.5449999999999999
10
2.4186100000000001
20
-2.5449999999999999
10
2.4186100000000001
20
-2.605
10
2.4786100000000002
20
-2.605
0
LWPOLYLINE
5
344
100
AcDbEntity
8
0
100
AcDbPolyline
90
4
70
1
43
0.0
10
2.4186100000000001
20
-2.2949999999999999
10
2.4186100000000001
20
-2.355
10
2.4786100000000002
20
-2.355
10
2.4786100000000002
20
-2.2949999999999999
0
LWPOLYLINE
5
345
100
AcDbEntity
8
0
100
AcDbPolyline
90
4
70
1
43
0.0
10
2.23719
20
-2.5449999999999999
10
2.17719
20
-2.5449999999999999
10
2.17719
20
-2.605
10
2.23719
20
-2.605
0
LWPOLYLINE
5
346
100
AcDbEntity
8
0
100
AcDbPolyline
90
4
70
1
43
0.0
10
2.17719
20
-2.2949999999999999
10
2.17719
20
-2.355
10
2.23719
20
-2.355
10
2.23719
20
-2.2949999999999999
0
LWPOLYLINE
5
347
100
AcDbEntity
8
0
100
AcDbPolyline
90
4
70
1
43
0.0
10
1.99577
20
-2.5449999999999999
10
1.93577
20
-2.5449999999999999
10
1.93577
20
-2.605
10
1.99577
20
-2.605
0
LWPOLYLINE
5
348
100
AcDbEntity
8
0
100
AcDbPolyline
90
4
70
1
43
0.0
10
1.93577
20
-2.2949999999999999
10
1.93577
20
-2.355
10
1.99577
20
-2.355
10
1.99577
20
-2.2949999999999999
0
LWPOLYLINE
5
349
100
AcDbEntity
8
0
100
AcDbPolyline
90
4
70
1
43
0.0
10
1.7543500000000001
20
-2.5449999999999999
10
1.69435
20
-2.5449999999999999
10
1.69435
20
-2.605
10
1.7543500000000001
20
-2.605
0
LWPOLYLINE
5
350
100
AcDbEntity
8
0
100
AcDbPolyline
90
4
70
1
43
0.0
10
1.69435
20
-2.2949999999999999
10
1.69435
20
-2.355
10
1.7543500000000001
20
-2.355
10
1.7543500000000001
20
-2.2949999999999999
0
LWPOLYLINE
5
351
100
AcDbEntity
8
0
100
AcDbPolyline
90
4
70
1
43
0.0
10
1.5129300000000001
20
-2.5449999999999999
10
1.4529300000000001
20
-2.5449999999999999
10
1.4529300000000001
20
-2.605
10
1.5129300000000001
20
-2.605
0
LWPOLYLINE
5
352
100
AcDbEntity
8
0
100
AcDbPolyline
90
4
70
1
43
0.0
10
1.4529300000000001
20
-2.2949999999999999
10
1.4529300000000001
20
-2.355
10
1.5129300000000001
20
-2.355
10
1.5129300000000001
20
-2.2949999999999999
0
LWPOLYLINE
5
353
100
AcDbEntity
8
0
100
AcDbPolyline
90
4
70
1
43
0.0
10
1.2715099999999999
20
-2.5449999999999999
10
1.2115100000000001
20
-2.5449999999999999
10
1.2115100000000001
20
-2.605
10
1.2715099999999999
20
-2.605
0
LWPOLYLINE
5
354
100
AcDbEntity
8
0
100
AcDbPolyline
90
4
70
1
43
0.0
10
1.2115100000000001
20
-2.2949999999999999
10
1.2115100000000001
20
-2.355
10
1.2715099999999999
20
-2.355
10
1.2715099999999999
20
-2.2949999999999999
0
LWPOLYLINE
5
355
100
AcDbEntity
8
0
100
AcDbPolyline
90
4
70
1
43
0.0
10
1.03009
20
-2.5449999999999999
10
0.97009000000000001
20
-2.5449999999999999
10
0.97009000000000001
20
-2.605
10
1.03009
20
-2.605
0
LWPOLYLINE
5
356
100
AcDbEntity
8
0
100
AcDbPolyline
90
4
70
1
43
0.0
10
0.97009000000000001
20
-2.2949999999999999
10
0.97009000000000001
20
-2.355
10
1.03009
20
-2.355
10
1.03009
20
-2.2949999999999999
0
LWPOLYLINE
5
357
100
AcDbEntity
8
0
100
AcDbPolyline
90
4
70
1
43
0.0
10
0.78866999999999998
20
-2.5449999999999999
10
0.72866999999999904
20
-2.5449999999999999
10
0.72866999999999904
20
-2.605
10
0.78866999999999998
20
-2.605
0
LWPOLYLINE
5
358
100
AcDbEntity
8
0
100
AcDbPolyline
90
4
70
1
43
0.0
10
0.72866999999999904
20
-2.2949999999999999
10
0.72866999999999904
20
-2.355
10
0.78866999999999998
20
-2.355
10
0.78866999999999998
20
-2.2949999999999999
0
LWPOLYLINE
5
359
100
AcDbEntity
8
0
100
AcDbPolyline
90
4
70
1
43
0.0
10
0.54725000000000001
20
-2.5449999999999999
10
0.48725000000000002
20
-2.5449999999999999
10
0.48725000000000002
20
-2.605
10
0.54725000000000001
20
-2.605
0
LWPOLYLINE
5
360
100
AcDbEntity
8
0
100
AcDbPolyline
90
4
70
1
43
0.0
10
0.48725000000000002
20
-2.2949999999999999
10
0.48725000000000002
20
-2.355
10
0.54725000000000001
20
-2.355
10
0.54725000000000001
20
-2.2949999999999999
0
LWPOLYLINE
5
361
100
AcDbEntity
8
0
100
AcDbPolyline
90
4
70
1
43
0.0
10
0.30582999999999999
20
-2.5449999999999999
10
0.24582999999999999
20
-2.5449999999999999
10
0.24582999999999999
20
-2.605
10
0.30582999999999999
20
-2.605
0
LWPOLYLINE
5
362
100
AcDbEntity
8
0
100
AcDbPolyline
90
4
70
1
43
0.0
10
0.24582999999999999
20
-2.2949999999999999
10
0.24582999999999999
20
-2.355
10
0.30582999999999999
20
-2.355
10
0.30582999999999999
20
-2.2949999999999999
0
LWPOLYLINE
5
363
100
AcDbEntity
8
0
100
AcDbPolyline
90
4
70
1
43
0.0
10
0.064409999999999495
20
-2.5449999999999999
10
0.0044099999999991403
20
-2.5449999999999999
10
0.0044099999999991368
20
-2.605
10
0.064409999999999495
20
-2.605
0
LWPOLYLINE
5
364
100
AcDbEntity
8
0
100
AcDbPolyline
90
4
70
1
43
0.0
10
0.0044099999999991403
20
-2.2949999999999999
10
0.0044099999999991368
20
-2.355
10
0.064409999999999495
20
-2.355
10
0.064409999999999495
20
-2.2949999999999999
0
LWPOLYLINE
5
365
100
AcDbEntity
8
0
100
AcDbPolyline
90
4
70
1
43
0.0
10
-0.17701
20
-2.5449999999999999
10
-0.237010000000001
20
-2.5449999999999999
10
-0.237010000000001
20
-2.605
10
-0.17701
20
-2.605
0
LWPOLYLINE
5
366
100
AcDbEntity
8
0
100
AcDbPolyline
90
4
70
1
43
0.0
10
-0.237010000000001
20
-2.2949999999999999
10
-0.237010000000001
20
-2.355
10
-0.17701
20
-2.355
10
-0.17701
20
-2.2949999999999999
0
LWPOLYLINE
5
367
100
AcDbEntity
8
0
100
AcDbPolyline
90
4
70
1
43
0.0
10
-0.41843000000000002
20
-2.5449999999999999
10
-0.47843000000000102
20
-2.5449999999999999
10
-0.47843000000000102
20
-2.605
10
-0.41843000000000002
20
-2.605
0
LWPOLYLINE
5
368
100
AcDbEntity
8
0
100
AcDbPolyline
90
4
70
1
43
0.0
10
-0.47843000000000102
20
-2.2949999999999999
10
-0.47843000000000102
20
-2.355
10
-0.41843000000000002
20
-2.355
10
-0.41843000000000002
20
-2.2949999999999999
0
LWPOLYLINE
5
369
100
AcDbEntity
8
0
100
AcDbPolyline
90
4
70
1
43
0.0
10
-0.65985000000000005
20
-2.5449999999999999
10
-0.71984999999999999
20
-2.5449999999999999
10
-0.71984999999999999
20
-2.605
10
-0.65985000000000005
20
-2.605
0
LWPOLYLINE
5
370
100
AcDbEntity
8
0
100
AcDbPolyline
90
4
70
1
43
0.0
10
-0.71984999999999999
20
-2.2949999999999999
10
-0.71984999999999999
20
-2.355
10
-0.65985000000000005
20
-2.355
10
-0.65985000000000005
20
-2.2949999999999999
0
LWPOLYLINE
5
371
100
AcDbEntity
8
0
100
AcDbPolyline
90
4
70
1
43
0.0
10
-0.90127000000000002
20
-2.5449999999999999
10
-0.96126999999999996
20
-2.5449999999999999
10
-0.96126999999999996
20
-2.605
10
-0.90127000000000002
20
-2.605
0
LWPOLYLINE
5
372
100
AcDbEntity
8
0
100
AcDbPolyline
90
4
70
1
43
0.0
10
-0.96126999999999996
20
-2.2949999999999999
10
-0.96126999999999996
20
-2.355
10
-0.90127000000000002
20
-2.355
10
-0.90127000000000002
20
-2.2949999999999999
0
LWPOLYLINE
5
373
100
AcDbEntity
8
0
100
AcDbPolyline
90
4
70
1
43
0.0
10
-1.14269
20
-2.5449999999999999
10
-1.20269
20
-2.5449999999999999
10
-1.20269
20
-2.605
10
-1.14269
20
-2.605
0
LWPOLYLINE
5
374
100
AcDbEntity
8
0
100
AcDbPolyline
90
4
70
1
43
0.0
10
-1.20269
20
-2.2949999999999999
10
-1.20269
20
-2.355
10
-1.14269
20
-2.355
10
-1.14269
20
-2.2949999999999999
0
LWPOLYLINE
5
375
100
AcDbEntity
8
0
100
AcDbPolyline
90
4
70
1
43
0.0
10
-1.38411
20
-2.5449999999999999
10
-1.44411
20
-2.5449999999999999
10
-1.44411
20
-2.605
10
-1.38411
20
-2.605
0
LWPOLYLINE
5
376
100
AcDbEntity
8
0
100
AcDbPolyline
90
4
70
1
43
0.0
10
-1.44411
20
-2.2949999999999999
10
-1.44411
20
-2.355
10
-1.38411
20
-2.355
10
-1.38411
20
-2.2949999999999999
0
ENDSEC
0
SECTION
2
OBJECTS
0
DICTIONARY
5
C
100
AcDbDictionary
3
ACAD_GROUP
350
D
3
ACAD_MLINESTYLE
350
17
0
DICTIONARY
5
D
100
AcDbDictionary
0
DICTIONARY
5
1A
330
C
100
AcDbDictionary
0
DICTIONARY
5
17
100
AcDbDictionary
0
ENDSEC
0
EOF
